<svg width="110" height="32" viewBox="0 0 110 32" fill="none" xmlns="http://www.w3.org/2000/svg">
<path d="M0 16C0 7.16344 7.16345 0 16 0H93.0378C101.874 0 109.038 7.16344 109.038 16C109.038 24.8366 101.874 32 93.0377 32H16C7.16343 32 0 24.8366 0 16Z" fill="white" fill-opacity="0.02"/>
<path d="M16 0.5H93.0381C101.598 0.500181 108.538 7.4397 108.538 16C108.538 24.5603 101.598 31.4998 93.0381 31.5H16C7.43959 31.5 0.5 24.5604 0.5 16C0.5 7.43959 7.43959 0.500001 16 0.5Z" stroke="white" stroke-opacity="0.08"/>
<path d="M18.0189 13.3019H15.3019L15.3019 16H12.6981C12.6981 14.5094 11.4906 13.3019 10 13.3019L10 10.6981L12.6981 10.6981L12.6981 8L15.3019 8C15.3019 9.49057 16.5283 10.6981 18.0189 10.6981V13.3019Z" fill="white"/>
<path d="M15.3019 13.3019H18.0189V10.6981C16.5283 10.6981 15.3019 9.49057 15.3019 8L12.6981 8L12.6981 10.6981L15.3019 13.3019Z" fill="white"/>
<path d="M15.3019 13.3019H18.0189V10.6981C16.5283 10.6981 15.3019 9.49057 15.3019 8L12.6981 8L12.6981 10.6981L15.3019 13.3019Z" fill="white"/>
<path d="M15.3019 16L15.3019 13.3019L12.6981 10.6981L10 10.6981L10 13.3019C11.4906 13.3019 12.6981 14.5094 12.6981 16H15.3019Z" fill="white"/>
<path d="M26.0377 13.3019H23.3208V16H20.717C20.717 14.5094 19.5094 13.3019 18.0189 13.3019V10.6981L20.717 10.6981L20.717 8L23.3208 8C23.3208 9.49057 24.5472 10.6981 26.0377 10.6981V13.3019Z" fill="white"/>
<path d="M23.3208 13.3019H26.0377V10.6981C24.5472 10.6981 23.3208 9.49057 23.3208 8L20.717 8L20.717 10.6981L23.3208 13.3019Z" fill="white"/>
<path d="M23.3208 13.3019H26.0377V10.6981C24.5472 10.6981 23.3208 9.49057 23.3208 8L20.717 8L20.717 10.6981L23.3208 13.3019Z" fill="white"/>
<path d="M23.3208 16V13.3019L20.717 10.6981L18.0189 10.6981V13.3019C19.5094 13.3019 20.717 14.5094 20.717 16H23.3208Z" fill="white"/>
<path d="M18.0189 21.3019H15.3019L15.3019 24L12.6981 24C12.6981 22.5094 11.4906 21.3019 10 21.3019L10 18.6981H12.6981L12.6981 16H15.3019C15.3019 17.4906 16.5283 18.6981 18.0189 18.6981V21.3019Z" fill="white"/>
<path d="M15.3019 21.3019H18.0189V18.6981C16.5283 18.6981 15.3019 17.4906 15.3019 16H12.6981L12.6981 18.6981L15.3019 21.3019Z" fill="white"/>
<path d="M15.3019 21.3019H18.0189V18.6981C16.5283 18.6981 15.3019 17.4906 15.3019 16H12.6981L12.6981 18.6981L15.3019 21.3019Z" fill="white"/>
<path d="M15.3019 24L15.3019 21.3019L12.6981 18.6981H10L10 21.3019C11.4906 21.3019 12.6981 22.5094 12.6981 24L15.3019 24Z" fill="white"/>
<path d="M26.0377 21.3019H23.3208V24L20.717 24C20.717 22.5094 19.5094 21.3019 18.0189 21.3019V18.6981H20.717V16H23.3208C23.3208 17.4906 24.5472 18.6981 26.0377 18.6981V21.3019Z" fill="white"/>
<path d="M23.3208 21.3019H26.0377V18.6981C24.5472 18.6981 23.3208 17.4906 23.3208 16H20.717V18.6981L23.3208 21.3019Z" fill="white"/>
<path d="M23.3208 21.3019H26.0377V18.6981C24.5472 18.6981 23.3208 17.4906 23.3208 16H20.717V18.6981L23.3208 21.3019Z" fill="white"/>
<path d="M23.3208 24V21.3019L20.717 18.6981H18.0189V21.3019C19.5094 21.3019 20.717 22.5094 20.717 24L23.3208 24Z" fill="white"/>
<path d="M14.3019 12.6792H21.7736V19.0943H14.3019V12.6792Z" fill="white"/>
<path d="M37.3374 17.835H38.6499C38.5815 18.4639 38.4015 19.0267 38.1099 19.5234C37.8182 20.0202 37.4058 20.4144 36.8726 20.7061C36.3394 20.9932 35.674 21.1367 34.8765 21.1367C34.2931 21.1367 33.7622 21.0273 33.2837 20.8086C32.8097 20.5898 32.4019 20.2799 32.0601 19.8789C31.7183 19.4733 31.4539 18.988 31.2671 18.4229C31.0848 17.8532 30.9937 17.2197 30.9937 16.5225V15.5312C30.9937 14.834 31.0848 14.2028 31.2671 13.6377C31.4539 13.068 31.7205 12.5804 32.0669 12.1748C32.4178 11.7692 32.8394 11.457 33.3315 11.2383C33.8237 11.0195 34.3774 10.9102 34.9927 10.9102C35.7446 10.9102 36.3804 11.0514 36.8999 11.334C37.4194 11.6165 37.8228 12.0085 38.1099 12.5098C38.4015 13.0065 38.5815 13.583 38.6499 14.2393H37.3374C37.2736 13.7744 37.1551 13.3757 36.9819 13.043C36.8088 12.7057 36.5627 12.446 36.2437 12.2637C35.9246 12.0814 35.5076 11.9902 34.9927 11.9902C34.5506 11.9902 34.161 12.0745 33.8237 12.2432C33.491 12.4118 33.2108 12.651 32.9829 12.9609C32.7596 13.2708 32.591 13.6423 32.4771 14.0752C32.3631 14.5081 32.3062 14.9889 32.3062 15.5176V16.5225C32.3062 17.0101 32.3563 17.4681 32.4565 17.8965C32.5614 18.3249 32.7186 18.7008 32.9282 19.0244C33.1379 19.348 33.4045 19.6032 33.728 19.79C34.0516 19.9723 34.4344 20.0635 34.8765 20.0635C35.437 20.0635 35.8836 19.9746 36.2163 19.7969C36.549 19.6191 36.7996 19.3639 36.9683 19.0312C37.1414 18.6986 37.2645 18.2998 37.3374 17.835ZM39.9214 17.3838V17.2266C39.9214 16.6934 39.9989 16.1989 40.1538 15.7432C40.3088 15.2829 40.5321 14.8841 40.8237 14.5469C41.1154 14.2051 41.4686 13.9408 41.8833 13.7539C42.298 13.5625 42.7629 13.4668 43.2778 13.4668C43.7974 13.4668 44.2645 13.5625 44.6792 13.7539C45.0985 13.9408 45.4539 14.2051 45.7456 14.5469C46.0418 14.8841 46.2674 15.2829 46.4224 15.7432C46.5773 16.1989 46.6548 16.6934 46.6548 17.2266V17.3838C46.6548 17.917 46.5773 18.4115 46.4224 18.8672C46.2674 19.3229 46.0418 19.7217 45.7456 20.0635C45.4539 20.4007 45.1007 20.665 44.686 20.8564C44.2759 21.0433 43.811 21.1367 43.2915 21.1367C42.772 21.1367 42.3049 21.0433 41.8901 20.8564C41.4754 20.665 41.12 20.4007 40.8237 20.0635C40.5321 19.7217 40.3088 19.3229 40.1538 18.8672C39.9989 18.4115 39.9214 17.917 39.9214 17.3838ZM41.186 17.2266V17.3838C41.186 17.7529 41.2293 18.1016 41.3159 18.4297C41.4025 18.7533 41.5324 19.0404 41.7056 19.291C41.8833 19.5417 42.1043 19.7399 42.3687 19.8857C42.633 20.027 42.9406 20.0977 43.2915 20.0977C43.6379 20.0977 43.9409 20.027 44.2007 19.8857C44.465 19.7399 44.6838 19.5417 44.8569 19.291C45.0301 19.0404 45.16 18.7533 45.2466 18.4297C45.3377 18.1016 45.3833 17.7529 45.3833 17.3838V17.2266C45.3833 16.862 45.3377 16.5179 45.2466 16.1943C45.16 15.8662 45.0278 15.5768 44.8501 15.3262C44.6769 15.071 44.4582 14.8704 44.1938 14.7246C43.9341 14.5788 43.6287 14.5059 43.2778 14.5059C42.9315 14.5059 42.6261 14.5788 42.3618 14.7246C42.1021 14.8704 41.8833 15.071 41.7056 15.3262C41.5324 15.5768 41.4025 15.8662 41.3159 16.1943C41.2293 16.5179 41.186 16.862 41.186 17.2266ZM49.5054 15.1826V21H48.2407V13.6035H49.437L49.5054 15.1826ZM49.2046 17.0215L48.6782 17.001C48.6828 16.4951 48.758 16.028 48.9038 15.5996C49.0496 15.1667 49.2547 14.7907 49.519 14.4717C49.7834 14.1527 50.0978 13.9066 50.4624 13.7334C50.8315 13.5557 51.2394 13.4668 51.686 13.4668C52.0506 13.4668 52.3787 13.5169 52.6704 13.6172C52.9621 13.7129 53.2104 13.8678 53.4155 14.082C53.6252 14.2962 53.7847 14.5742 53.894 14.916C54.0034 15.2533 54.0581 15.6657 54.0581 16.1533V21H52.7866V16.1396C52.7866 15.7523 52.7297 15.4424 52.6157 15.21C52.5018 14.973 52.3354 14.8021 52.1167 14.6973C51.8979 14.5879 51.6291 14.5332 51.3101 14.5332C50.9956 14.5332 50.7085 14.5993 50.4487 14.7314C50.1935 14.8636 49.9725 15.0459 49.7856 15.2783C49.6034 15.5107 49.4598 15.7773 49.355 16.0781C49.2547 16.3743 49.2046 16.6888 49.2046 17.0215ZM59.0757 13.6035V14.5742H55.0767V13.6035H59.0757ZM56.4302 11.8057H57.6948V19.168C57.6948 19.4186 57.7336 19.6077 57.811 19.7354C57.8885 19.863 57.9888 19.9473 58.1118 19.9883C58.2349 20.0293 58.367 20.0498 58.5083 20.0498C58.6131 20.0498 58.7225 20.0407 58.8364 20.0225C58.9549 19.9997 59.0438 19.9814 59.103 19.9678L59.1099 21C59.0096 21.0319 58.8774 21.0615 58.7134 21.0889C58.5539 21.1208 58.3602 21.1367 58.1323 21.1367C57.8224 21.1367 57.5376 21.0752 57.2778 20.9521C57.0181 20.8291 56.8107 20.624 56.6558 20.3369C56.5054 20.0452 56.4302 19.6533 56.4302 19.1611V11.8057ZM64.9204 19.7354V15.9277C64.9204 15.6361 64.8612 15.3831 64.7427 15.1689C64.6287 14.9502 64.4556 14.7816 64.2231 14.6631C63.9907 14.5446 63.7036 14.4854 63.3618 14.4854C63.0428 14.4854 62.7625 14.54 62.521 14.6494C62.284 14.7588 62.0972 14.9023 61.9604 15.0801C61.8283 15.2578 61.7622 15.4492 61.7622 15.6543H60.4976C60.4976 15.39 60.5659 15.1279 60.7026 14.8682C60.8394 14.6084 61.0353 14.3737 61.2905 14.1641C61.5503 13.9499 61.8602 13.7812 62.2202 13.6582C62.5848 13.5306 62.9904 13.4668 63.437 13.4668C63.9748 13.4668 64.4487 13.5579 64.8589 13.7402C65.2736 13.9225 65.5972 14.1982 65.8296 14.5674C66.0666 14.932 66.1851 15.39 66.1851 15.9414V19.3867C66.1851 19.6328 66.2056 19.8949 66.2466 20.1729C66.2922 20.4508 66.3582 20.6901 66.4448 20.8906V21H65.1255C65.0617 20.8542 65.0116 20.6605 64.9751 20.4189C64.9386 20.1729 64.9204 19.945 64.9204 19.7354ZM65.1392 16.5156L65.1528 17.4043H63.8745C63.5145 17.4043 63.1932 17.4339 62.9106 17.4932C62.6281 17.5479 62.3911 17.6322 62.1997 17.7461C62.0083 17.86 61.8625 18.0036 61.7622 18.1768C61.6619 18.3454 61.6118 18.5436 61.6118 18.7715C61.6118 19.0039 61.6642 19.2158 61.769 19.4072C61.8739 19.5986 62.0311 19.7513 62.2407 19.8652C62.4549 19.9746 62.717 20.0293 63.0269 20.0293C63.4142 20.0293 63.756 19.9473 64.0522 19.7832C64.3485 19.6191 64.5832 19.4186 64.7563 19.1816C64.9341 18.9447 65.0298 18.7145 65.0435 18.4912L65.5835 19.0996C65.5516 19.291 65.465 19.5029 65.3237 19.7354C65.1825 19.9678 64.9933 20.1911 64.7563 20.4053C64.5239 20.6149 64.2459 20.7904 63.9224 20.9316C63.6034 21.0684 63.2433 21.1367 62.8423 21.1367C62.341 21.1367 61.9012 21.0387 61.5229 20.8428C61.1493 20.6468 60.8576 20.3848 60.6479 20.0566C60.4429 19.724 60.3403 19.3525 60.3403 18.9424C60.3403 18.5459 60.4178 18.1973 60.5728 17.8965C60.7277 17.5911 60.951 17.3382 61.2427 17.1377C61.5343 16.9326 61.8853 16.7777 62.2954 16.6729C62.7056 16.568 63.1636 16.5156 63.6694 16.5156H65.1392ZM71.1343 20.0977C71.4351 20.0977 71.7131 20.0361 71.9683 19.9131C72.2235 19.79 72.4331 19.6214 72.5972 19.4072C72.7612 19.1885 72.8547 18.9401 72.8774 18.6621H74.0806C74.0578 19.0996 73.9097 19.5075 73.6362 19.8857C73.3674 20.2594 73.0142 20.5625 72.5767 20.7949C72.1392 21.0228 71.6584 21.1367 71.1343 21.1367C70.5783 21.1367 70.0929 21.0387 69.6782 20.8428C69.2681 20.6468 68.9263 20.3779 68.6528 20.0361C68.384 19.6943 68.1812 19.3024 68.0444 18.8604C67.9123 18.4137 67.8462 17.9421 67.8462 17.4453V17.1582C67.8462 16.6615 67.9123 16.1921 68.0444 15.75C68.1812 15.3034 68.384 14.9092 68.6528 14.5674C68.9263 14.2256 69.2681 13.9567 69.6782 13.7607C70.0929 13.5648 70.5783 13.4668 71.1343 13.4668C71.7131 13.4668 72.2189 13.5853 72.6519 13.8223C73.0848 14.0547 73.4243 14.3737 73.6704 14.7793C73.9211 15.1803 74.0578 15.6361 74.0806 16.1465H72.8774C72.8547 15.8411 72.7681 15.5654 72.6177 15.3193C72.4718 15.0732 72.2713 14.8773 72.0161 14.7314C71.7655 14.5811 71.4715 14.5059 71.1343 14.5059C70.7469 14.5059 70.4211 14.5833 70.1567 14.7383C69.897 14.8887 69.6896 15.0938 69.5347 15.3535C69.3843 15.6087 69.2749 15.8936 69.2065 16.208C69.1427 16.5179 69.1108 16.8346 69.1108 17.1582V17.4453C69.1108 17.7689 69.1427 18.0879 69.2065 18.4023C69.2703 18.7168 69.3774 19.0016 69.5278 19.2568C69.6828 19.512 69.8901 19.7171 70.1499 19.8721C70.4142 20.0225 70.7424 20.0977 71.1343 20.0977ZM78.5991 13.6035V14.5742H74.6001V13.6035H78.5991ZM75.9536 11.8057H77.2183V19.168C77.2183 19.4186 77.257 19.6077 77.3345 19.7354C77.4119 19.863 77.5122 19.9473 77.6353 19.9883C77.7583 20.0293 77.8905 20.0498 78.0317 20.0498C78.1366 20.0498 78.2459 20.0407 78.3599 20.0225C78.4784 19.9997 78.5672 19.9814 78.6265 19.9678L78.6333 21C78.533 21.0319 78.4009 21.0615 78.2368 21.0889C78.0773 21.1208 77.8836 21.1367 77.6558 21.1367C77.3459 21.1367 77.061 21.0752 76.8013 20.9521C76.5415 20.8291 76.3341 20.624 76.1792 20.3369C76.0288 20.0452 75.9536 19.6533 75.9536 19.1611V11.8057ZM89.4409 11.0469H90.7534V17.7803C90.7534 18.5277 90.5871 19.1497 90.2544 19.6465C89.9217 20.1432 89.4797 20.5169 88.9282 20.7676C88.3813 21.0137 87.7866 21.1367 87.144 21.1367C86.4696 21.1367 85.8589 21.0137 85.312 20.7676C84.7697 20.5169 84.339 20.1432 84.02 19.6465C83.7056 19.1497 83.5483 18.5277 83.5483 17.7803V11.0469H84.854V17.7803C84.854 18.2998 84.9497 18.7282 85.1411 19.0654C85.3325 19.4027 85.5991 19.6533 85.9409 19.8174C86.2873 19.9814 86.6883 20.0635 87.144 20.0635C87.6043 20.0635 88.0054 19.9814 88.3472 19.8174C88.6935 19.6533 88.9624 19.4027 89.1538 19.0654C89.3452 18.7282 89.4409 18.2998 89.4409 17.7803V11.0469ZM96.9399 19.0381C96.9399 18.8558 96.8989 18.6872 96.8169 18.5322C96.7394 18.3727 96.5776 18.2292 96.3315 18.1016C96.09 17.9694 95.7254 17.8555 95.2378 17.7598C94.8276 17.6732 94.4562 17.5706 94.1235 17.4521C93.7954 17.3337 93.5151 17.1901 93.2827 17.0215C93.0549 16.8529 92.8794 16.6546 92.7563 16.4268C92.6333 16.1989 92.5718 15.9323 92.5718 15.627C92.5718 15.3353 92.6356 15.0596 92.7632 14.7998C92.8953 14.54 93.0799 14.3099 93.3169 14.1094C93.5584 13.9089 93.8478 13.7516 94.1851 13.6377C94.5223 13.5238 94.8983 13.4668 95.313 13.4668C95.9054 13.4668 96.4113 13.5716 96.8306 13.7812C97.2498 13.9909 97.5711 14.2712 97.7944 14.6221C98.0177 14.9684 98.1294 15.3535 98.1294 15.7773H96.8647C96.8647 15.5723 96.8032 15.374 96.6802 15.1826C96.5617 14.9867 96.3862 14.8249 96.1538 14.6973C95.9259 14.5697 95.6457 14.5059 95.313 14.5059C94.9621 14.5059 94.6772 14.5605 94.4585 14.6699C94.2443 14.7747 94.0871 14.9092 93.9868 15.0732C93.8911 15.2373 93.8433 15.4105 93.8433 15.5928C93.8433 15.7295 93.866 15.8525 93.9116 15.9619C93.9618 16.0667 94.0483 16.1647 94.1714 16.2559C94.2944 16.3424 94.4676 16.4245 94.6909 16.502C94.9142 16.5794 95.1991 16.6569 95.5454 16.7344C96.1515 16.8711 96.6506 17.0352 97.0425 17.2266C97.4344 17.418 97.7261 17.6527 97.9175 17.9307C98.1089 18.2087 98.2046 18.5459 98.2046 18.9424C98.2046 19.266 98.1362 19.5622 97.9995 19.8311C97.8674 20.0999 97.6737 20.3324 97.4185 20.5283C97.1678 20.7197 96.867 20.8701 96.5161 20.9795C96.1698 21.0843 95.7801 21.1367 95.3472 21.1367C94.6955 21.1367 94.144 21.0205 93.6929 20.7881C93.2417 20.5557 92.8999 20.2549 92.6675 19.8857C92.4351 19.5166 92.3188 19.127 92.3188 18.7168H93.5903C93.6086 19.0632 93.7088 19.3389 93.8911 19.5439C94.0734 19.7445 94.2967 19.888 94.561 19.9746C94.8254 20.0566 95.0874 20.0977 95.3472 20.0977C95.6935 20.0977 95.9829 20.0521 96.2153 19.9609C96.4523 19.8698 96.6323 19.7445 96.7554 19.585C96.8784 19.4255 96.9399 19.2432 96.9399 19.0381Z" fill="white"/>
</svg>
