<svg width="276" height="567" viewBox="0 0 276 567" fill="none" xmlns="http://www.w3.org/2000/svg">
<g clip-path="url(#clip0_2126_4188)">
<path d="M37.926 415.741C33.4676 420.798 23.6149 415.853 19.7171 412.533C10.5029 404.734 9.98951 390.956 3.74085 381.185C3.49766 380.806 3.50439 380.418 3.63612 380.1C3.13285 379.364 3.58546 378.03 4.73386 378.189C15.387 379.584 25.0065 386.947 32.2144 394.57C37.0006 399.63 43.8842 409.027 37.9294 415.741H37.926Z" fill="#F7DFCB"/>
<path d="M24.6015 252.081C28.1277 248.98 26.3072 242.921 21.3792 242.337C15.1204 241.593 13.2526 246.947 12.7358 251.936C16.3499 253.398 21.5346 254.77 24.5981 252.078L24.6015 252.081Z" fill="#F7DFCB"/>
<path d="M83.0146 542.309C87.3684 531.379 81.6939 516.109 69.4972 515.997C60.766 515.923 53.9668 521.78 55.4091 531.298C56.7905 540.38 69.6087 538.445 70.4903 529.487C70.774 526.623 68.3725 520.03 62.3333 520.689C66.8086 518.497 73.4187 519.067 76.7963 523.124C79.566 526.454 80.2078 531.362 80.4847 535.466C81.0285 543.147 77.3435 548.571 70.6929 552.006C62.4042 556.316 52.6833 557.177 44.0433 553.715C29.4484 547.875 19.3256 530.865 17.1639 515.892C15.1373 502 22.0581 489.054 29.8335 477.968C33.6266 476.175 37.1495 473.885 40.1725 471.199C58.1416 455.233 68.8318 429.039 67.2309 405.18C65.9169 385.789 55.2976 366.441 40.1792 354.333C29.0837 345.426 15.2353 341.427 1.22814 340.66C13.1175 338.981 24.8312 336.917 35.5788 331.111C48.826 323.964 59.9993 312.95 68.3995 300.547C82.6025 279.605 82.562 253.56 68.5346 232.555C66.1736 229.008 63.1844 225.837 59.7865 223.101C52.7036 206.837 59.9756 189.355 69.5681 177.357C80.299 163.928 95.1673 152.16 113.248 153.629C131.095 155.088 152.429 174.878 139.121 192.529C134.054 199.227 125.229 202.619 117.119 200.281C111.488 198.67 107.411 193.685 107.905 188.5C111.492 191.503 117.899 189.976 117.835 184.349C117.801 181.805 115.903 180.063 113.39 179.509C109.087 178.556 105.31 183.001 104.719 186.554C101.761 196.505 113.951 203.301 122.523 203.463C130.859 203.618 139.202 198.022 143.127 190.81C154.128 170.656 129.157 151.089 110.316 151.106C88.9255 151.126 70.6186 168.582 60.5262 186.186C54.4397 196.795 50.8492 209.397 56.4224 220.628C43.2901 211.769 25.429 208.962 11.2327 215.93C2.24819 220.351 -1.68002 229.771 -1.26795 239.374C-1.00787 245.589 6.06495 253.226 15.0461 255.229C22.1662 256.816 29.0499 251.797 26.7362 244.876C25.6114 241.512 19.7073 238.219 16.4749 239.918C11.8948 242.357 8.92245 246.781 10.4559 250.865C-0.291779 245.332 -1.53476 232.551 5.80487 223.148C12.5568 214.521 25.6452 213.89 35.5485 215.2C47.1811 216.771 57.4762 222.067 64.7314 231.305C81.0387 252.155 79.9511 279.271 65.5049 300.591C57.2769 312.74 45.9043 322.87 33.022 329.821C19.4236 337.144 -4.95296 339.687 -12.6574 340.954C-47.535 344.017 -83.936 364.425 -103.834 393.01C-104.705 394.253 -102.851 395.732 -101.979 394.486C-88.2897 374.835 -67.4767 360.591 -45.5084 351.63C-23.3814 342.622 2.65688 338.937 25.2905 348.273C50.1669 358.521 65.6197 386.42 65.0455 412.702C64.7652 426.486 59.8608 439.828 52.7948 451.508C47.4344 460.364 40.7771 468.636 32.1708 474.148C27.9724 477.016 23.7301 478.424 21.4738 479.083C9.47977 482.683 -5.35152 479.684 -14.8866 471.601C-26.0599 462.151 -24.1178 445.144 -14.0456 435.737C-9.32701 431.34 -2.65614 430.083 3.14328 432.849C7.51059 434.937 12.013 437.923 12.8405 442.972C13.5532 447.363 10.5707 449.17 7.42612 448.545C6.2203 447.856 4.22413 449.748 6.77087 451.085C8.21651 451.933 11.7327 453.494 15.4346 449.231C20.9976 442.898 14.7962 434.136 6.77426 430.384C-14.559 420.443 -32.116 449.626 -21.8446 466.751C-12.0055 483.203 8.94607 485.865 25.8377 479.62C20.6699 487.476 16.4174 495.849 14.9009 505.283C12.9722 517.328 17.5354 529.329 24.0104 539.279C30.3705 549.02 40.4326 556.826 52.1598 558.231C62.2387 559.44 78.725 553.057 83.0112 542.295L83.0146 542.309Z" fill="#F7DFCB"/>
<path d="M220.998 507.475C207.589 509.006 193.987 509.259 181.088 504.865C163.311 498.792 151.942 483.119 145.234 466.315C138.773 450.069 136.814 432.377 133.618 415.309C130.791 400.262 126.356 385.968 120.942 371.761C131.163 381.455 135.307 395.462 139.593 408.608C144.187 422.669 151.314 435.562 159.559 447.775C168.047 460.334 177.967 471.845 188.505 482.7C198.513 493.012 206.832 503.828 220.998 507.475ZM218.911 494.076C199.381 475.631 185.546 453.055 170.175 431.222C161.893 419.437 152.824 408.328 144.285 396.759C138.769 389.302 133.331 381.817 127.083 375.014C132.936 382.502 136.5 391.615 139.502 400.742C144.245 415.103 149.804 428.442 158.059 441.209C166.257 453.899 176.332 465.194 186.05 476.735C211.946 507.502 227.504 506.624 228.564 506.466C224.805 502.74 220.965 499.075 218.914 494.076H218.911ZM238.707 456.919C227.031 431.846 214.432 406.649 192.447 388.971C174.964 374.886 154.087 366.161 131.855 365.026C160.285 371.312 188.043 383.732 204.789 408.632C213.79 422.021 218.86 437.19 224.616 452.146C228.118 461.185 231.722 470.389 236.84 478.651C241.359 485.919 246.54 492.688 251.813 499.433C252.569 499.433 253.336 499.345 254.113 499.207C250.201 493.695 238.035 473.341 238.711 456.915L238.707 456.919ZM247.628 420.916C239.91 406.369 228.625 394.55 214.652 385.87C200.26 376.916 184.145 370.623 167.371 368.046C163.065 367.404 158.772 366.86 154.448 366.384C168.807 370.4 182.304 377.46 193.923 387.113C216.651 405.957 229.594 431.674 241.798 457.979C241.943 458.25 241.923 458.506 241.879 458.712C249.215 463.62 258.21 463.667 266.688 465.812C260.345 450.873 255.248 435.288 247.631 420.913L247.628 420.916ZM224.417 458.111C218.6 443.499 214.078 427.982 205.755 414.499C187.009 384.157 154.155 370.944 120.473 365.236C129.991 373.457 137.435 383.516 144.9 393.584C152.949 404.518 161.592 414.985 169.442 426.091C185.634 448.944 199.999 473.034 220.556 492.357C226.639 494.809 233.215 495.11 239.552 496.674C242.558 497.434 245.571 498.562 248.58 499.112C238.785 486.304 230.469 473.338 224.413 458.111H224.417Z" fill="#F7DFCB"/>
<path d="M46.6609 207.05C36.5145 205.632 25.6824 211.158 15.7757 207.689C7.95643 204.943 -0.383028 198.782 -3.93632 191.067C-11.2591 175.071 -1.03827 156.088 -11.0057 141.017C-11.7184 139.933 -10.3505 138.477 -9.32028 139.393C3.07909 150.427 21.8791 147.762 33.9002 159.53C39.2672 164.779 41.1317 171.416 41.1621 178.719C41.179 184.555 39.507 201.994 46.7251 204.679C46.8095 204.683 46.8974 204.693 47.0122 204.696C48.5051 204.916 48.1775 207.263 46.6542 207.047L46.6609 207.05Z" fill="#F7DFCB"/>
<path d="M-3.37576 515.524C-12.6238 521.857 -22.4696 522.438 -31.9473 516.493C-32.8154 515.95 -32.3188 514.832 -31.6534 514.453C-22.5237 509.539 -23.1924 496.187 -13.4918 492.272C-9.89123 490.803 -6.46292 490.871 -2.64955 490.725C3.17352 490.482 9.25328 488.638 13.8908 484.96C14.8365 483.774 16.6909 485.25 15.7451 486.439C13.9719 488.665 9.79709 506.506 -3.37576 515.524Z" fill="#F7DFCB"/>
<path d="M-42.553 609.768C-51.0343 603.384 -66.0311 596.781 -78.0724 598.145C-78.2784 598.132 -78.4574 598.118 -78.606 598.108C-83.7874 597.733 -88.918 596.744 -93.8899 595.241C-92.6334 594.406 -84.0981 588.556 -86.655 587.151C-90.4008 585.033 -94.8492 584.601 -99.051 584.212C-103.955 583.756 -115.862 583.723 -115.406 576.299C-114.983 569.368 -105.675 568.793 -100.723 569.993C-93.9102 571.644 -86.3949 575.903 -81.9938 581.412C-78.4541 585.854 -74.1374 595.649 -67.2436 595.163C-64.197 594.95 -63.5079 591.846 -60.9477 591.147C-58.259 590.41 -55.0976 593.359 -53.223 594.855C-47.0554 599.753 -39.8238 600.425 -32.2714 598.561C-25.8606 596.98 -19.4025 591.738 -26.9583 586.682C-19.0884 585.165 -12.2656 584.638 -4.88541 580.99C1.7821 577.69 7.74365 573.1 14.5496 570.05C13.5667 570.496 7.38559 573.249 14.6036 570.026C18.3359 568.381 6.90939 566.693 6.1055 566.466C2.20432 565.352 -1.46384 563.518 -4.79419 561.204C-8.58728 558.579 -11.5799 554.509 -15.6196 552.307C-19.1154 550.399 -23.9252 550.74 -27.769 550.078C-26.2963 548.457 -19.0918 543.302 -19.2809 541.195C-19.4228 539.648 -25.533 536.952 -26.8604 536.084C-33.6732 531.639 -40.0231 530.869 -47.812 533.2C-45.3936 530.761 -43.0326 528.235 -40.2461 526.208C-40.1684 526.154 -33.1665 521.29 -37.2771 521.8C-42.6408 522.499 -47.5857 519.142 -52.3988 517.362C-64.4469 512.907 -78.5621 516.676 -89.1815 523.172C-84.2467 517.294 -83.2469 510.357 -79.3018 504.068C-77.6096 501.372 -73.955 497.552 -80.0956 499.616C-83.7874 500.859 -87.5129 502.081 -91.3871 502.619C-85.0573 493.685 -78.5419 485.821 -76.0019 474.902C-74.769 469.605 -74.1914 464.188 -73.6138 458.787C-73.0971 454.68 -78.8932 462.6 -79.1735 462.897C-84.8784 468.862 -93.4711 470.45 -100.844 473.398C-110.187 477.134 -117.834 483.893 -124.41 491.371C-123.779 488.608 -119.168 472.024 -121.529 470.372C-122.404 469.761 -128.595 480.819 -130.105 482.42C-137.283 490.023 -147.723 494.988 -152.31 504.828C-158.305 517.7 -147.659 552.132 -170.819 551.311C-168.313 546.916 -164.236 543.589 -162.145 538.928C-160.186 534.561 -160.011 529.366 -160.21 524.658C-160.49 518.105 -162.297 520.179 -167.8 520.361C-172.674 520.523 -176.94 520.851 -180.719 524.29C-177.223 515.832 -173.157 507.053 -174.015 497.657C-174.295 494.597 -175.457 485.724 -178.804 491.553C-180.827 495.076 -184.175 497.484 -187.751 499.261C-196.165 503.449 -205.454 505.034 -211.78 512.569C-218.62 520.716 -220.633 531.454 -223.987 541.252C-225.747 538.256 -227.726 535.328 -230.408 533.075C-234.201 529.893 -233.772 533.514 -235.856 536.169C-240.051 541.505 -245.634 544.39 -242.885 552.091C-240.787 557.972 -238.507 562.964 -239.227 569.398C-239.825 574.701 -241.909 579.703 -244.189 584.479C-244.969 580.065 -244.911 575.329 -246.789 571.178C-247.34 569.962 -253.633 561.94 -254.447 565.781C-256.727 576.109 -264.992 584.78 -271.075 593.096C-277.584 601.999 -285.035 611.301 -294.658 616.976C-301.497 621.009 -309.192 623.012 -317.001 624.042C-295.573 628.828 -286.146 626.869 -278.468 625.481C-271.004 624.16 -265.13 622.019 -258.23 618.57C-250.177 614.453 -242.642 609.173 -235.66 603.61C-224.193 594.487 -215.364 584.412 -207.909 571.786C-204.417 565.568 -200.303 559.65 -197.672 552.983C-195.024 546.454 -194.456 546.643 -196.837 553.29C-198.53 558.218 -201.093 562.778 -203.539 567.361C-210.054 579.585 -216.83 590.873 -226.959 600.506C-231.887 605.191 -237.14 609.748 -242.682 613.926C-241.601 613.463 -240.527 612.993 -239.457 612.521C-230.935 608.569 -222.568 604.293 -214.171 600C-206.889 596.277 -199.31 593.119 -191.862 589.708C-177.051 581.173 -163.179 570.823 -151.03 559.002C-132.091 540.583 -120.009 517.44 -103.466 497.147C-118.817 517.142 -129.859 539.82 -147.233 558.346C-152.208 563.653 -157.511 568.618 -163.037 573.32C-153.147 567.334 -142.987 562.214 -132.149 557.64C-119.013 552.101 -104.256 544.434 -89.6982 544.427C-78.1467 544.424 -66.5951 550.02 -55.9859 554.175C-45.8597 558.14 -32.8591 568.317 -21.6149 564.666C-32.2039 568.354 -43.7047 559.508 -53.1858 556.023C-63.2917 552.311 -73.5497 547.994 -84.2197 546.285C-98.8483 543.947 -113.882 552.405 -126.866 557.968C-140.569 563.845 -154.042 570.334 -166.199 579.024C-173.488 584.233 -181.185 588.34 -189.025 592.238C-195.118 596.038 -201.377 599.581 -207.774 602.837C-202.924 601.452 -198.053 600.121 -193.162 598.865C-178.595 595.112 -163.453 592.491 -148.382 594.085C-134.587 595.531 -118.28 605.313 -104.489 600.179C-116.963 605.4 -131.598 597.76 -144.116 596.264C-158.896 594.494 -173.727 597.061 -187.947 601.053C-202.809 605.225 -218.036 609.859 -232.13 616.195C-237.903 618.789 -243.645 621.194 -249.654 623.052C-255.43 625.46 -261.28 627.636 -267.204 629.402C-254.497 630.952 -242.155 633.79 -229.955 638.177C-213.976 643.919 -198.884 651.877 -184.813 661.361C-171.394 670.268 -158.66 679.868 -143.035 684.671C-158.873 680.438 -171.995 671.282 -185.776 662.858C-199.992 654.018 -215.161 646.706 -231.124 641.633C-246.404 636.769 -261.79 634.313 -277.796 633.83C-280.971 633.732 -314.285 630.415 -321.142 631.084C-318.791 632.016 -316.433 632.938 -314.082 633.884C-303.271 638.224 -292.948 643.183 -283.319 649.776C-273.719 656.352 -264.809 663.925 -256.767 672.335C-252.045 677.277 -251.937 670.258 -252.251 666.364C-252.586 662.246 -254.224 658.389 -256.49 654.971C-236.758 659.727 -226.439 681.567 -209.108 690.906C-201.066 695.243 -192.203 698.32 -183.057 699.043C-178.517 699.404 -173.923 699.167 -169.465 698.225C-163.949 697.06 -164.601 696.05 -167.904 692.105C-159.855 695.911 -149.229 697.239 -140.488 695.482C-132.203 693.817 -124.937 689.23 -117.017 686.491C-110.852 684.36 -119.003 681.587 -121.664 680.023C-125.974 677.493 -130.213 674.855 -134.486 672.275C-143.693 666.722 -152.729 663.395 -163.112 660.72C-159.156 659.156 -155.535 656.903 -151.864 654.788C-146.551 651.735 -153.539 650.235 -156.525 648.898C-164 645.537 -171.684 642.278 -179.976 641.822C-178.105 640.143 -176.365 638.289 -174.234 636.924C-172.967 636.113 -168.749 635.762 -168.141 634.712C-167.155 633.003 -176.392 628.821 -177.946 627.858C-187.63 621.856 -194.324 626.051 -204.545 626.389C-196.719 611.22 -176.129 615.895 -163.057 619.762C-155.62 621.961 -148.287 624.504 -141.059 627.305C-138.542 628.281 -115.541 634.695 -119.401 625.849C-112.909 628.193 -105.705 627.94 -99.4326 625.028C-96.1597 623.511 -93.2144 621.333 -90.7149 618.729C-89.1375 617.074 -97.7472 613.605 -98.8618 612.818C-89.2862 611.625 -82.2776 604.154 -73.3842 601.128C-72.8809 600.959 -72.479 600.8 -72.1344 600.648C-66.1121 601.276 -59.9141 603.414 -55.0874 605.367C-44.3566 609.707 -35.3788 617.834 -29.3464 627.612C-16.562 648.354 -26.3943 671.602 -45.6807 683.546C-57.5565 690.902 -77.559 690.896 -87.2292 679.662C-92.6773 673.332 -90.7014 663.479 -86.5165 657.031C-84.0238 653.188 -79.4234 650.799 -75.198 652.046C-79.0485 654.12 -79.214 659.585 -74.3333 662.375C-67.4361 666.313 -61.3766 655.626 -70.0437 649.857C-77.2921 644.625 -87.2427 651.907 -90.4987 659.48C-94.0182 667.654 -93.8798 676.257 -87.496 682.847C-81.3081 689.244 -71.0806 690.963 -62.6061 690.842C-51.8145 690.69 -41.8504 685.343 -34.2777 677.858C-24.9993 668.694 -20.3719 657.109 -21.4224 644.058C-22.5505 630.054 -31.6769 617.952 -42.5766 609.758L-42.553 609.768Z" fill="#F7DFCB"/>
<path d="M-46.9207 368.303C-21.3958 356.535 10.0063 354.464 33.41 372.032C11.8066 357.369 -15.1268 359.338 -38.507 368.941C-30.154 368.468 -21.0141 370.312 -15.799 377.405C-9.43214 386.072 -13.9143 394.179 -20.6898 400.921C-15.4207 395.013 -10.8271 387.761 -15.8294 380.165C-20.9263 372.427 -30.4681 371.525 -39.071 372.244C-58.783 373.896 -96.5451 407.179 -96.3256 407.152C-88.8002 406.267 -81.4167 405.028 -74.2763 402.383C-66.3726 399.431 -61.2149 394.023 -56.037 387.603C-50.4909 380.682 -40.895 375.294 -31.8057 378.506C-24.7599 380.999 -27.3235 391.024 -31.37 394.773C-35.0854 398.178 -41.0233 398.779 -45.8263 398.529C-46.843 398.479 -47.5388 399.499 -46.9477 400.397C-38.5475 413.215 -23.1657 417.988 -9.66856 409.919C3.77787 401.87 3.81842 386.106 -4.36563 374.582C8.66197 374.899 20.781 378.675 30.9545 387.177C41.1077 395.662 47.0861 408.128 50.8218 420.562C51.1528 421.707 53.0004 421.48 53.0848 420.308C54.4663 403.4 53.963 385.809 43.9044 371.42C33.6194 356.707 16.5826 349.405 -0.859627 347.929C-38.4732 344.74 -69.8786 369.441 -92.215 397.317C-91.9887 397.178 -70.9899 379.398 -46.9207 368.303Z" fill="#F7DFCB"/>
<path d="M-377.475 353.302C-390.482 358.612 -405.485 368.353 -403.77 384.431C-403.516 386.674 -386.115 377.76 -383.625 377.27C-377.147 375.99 -368.183 375.588 -362.224 378.827C-365.315 383.364 -368.818 387.673 -371.135 392.686C-373.884 398.631 -367.825 395.543 -364.545 394.78C-355.689 392.71 -346.92 391.264 -340.651 384.059C-338.3 381.361 -334.257 375.406 -330.022 375.909C-327.08 376.264 -325.229 380.837 -325.168 383.34C-324.962 391.646 -337.179 395.712 -341.874 400.907C-343.907 403.16 -356.01 424.973 -352.605 425.388C-351.207 425.557 -347.805 421.386 -345.823 420.879C-343.269 420.224 -340.58 420.629 -338.044 421.143C-331.88 422.386 -326.29 423.922 -321.004 419.545C-317.214 416.407 -313.049 410.601 -307.398 412.709C-311.931 415.792 -313.515 421.349 -312.847 426.591C-311.928 433.724 -309.516 430.303 -305.487 427.334C-297.553 421.491 -287.089 418.194 -277.965 423.419C-268.954 428.577 -263.175 438.825 -259.665 448.258C-257.652 453.68 -255.903 459.563 -255.828 465.356C-255.822 465.768 -255.764 466.184 -255.747 466.599C-255.45 465.207 -252.836 458.253 -252.066 448.025C-251.353 438.906 -251.414 429.718 -253.43 420.771C-256.663 406.457 -266.421 394.905 -276.452 384.63C-295.857 364.827 -323.844 349.148 -351.69 360.703C-326.371 348.901 -299.68 360.341 -279.664 377.034C-280.333 376.135 -281.002 375.24 -281.651 374.328C-287.558 366.019 -292.733 356.822 -294.388 346.632C-296.141 336.026 -299.525 325.558 -299.103 314.693C-298.934 324.815 -295.489 334.442 -293.131 344.179C-290.385 355.552 -284.961 364.895 -277.567 373.91C-266.407 387.467 -248.465 400.688 -245.172 418.478C-242.216 399.201 -242.027 379.395 -235.549 360.713C-231.138 347.787 -222.798 336.749 -218.353 323.883C-213.858 311.666 -214.52 296.652 -216.097 283.932C-216.192 284.077 -216.279 284.219 -216.354 284.324C-216.719 284.946 -217.256 285.858 -217.506 286.496C-216.935 284.804 -217.016 285.297 -216.354 284.324C-216.256 284.162 -216.168 284.003 -216.104 283.895C-216.104 283.909 -216.1 283.922 -216.1 283.936C-216.063 283.875 -216.033 283.834 -215.992 283.767C-214.01 295.534 -212.986 308.714 -215.536 320.462C-218.401 333.668 -226.395 344.926 -230.753 357.595C-236.468 374.21 -236.947 391.531 -238.214 408.747C-232.499 395.526 -225.862 382.759 -218.114 370.576C-216.323 367.036 -214.459 363.537 -212.378 360.152C-202.934 344.784 -189.383 332.489 -178.338 318.337C-167.611 304.593 -158.913 288.425 -161.531 270.445C-162.717 262.319 -164.389 254.351 -164.672 246.109C-165.24 237.023 -161.963 228.505 -159.214 220.02C-161.305 227.194 -163.791 234.429 -163.946 241.978C-164.128 250.71 -162.011 259.461 -160.278 267.959C-156.617 285.908 -163.058 302.226 -173.059 316.871C-170.289 314.112 -167.503 311.366 -164.693 308.626C-138.823 283.426 -117.108 254.857 -92.2926 228.684C-83.5512 219.463 -75.2118 209.877 -66.5988 200.541C-60.6001 194.039 -55.5505 187.284 -51.1967 179.563C-49.4504 176.469 -47.8022 173.328 -46.1573 170.183C-45.1777 168.092 -44.1779 166.008 -43.0971 163.995C-42.256 162.019 -41.1076 159.449 -40.1686 159.098C-40.1619 159.087 -40.1585 159.074 -40.1484 159.064C-40.1484 159.067 -40.1653 159.087 -40.1653 159.094C-40.1586 159.094 -40.145 159.074 -40.1315 159.071C-40.1382 159.071 -40.1619 159.104 -40.1822 159.118C-40.1957 159.145 -40.2025 159.155 -40.2328 159.196C-41.2596 160.722 -42.202 162.33 -43.0971 163.992C-43.472 164.88 -43.7929 165.657 -43.9888 166.032C-44.7116 167.413 -45.4344 168.795 -46.1539 170.18C-47.5185 173.084 -48.8459 175.999 -50.2881 178.739C-54.5338 186.832 -59.5057 193.952 -65.5822 200.785C-74.1445 210.408 -82.4197 220.277 -91.107 229.782C-115.487 256.452 -136.712 285.462 -162.159 311.173C-174.947 324.086 -187.326 337.069 -198.415 351.232C-188.961 342.102 -178.744 333.641 -168.236 326.011C-150.885 313.412 -131.456 302.867 -110.302 298.476C-91.5596 294.589 -72.5874 294.66 -54.1589 290.306C-46.9375 288.077 -39.2702 285.624 -39.3783 285.489C-39.3715 285.496 -39.4222 285.567 -39.4864 285.658C-39.456 285.618 -39.4222 285.584 -39.3547 285.51C-39.3547 285.51 -39.4323 285.611 -39.5269 285.733C-39.5236 285.729 -39.5303 285.743 -39.5236 285.733C-39.5269 285.733 -39.5303 285.733 -39.5337 285.736C-39.7025 285.945 -39.9254 286.229 -39.9592 286.263C-39.9254 286.229 -39.7093 285.955 -39.5506 285.743C-44.3671 287.692 -49.2444 289.151 -54.1555 290.309C-59.8604 292.069 -65.2916 293.684 -66.3961 293.9C-78.6671 296.298 -91.1341 297.291 -103.49 299.115C-125.769 302.911 -146.126 314.034 -164.024 327.47C-179.004 338.718 -192.974 351.739 -205.37 365.8C-210.608 371.741 -214.79 378.287 -218.428 385.154C-219.873 388.542 -221.326 391.929 -222.829 395.29C-211.584 383.458 -197.844 375.011 -182.158 377.872C-167.543 380.543 -157.545 393.385 -146.406 402.032C-134.29 411.445 -118.912 414.968 -104.608 419.673C-117.716 415.951 -131.879 413.323 -143.66 406.122C-155.624 398.81 -165.078 386.414 -178.872 382.31C-191.727 378.479 -204.819 386.039 -214.016 394.517C-222.457 402.295 -229.003 411.861 -234.617 421.889C-235.6 424.145 -238.197 429.094 -242.034 436.774C-238.494 433.839 -234.12 432.296 -228.885 433.072C-219.363 434.491 -213.797 444.391 -205.17 447.904C-203.583 448.552 -193.791 452.089 -193.332 449.251C-192.555 445.343 -193.609 441.159 -196.318 438.203C-189.657 438.416 -183.962 442.891 -177.315 443.543C-171.522 444.104 -165.486 443.513 -160.278 440.76C-157.035 439.054 -168.935 427.374 -170.651 425.912C-176.126 421.247 -182.618 417.968 -189.491 415.9C-184.405 413.661 -178.902 415.198 -186.198 410.047C-190.461 407.041 -192.95 399.789 -185.428 399.985C-174.67 400.262 -172.299 417.427 -166.003 423.801C-157.576 432.329 -144.65 435.977 -133.405 438.916C-127.559 440.443 -121.665 441.797 -115.869 443.506C-111.457 444.773 -119.419 433.789 -120.422 432.9C-104.547 436.7 -88.1077 432.812 -73.6513 425.915C-70.25 424.294 -80.2918 421.159 -81.2274 420.731C-85.5913 418.731 -89.7762 416.38 -94.005 414.117C-102.314 409.669 -111.103 405.48 -120.736 405.487C-116.325 402.346 -110.356 402.748 -106.529 398.955C-104.675 397.046 -115.5 387.478 -117.142 386.285C-127.383 378.851 -139.894 384.688 -151.307 382.637C-144.734 377.777 -136.141 374.825 -130.355 369.1C-127.67 366.442 -126.262 364.888 -130.149 363.01C-133.358 361.459 -136.834 360.595 -140.387 360.331C-132.449 358.062 -124.151 357.055 -121.263 348.128C-120.898 347 -118.138 338.552 -120.901 338.931C-125.721 339.518 -130.501 340.396 -135.29 341.187C-141.559 342.224 -149.983 344.581 -156.005 341.265C-162.909 337.465 -154.83 330.544 -150.169 329.642C-134.24 326.562 -119.307 339.545 -103.476 335.219C-99.2472 334.063 -89.3743 328.19 -94.0929 322.873C-97.7407 318.756 -104.027 317.199 -108.901 315.084C-100.504 312.733 -90.1309 316.054 -81.7071 317.206C-71.7869 318.563 -61.9174 319.171 -51.9364 319.843C-41.844 320.522 -32.6331 319.523 -23.1791 315.783C-21.0343 314.936 -10.4217 311.724 -10.0704 309.342C-9.62793 306.329 -18.5686 302.685 -20.71 301.999C-10.0771 300.523 0.727936 299.399 10.0908 293.697C14.5088 291.008 18.5181 287.715 22.4463 284.368C24.0473 283.003 31.3531 278.393 31.2281 276.231C30.9647 271.479 6.08829 272.246 2.6701 272.367C-7.30072 272.732 -16.7108 275.677 -26.5297 277.079C-23.1892 274.228 -20.0885 270.986 -18.0788 267.037C-15.5828 262.136 -16.3427 261.326 -21.524 261.187C-29.8736 260.957 -38.1792 262.656 -46.1032 265.18C-58.0196 268.973 -68.7504 275.38 -80.4843 279.541C-84.4261 280.94 -90.4788 283.297 -94.5927 281.277C-100.568 278.342 -89.2966 270.965 -86.5776 269.939C-78.3699 266.855 -72.4219 264.663 -65.9942 258.32C-63.4306 255.79 -60.2319 253.017 -65.8084 253.554C-69.6623 253.922 -73.4318 252.49 -77.0053 251.25C-68.3383 245.917 -57.317 248.457 -50.0855 240.165C-46.8429 236.446 -44.6677 231.896 -42.8404 227.35C-40.753 222.155 -47.9845 223.935 -51.6527 223.128C-42.9485 219.068 -37.095 215.612 -32.1231 207.07C-31.5489 206.081 -25.4961 197.458 -28.0496 197.431C-32.6669 197.339 -37.2605 197.914 -41.7359 199.045C-24.1957 183.214 -20.0547 161.351 -23.125 138.869C-22.5643 133.184 -24.7193 133.894 -26.6074 136.711C-30.4073 142.385 -39.9491 146.995 -45.4412 151.049C-51.0717 155.21 -57.2731 159.358 -60.8838 165.522C-63.7514 170.416 -65.4099 175.989 -68.8652 180.546C-70.554 175.645 -73.5263 171.315 -75.2625 166.437C-77.1844 161.043 -78.1808 165.292 -80.2749 168.17C-85.821 175.776 -91.6069 179.448 -92.3804 189.513C-94.174 185.913 -97.1665 183.032 -100.304 180.6C-103.76 177.921 -106.03 175.104 -107.57 180.272C-110.029 188.52 -118.77 193.084 -122.252 200.977C-125.823 209.067 -126.778 218.277 -129.548 226.664C-130.882 230.711 -132.352 235.463 -135.304 238.668C-136.128 239.57 -137.29 240.428 -138.59 240.131C-141.664 239.422 -139.688 235.419 -139.073 233.251C-136.628 224.631 -136.58 216.791 -135.712 207.972C-135.327 204.068 -134.49 200.271 -138.837 204.564C-141.657 207.347 -144.93 209.654 -147.571 212.62C-147.112 204.49 -151.07 196.968 -155.532 190.456C-157.998 186.852 -160.714 183.43 -163.362 179.955C-166.452 175.898 -166.641 180.248 -167.574 183.19C-172.61 199.089 -186.063 213.407 -181.756 231.43C-183.351 230.346 -200.57 223.347 -199.925 227.559C-198.783 234.7 -198.554 241.962 -197.155 249.058C-194.72 261.437 -184.06 272.144 -184.607 285.03C-184.817 289.928 -185.972 295.95 -189.336 299.713C-192.443 303.188 -197.712 302.749 -197.037 297.392C-196.426 292.525 -194.73 288.188 -194.72 283.159C-194.72 281.565 -194.369 275.238 -196.199 274.492C-197.935 273.779 -202.303 277.376 -203.617 278.339C-201.573 270.33 -205.748 263.106 -210.176 256.759C-212.544 253.371 -215.053 250.071 -217.164 246.511C-218.826 243.711 -220.529 240.651 -221.312 245.701C-222.656 254.327 -229.324 260.772 -233.208 268.267C-237.342 276.248 -237.005 284.807 -234.414 293.207C-235.893 291.985 -249.019 282.061 -249.063 285.415C-249.087 289.789 -250.904 293.856 -252.464 297.855C-256.406 307.961 -253.934 317.067 -249.404 326.585C-253.022 324.224 -257.683 322.917 -261.952 324.059C-267.323 325.498 -265.032 327.284 -263.688 331.047C-261.76 336.431 -260.881 345.321 -266.346 349.07C-268.549 350.58 -273.824 351.644 -275.581 348.891C-276.868 346.875 -275.574 343.845 -274.868 341.859C-273.534 338.1 -272.821 334.317 -272.565 330.324C-272.166 324.106 -273.098 325.889 -278.307 326.136C-274.726 319.745 -272.872 312.504 -273.19 305.171C-273.436 299.496 -274.25 300.04 -279.06 301.689C-282.225 302.773 -285.552 303.678 -288.291 305.684C-286.96 297.122 -288.159 288.262 -291.908 280.433C-293.79 276.498 -296.283 272.864 -299.235 269.655C-302.98 265.585 -303.173 266.872 -306.078 270.817C-311.485 278.167 -319.109 284.479 -321.929 293.434C-324.675 302.158 -321.622 311.045 -319.707 319.577C-324.077 316.706 -329.201 315.419 -334.163 313.993C-339.56 312.446 -337.79 316.692 -337.554 320.705C-337.034 329.753 -336.183 338.133 -328.721 344.163C-341.317 339.025 -355.395 333.722 -369.236 335.634C-376.299 336.61 -382.75 339.812 -387.699 344.96C-390.401 347.766 -391.549 349.621 -387.027 349.229C-383.419 348.915 -380.17 351.198 -377.475 353.299V353.302Z" fill="#F7DFCB"/>
<path d="M265.84 383.61C261.027 380.114 256.007 376.554 249.941 375.798C251.674 374.886 262.786 368.904 261.189 366.259C260.425 364.993 252.4 364.496 250.536 363.733C242.311 360.372 235.512 356.616 226.281 357.697C228.77 355.927 242.757 343.257 239.467 339.721C238.535 338.718 231.695 341.339 230.141 341.504C226.625 341.876 223.085 341.778 219.556 341.758C229.81 323.988 229.297 299.024 206.609 291.819C205.224 291.38 200.374 289.421 199.121 290.63C197.689 292.019 200.955 294.126 201.658 294.967C204.397 298.247 206.231 302.26 207.153 306.417C208.967 314.591 207.214 324.096 200.246 329.396C198.682 321.917 192.396 317.385 185.283 315.703C179.25 314.277 185.496 320.411 184.232 324.316C180.716 335.148 169.151 343.109 158.427 345C164.824 339.826 167.78 331.358 169.688 323.643C170.685 319.617 168.975 320.053 166.537 322.218C163.96 324.511 160.835 325.994 157.657 327.258C160.889 322.748 163.136 317.709 162.382 312.045C162.024 309.626 152.016 317.023 150.243 317.618C158.842 309.525 164.392 298.21 163.997 286.26C163.794 280.146 162.048 274.164 159.133 268.797C157.167 265.24 156.451 273.343 156.38 273.688C155.647 277.214 154.11 280.538 152.145 283.541C157.924 258.688 130.528 236.301 107.097 239.81C98.2339 241.138 109.363 245.687 112.373 248.048C117.351 251.956 121.698 256.709 125.171 261.998C131.771 272.046 135.581 285.338 129.4 296.514C126.907 292.434 122.691 289.853 118.162 288.587C116.862 288.225 108.705 286.016 109.046 288.806C109.319 291.022 113.545 294.19 114.541 296.622C115.514 299.003 115.889 301.581 115.734 304.144C115.021 316.182 105.239 326.693 97.3659 334.955C96.1736 328.514 93.3938 322.485 88.3036 318.209C84.497 315.01 85.0206 318.459 84.2032 321.478C83.5479 323.897 82.315 326.119 80.7681 328.075C76.1103 333.959 68.8652 338.346 61.3162 341.157C66.9062 341.792 72.4996 342.734 77.9005 343.822C85.6522 343.751 93.3465 343.301 100.841 342.325C125.498 339.12 141.37 315.817 148.142 293.69C142.197 317.006 126.68 341.231 101.368 345.743C99.487 346.078 97.5719 346.328 95.6669 346.605C107.387 346.936 119.047 344.298 130.93 345.483C138.593 346.247 146.153 347.861 153.827 348.51C161.501 349.162 169.185 348.175 176.869 348.682C184.698 349.199 191.883 349.668 198.858 345.433C205.984 341.109 211.851 334.256 215.134 326.612C209.548 341.123 197.01 350.975 181.405 350.682C173.67 350.536 166.091 351.097 158.366 351.31C149.838 351.546 141.39 349.925 132.912 349.28C117.99 348.077 103.365 353.573 88.5704 351.445C82.6325 350.59 76.5393 349.55 70.4021 348.699C69.7975 348.712 69.1895 348.706 68.5849 348.712C72.8982 351.485 76.8399 354.833 80.2209 358.464C91.4381 370.508 94.0186 383.735 94.7516 399.617C95.4136 413.948 100.382 427.219 103.091 441.199C105.982 456.081 105.161 471.527 109.157 486.213C105.03 473.206 104.854 459.422 102.24 446.11C99.4566 431.951 93.1641 418.559 91.5394 404.184C89.8033 388.808 88.9893 375.808 77.9072 363.878C69.5644 354.951 57.1414 347.344 44.4887 348.24C47.6502 349.101 50.7306 350.188 53.8279 352.188C60.0732 356.218 64.4 362.405 68.416 368.516C76.3805 380.608 78.9475 392.666 76.9716 406.913C74.9619 421.399 72.351 435.964 71.3208 450.565C70.4021 463.593 73.7662 476.438 73.5365 489.456C73.4453 494.728 78.4409 494.039 82.0347 491.584C85.8954 488.942 88.5705 484.788 91.1577 480.991C90.489 493.735 98.0921 504.355 101.943 516.102C103.726 521.55 106.347 526.711 108.032 532.156C108.37 533.234 108.296 538.162 110.559 537.223C111.998 536.625 111.576 531.308 111.687 530.011C113.416 509.617 131.48 487.135 120.675 466.437C123.408 467.494 126.366 467.873 129.285 467.69C131.636 467.582 129.102 463.005 128.863 462.178C127.326 456.899 126.91 451.393 126.069 445.982C124.347 434.944 120.297 423.392 113.349 414.543C114.366 414.192 125.677 412.553 123.12 410.689C119.56 408.051 117.926 404.339 117.064 400.11C116.146 395.618 115.551 391.105 112.781 387.285C110.052 383.522 106.097 380.932 102.767 377.76C104.314 377.807 110.052 378.659 110.991 377.064C111.951 375.433 108.951 372.032 108.012 370.947C104.381 366.759 99.2472 364.037 94.1841 361.973C125.289 353.573 159.008 355.346 189.062 366.948C197.719 370.289 205.799 374.609 213.706 379.436C221.12 383.958 227.77 389.562 235.154 394.071C248.205 402.035 261.935 395.033 275.392 392.135C278.769 391.403 267.117 384.526 265.846 383.604L265.84 383.61Z" fill="#F7DFCB"/>
</g>
<defs>
<clipPath id="clip0_2126_4188">
<rect width="470" height="567" fill="white" transform="translate(-194)"/>
</clipPath>
</defs>
</svg>
