<svg width="444" height="802" viewBox="0 0 444 802" fill="none" xmlns="http://www.w3.org/2000/svg">
<g clip-path="url(#clip0_2102_109)" filter="url(#filter0_d_2102_109)">
<path d="M240.849 380.258C245.308 375.202 255.16 380.147 259.058 383.467C268.273 391.266 268.786 405.043 275.035 414.815C275.278 415.193 275.271 415.582 275.139 415.899C275.643 416.635 275.19 417.97 274.042 417.811C263.388 416.416 253.769 409.053 246.561 401.429C241.775 396.369 234.891 386.973 240.846 380.258L240.849 380.258Z" fill="#F7DFCB"/>
<path d="M254.174 543.919C250.648 547.02 252.468 553.079 257.396 553.663C263.655 554.407 265.523 549.053 266.04 544.064C262.425 542.602 257.241 541.23 254.177 543.922L254.174 543.919Z" fill="#F7DFCB"/>
<path d="M195.761 253.691C191.407 264.621 197.081 279.891 209.278 280.003C218.009 280.077 224.809 274.22 223.366 264.702C221.985 255.62 209.167 257.555 208.285 266.513C208.001 269.377 210.403 275.97 216.442 275.311C211.967 277.504 205.357 276.933 201.979 272.876C199.209 269.546 198.568 264.638 198.291 260.534C197.747 252.853 201.432 247.429 208.082 243.994C216.371 239.684 226.092 238.823 234.732 242.285C249.327 248.125 259.45 265.135 261.612 280.108C263.638 294 256.717 306.946 248.942 318.032C245.149 319.825 241.626 322.115 238.603 324.801C220.634 340.767 209.944 366.961 211.545 390.82C212.858 410.211 223.478 429.559 238.596 441.667C249.692 450.574 263.54 454.574 277.547 455.34C265.658 457.019 253.944 459.083 243.197 464.889C229.949 472.036 218.776 483.05 210.376 495.453C196.173 516.395 196.213 542.44 210.241 563.445C212.602 566.992 215.591 570.164 218.989 572.899C226.072 589.163 218.8 606.646 209.207 618.643C198.476 632.072 183.608 643.84 165.527 642.371C147.68 640.912 126.347 621.122 139.655 603.471C144.721 596.773 153.547 593.381 161.657 595.719C167.287 597.33 171.364 602.315 170.871 607.5C167.284 604.497 160.876 606.024 160.941 611.651C160.974 614.195 162.873 615.937 165.386 616.491C169.689 617.444 173.465 612.999 174.056 609.446C177.015 599.495 164.825 592.699 156.252 592.537C147.916 592.382 139.574 597.978 135.649 605.19C124.648 625.344 149.619 644.911 168.459 644.894C189.85 644.874 208.157 627.418 218.249 609.814C224.336 599.205 227.926 586.603 222.353 575.372C235.485 584.231 253.346 587.038 267.543 580.07C276.527 575.649 280.455 566.229 280.043 556.626C279.783 550.411 272.71 542.774 263.729 540.771C256.609 539.184 249.726 544.203 252.039 551.124C253.164 554.488 259.068 557.781 262.301 556.082C266.881 553.643 269.853 549.219 268.319 545.135C279.067 550.668 280.31 563.449 272.971 572.852C266.219 581.479 253.13 582.11 243.227 580.8C231.594 579.229 221.299 573.933 214.044 564.695C197.737 543.845 198.824 516.729 213.271 495.409C221.498 483.26 232.871 473.13 245.753 466.179C259.352 458.856 283.728 456.313 291.433 455.046C326.31 451.983 362.711 431.575 382.609 402.99C383.481 401.747 381.626 400.268 380.755 401.514C367.065 421.165 346.252 435.409 324.284 444.37C302.157 453.378 276.119 457.063 253.485 447.727C228.608 437.479 213.156 409.58 213.73 383.298C214.01 369.514 218.915 356.172 225.981 344.492C231.341 335.636 237.998 327.364 246.605 321.852C250.803 318.984 255.045 317.576 257.302 316.917C269.296 313.317 284.127 316.316 293.662 324.399C304.835 333.849 302.893 350.856 292.821 360.263C288.102 364.66 281.432 365.917 275.632 363.151C271.265 361.063 266.762 358.077 265.935 353.028C265.222 348.637 268.205 346.83 271.349 347.455C272.555 348.144 274.551 346.252 272.005 344.915C270.559 344.067 267.043 342.506 263.341 346.769C257.778 353.102 263.979 361.864 272.001 365.616C293.334 375.557 310.891 346.374 300.62 329.249C290.781 312.797 269.829 310.135 252.938 316.38C258.106 308.524 262.358 300.151 263.875 290.717C265.803 278.672 261.24 266.671 254.765 256.721C248.405 246.98 238.343 239.174 226.616 237.769C216.537 236.56 200.05 242.943 195.764 253.705L195.761 253.691Z" fill="#F7DFCB"/>
<path d="M377.691 686.882C377.239 690.408 372.669 691.837 370.213 688.993C367.092 685.379 369.663 681.937 372.571 679.498C375.02 681.146 378.08 683.821 377.691 686.882Z" fill="#F7DFCB"/>
<path d="M584.579 600.498C579.567 607.865 567.576 610.776 562.341 603.17C558.592 597.722 559.385 590.973 565.968 587.842C572.254 584.86 576.473 593.722 571.227 598.073C569.552 599.468 564.394 600.751 562.25 596.685C562.77 600.42 565.931 604.328 569.907 604.73C573.173 605.058 576.52 603.379 579.216 601.812C584.265 598.9 586.109 594.287 585.444 588.656C584.637 581.627 581.056 575.162 575.22 571.207C565.367 564.526 550.401 565.384 540.089 570.376C530.513 574.993 525.322 584.826 521.664 594.405C522.147 597.546 522.204 600.728 521.795 603.761C519.397 621.804 507.491 639.615 491.839 648.728C479.119 656.125 462.47 657.661 448.463 653.311C438.172 650.123 429.788 643.131 423.371 634.666C427.36 642.84 431.028 651.065 431.943 660.269C433.075 671.611 430.899 683.291 426.674 693.823C419.554 711.613 403.196 722.627 384.065 722.729C380.839 722.752 377.583 722.222 374.425 721.249C361.215 723.698 353.328 735.672 349.866 746.781C345.989 759.207 344.904 773.525 353.494 784.249C361.978 794.831 383.44 799.827 388.875 783.992C390.928 777.977 389.317 770.999 384.409 766.898C381.012 764.047 376.154 763.605 373.111 766.111C376.516 767.091 378.276 771.759 374.719 774.103C373.108 775.16 371.21 774.707 369.794 773.363C367.373 771.066 368.561 766.814 370.541 764.936C375.53 758.863 384.963 763.629 388.699 768.942C392.33 774.106 392.354 781.716 389.493 787.235C381.511 802.684 358.645 795.311 350.67 783.476C341.615 770.046 344.806 751.158 351.575 737.361C355.652 729.041 362.039 721.448 371.449 720.182C360.323 715.696 350.988 705.678 349.346 693.816C348.312 686.304 352.558 679.846 358.76 676.029C362.769 673.56 370.561 674.759 375.624 679.545C379.64 683.338 379.407 689.786 374.084 691.269C371.497 691.992 366.927 689.682 366.626 686.932C366.214 683.021 367.731 679.282 370.943 678.512C362.914 674.114 354.369 678.751 351.579 687.344C349.025 695.238 354.179 703.719 359.199 709.377C365.116 716.01 372.804 720.226 381.677 720.861C401.673 722.256 418.226 710.076 425.482 691.975C429.616 681.663 431.149 670.23 430.055 659.198C428.883 647.562 420.145 631.187 417.673 625.817C404.807 602.629 402.183 571.139 411.684 546.533C412.096 545.459 413.809 545.993 413.396 547.07C406.871 563.992 406.756 583.09 410.444 600.674C414.17 618.379 422.898 636.281 438.351 646.525C455.33 657.793 479.386 655.658 495.636 644.158C504.164 638.135 510.46 629.401 514.794 620.017C518.077 612.897 520.448 605.213 520.259 597.475C520.279 593.625 519.364 590.365 518.82 588.669C515.996 579.617 507.825 571.582 498.709 569.025C488.043 566.019 478.193 574.45 476.562 584.755C475.805 589.578 477.842 594.3 482.037 596.762C485.202 598.62 488.982 600.181 492.501 598.556C495.561 597.141 495.426 594.503 493.704 592.797C492.758 592.331 493.102 590.274 495.017 591.307C496.162 591.855 498.635 593.402 497.527 597.532C495.909 603.707 487.783 603.531 482.027 600.089C466.746 590.916 477.612 567.529 492.714 566.711C507.211 565.911 517.759 577.929 521.002 591.176C523.741 584.603 527.193 578.385 532.469 573.433C539.211 567.117 548.675 564.891 557.663 564.735C566.475 564.6 575.639 567.603 581.492 574.369C586.525 580.178 589.507 593.233 584.573 600.481L584.579 600.498Z" fill="#F7DFCB"/>
<path d="M57.7771 288.525C71.1864 286.994 84.7882 286.741 97.6874 291.135C115.464 297.209 126.833 312.881 133.541 329.685C140.003 345.931 141.962 363.623 145.157 380.691C147.984 395.738 152.419 410.032 157.833 424.239C147.613 414.545 143.468 400.538 139.182 387.392C134.588 373.331 127.461 360.438 119.217 348.225C110.729 335.666 100.808 324.155 90.2701 313.3C80.2621 302.988 71.943 292.172 57.7771 288.525ZM59.8645 301.924C79.3941 320.369 93.2289 342.945 108.601 364.778C116.883 376.563 125.952 387.672 134.49 399.241C140.006 406.698 145.444 414.183 151.693 420.986C145.839 413.498 142.276 404.385 139.273 395.258C134.531 380.897 128.971 367.558 120.716 354.791C112.519 342.101 102.443 330.806 92.7257 319.265C66.8292 288.498 51.2717 289.376 50.2111 289.534C53.9704 293.26 57.8109 296.925 59.8611 301.924L59.8645 301.924ZM40.068 339.081C51.7446 364.154 64.3432 389.351 86.3283 407.029C103.811 421.114 124.688 429.839 146.92 430.974C118.49 424.688 90.7328 412.268 73.9864 387.368C64.985 373.979 59.9151 358.81 54.1596 343.854C50.6569 334.815 47.053 325.611 41.9359 317.349C37.4166 310.081 32.2353 303.312 26.9628 296.567C26.2062 296.567 25.4394 296.655 24.6626 296.793C28.5739 302.305 40.7402 322.659 40.0646 339.085L40.068 339.081ZM31.1477 375.084C38.8656 389.631 50.1503 401.45 64.1236 410.13C78.5158 419.084 94.6307 425.377 111.404 427.954C115.711 428.596 120.004 429.14 124.327 429.616C109.969 425.6 96.4714 418.541 84.8523 408.887C62.1241 390.043 49.181 364.326 36.9775 338.021C36.8323 337.75 36.8525 337.494 36.8964 337.288C29.5602 332.38 20.5655 332.333 12.0876 330.188C18.4308 345.127 23.5277 360.712 31.1443 375.087L31.1477 375.084ZM54.3589 337.889C60.1752 352.501 64.6979 368.018 73.0204 381.501C91.7664 411.843 124.621 425.056 158.303 430.764C148.785 422.543 141.34 412.484 133.876 402.416C125.827 391.482 117.183 381.015 109.334 369.909C93.1411 347.056 78.7759 322.966 58.2195 303.643C52.1364 301.191 45.5601 300.89 39.2236 299.326C36.2175 298.566 33.2046 297.438 30.1951 296.888C39.9903 309.696 48.3061 322.662 54.3623 337.889L54.3589 337.889Z" fill="#F7DFCB"/>
<path d="M232.114 588.95C242.261 590.368 253.093 584.842 263 588.311C270.819 591.057 279.158 597.218 282.712 604.933C290.034 620.929 279.814 639.912 289.781 654.983C290.494 656.067 289.126 657.523 288.096 656.607C275.696 645.573 256.896 648.238 244.875 636.47C239.508 631.221 237.644 624.584 237.613 617.281C237.596 611.445 239.268 594.006 232.05 591.321C231.966 591.317 231.878 591.307 231.763 591.304C230.27 591.084 230.598 588.737 232.121 588.953L232.114 588.95Z" fill="#F7DFCB"/>
<path d="M282.151 280.476C291.399 274.143 301.245 273.562 310.723 279.507C311.591 280.05 311.094 281.168 310.429 281.547C301.299 286.461 301.968 299.813 292.267 303.728C288.667 305.197 285.238 305.129 281.425 305.275C275.602 305.518 269.522 307.362 264.885 311.04C263.939 312.226 262.085 310.75 263.03 309.561C264.804 307.335 268.978 289.494 282.151 280.476Z" fill="#F7DFCB"/>
<path d="M321.328 186.232C329.81 192.616 344.806 199.219 356.848 197.855C357.054 197.868 357.233 197.882 357.381 197.892C362.563 198.267 367.693 199.256 372.665 200.76C371.409 201.594 362.873 207.444 365.43 208.849C369.176 210.967 373.625 211.399 377.826 211.788C382.731 212.244 394.637 212.277 394.181 219.701C393.759 226.632 384.45 227.207 379.498 226.007C372.686 224.356 365.17 220.097 360.769 214.588C357.229 210.146 352.913 200.351 346.019 200.837C342.972 201.05 342.283 204.154 339.723 204.853C337.034 205.59 333.873 202.641 331.998 201.145C325.831 196.247 318.599 195.575 311.047 197.439C304.636 199.02 298.178 204.262 305.734 209.318C297.864 210.835 291.041 211.362 283.661 215.01C276.993 218.31 271.032 222.9 264.226 225.95C265.209 225.504 271.39 222.751 264.172 225.974C260.439 227.619 271.866 229.307 272.67 229.534C276.571 230.648 280.239 232.482 283.57 234.796C287.363 237.421 290.355 241.491 294.395 243.693C297.891 245.601 302.701 245.26 306.544 245.922C305.072 247.543 297.867 252.698 298.056 254.805C298.198 256.352 304.308 259.048 305.636 259.916C312.449 264.361 318.798 265.131 326.587 262.8C324.169 265.239 321.808 267.765 319.021 269.792C318.944 269.846 311.942 274.71 316.052 274.2C321.416 273.501 326.361 276.858 331.174 278.638C343.222 283.093 357.338 279.324 367.957 272.828C363.022 278.706 362.022 285.643 358.077 291.932C356.385 294.628 352.73 298.448 358.871 296.384C362.563 295.141 366.288 293.919 370.162 293.382C363.833 302.315 357.317 310.179 354.777 321.099C353.544 326.395 352.967 331.812 352.389 337.213C351.872 341.32 357.669 333.4 357.949 333.103C363.654 327.138 372.246 325.55 379.62 322.602C388.962 318.866 396.609 312.107 403.186 304.629C402.554 307.392 397.944 323.976 400.305 325.628C401.179 326.239 407.371 315.181 408.88 313.58C416.058 305.977 426.498 301.012 431.085 291.173C437.08 278.3 426.434 243.869 449.595 244.689C447.088 249.084 443.012 252.411 440.921 257.072C438.962 261.439 438.786 266.634 438.985 271.342C439.266 277.895 441.073 275.821 446.575 275.639C451.449 275.477 455.715 275.149 459.495 271.71C455.999 280.168 451.932 288.947 452.79 298.343C453.07 301.403 454.232 310.277 457.579 304.447C459.603 300.924 462.95 298.516 466.527 296.739C474.941 292.551 484.229 290.966 490.556 283.431C497.395 275.284 499.408 264.547 502.762 254.748C504.522 257.744 506.501 260.672 509.183 262.925C512.976 266.107 512.547 262.486 514.631 259.831C518.826 254.495 524.41 251.61 521.66 243.909C519.563 238.029 517.283 233.036 518.002 226.602C518.6 221.299 520.684 216.297 522.964 211.521C523.744 215.935 523.687 220.671 525.565 224.822C526.115 226.038 532.408 234.06 533.222 230.219C535.502 219.891 543.767 211.22 549.85 202.904C556.359 194.001 563.81 184.699 573.433 179.024C580.273 174.991 587.967 172.988 595.776 171.958C574.348 167.172 564.921 169.131 557.244 170.519C549.779 171.84 543.906 173.982 537.005 177.43C528.953 181.547 521.417 186.827 514.435 192.39C502.968 201.513 494.139 211.588 486.685 224.214C483.192 230.432 479.078 236.35 476.447 243.017C473.799 249.546 473.232 249.357 475.613 242.71C477.305 237.782 479.869 233.222 482.314 228.639C488.83 216.415 495.605 205.127 505.735 195.494C510.663 190.809 515.915 186.253 521.458 182.074C520.377 182.537 519.303 183.007 518.232 183.479C509.71 187.431 501.344 191.707 492.947 196C485.665 199.723 478.085 202.881 470.638 206.292C455.827 214.827 441.954 225.177 429.805 236.998C410.867 255.417 398.785 278.56 382.241 298.853C397.592 278.858 408.634 256.18 426.009 237.654C430.984 232.347 436.287 227.382 441.813 222.68C431.923 228.666 421.763 233.786 410.924 238.36C397.788 243.899 383.031 251.566 368.474 251.573C356.922 251.576 345.371 245.98 334.761 241.825C324.635 237.86 311.635 227.683 300.39 231.334C310.979 227.646 322.48 236.492 331.961 239.977C342.067 243.689 352.325 248.006 362.995 249.715C377.624 252.053 392.658 243.595 405.641 238.032C419.344 232.155 432.818 225.666 444.974 216.976C452.263 211.767 459.961 207.66 467.8 203.762C473.894 199.962 480.152 196.419 486.55 193.163C481.699 194.548 476.829 195.879 471.938 197.135C457.37 200.888 442.228 203.509 427.157 201.915C413.363 200.469 397.055 190.687 383.264 195.821C395.738 190.6 410.373 198.24 422.891 199.736C437.672 201.506 452.503 198.939 466.723 194.947C481.584 190.775 496.811 186.141 510.906 179.805C516.678 177.211 522.42 174.806 528.429 172.948C534.205 170.54 540.055 168.364 545.979 166.598C533.273 165.048 520.931 162.21 508.731 157.823C492.751 152.081 477.66 144.123 463.588 134.639C450.169 125.732 437.435 116.132 421.81 111.329C437.648 115.562 450.77 124.718 464.551 133.142C478.768 141.982 493.937 149.294 509.899 154.367C525.18 159.231 540.565 161.687 556.572 162.17C559.747 162.268 593.06 165.585 599.917 164.916C597.566 163.984 595.209 163.062 592.858 162.116C582.046 157.776 571.724 152.817 562.094 146.224C552.495 139.648 543.585 132.075 535.542 123.665C530.821 118.723 530.712 125.742 531.027 129.636C531.361 133.754 532.999 137.611 535.265 141.029C515.533 136.273 505.215 114.433 487.884 105.094C479.842 100.757 470.979 97.6803 461.832 96.9575C457.292 96.5961 452.699 96.8326 448.24 97.7749C442.725 98.9402 443.376 99.9501 446.68 103.895C438.631 100.089 428.005 98.7612 419.263 100.518C410.978 102.183 403.713 106.77 395.792 109.509C389.628 111.64 397.778 114.413 400.44 115.977C404.75 118.507 408.989 121.145 413.261 123.725C422.469 129.278 431.504 132.605 441.887 135.28C437.932 136.844 434.311 139.097 430.639 141.212C425.326 144.265 432.315 145.765 435.301 147.102C442.775 150.463 450.459 153.722 458.752 154.178C456.88 155.857 455.141 157.711 453.01 159.076C451.743 159.887 447.524 160.238 446.916 161.288C445.93 162.997 455.168 167.179 456.722 168.142C466.405 174.144 473.1 169.949 483.321 169.611C475.495 184.78 454.904 180.105 441.833 176.238C434.395 174.039 427.062 171.496 419.834 168.695C417.318 167.719 394.316 161.305 398.177 170.151C391.685 167.807 384.48 168.06 378.208 170.972C374.935 172.489 371.99 174.667 369.49 177.271C367.913 178.926 376.523 182.395 377.637 183.182C368.062 184.375 361.053 191.846 352.16 194.872C351.656 195.041 351.254 195.2 350.91 195.352C344.887 194.724 338.689 192.586 333.863 190.633C323.132 186.293 314.154 178.166 308.122 168.388C295.337 147.646 305.17 124.398 324.456 112.454C336.332 105.098 356.334 105.104 366.005 116.338C371.453 122.668 369.477 132.521 365.292 138.969C362.799 142.813 358.199 145.201 353.973 143.954C357.824 141.88 357.989 136.415 353.109 133.625C346.212 129.687 340.152 140.374 348.819 146.143C356.068 151.375 366.018 144.093 369.274 136.52C372.794 128.346 372.655 119.743 366.271 113.153C360.084 106.756 349.856 105.037 341.382 105.158C330.59 105.31 320.626 110.657 313.053 118.142C303.775 127.306 299.147 138.891 300.198 151.942C301.326 165.946 310.452 178.048 321.352 186.242L321.328 186.232Z" fill="#F7DFCB"/>
<path d="M407.871 57.5001C422.182 71.0209 443.92 74.1418 462.372 67.9944C455.36 78.5395 469.665 88.4157 480.152 84.2072C486.587 81.6199 488.465 72.1997 482.787 69.2104C478.494 66.9474 473.272 71.1256 473.985 74.6214L473.991 74.6619C474.343 75.9589 475.849 76.2123 476.342 74.3952C477.018 70.7 482.044 70.1562 482.946 73.9527C484.405 77.6917 482.267 80.3939 479.291 81.9949C476.393 83.5587 472.698 83.3999 469.688 82.3765C464.439 80.5897 461.42 75.0842 463.865 70.0887C464.487 68.822 473.66 57.794 487.867 57.8919C503.164 57.9932 516.864 70.3791 526.521 81.2754C529.324 84.4436 532.175 87.9091 534.796 91.5029C539.984 104.318 548.881 116.055 557.913 125.999C573.041 142.671 606.483 174.941 656.29 174.377C633.363 170.415 611.388 158.421 592.699 145.579C578.749 135.997 565.333 124.533 556.254 110.08C546.567 94.6475 545.321 76.8608 542.855 59.2734C545.74 75.6111 547.27 92.908 556.572 107.165C565.614 121.233 578.783 132.058 592.611 141.185C613.965 155.135 640.263 168.567 666.656 169.219C650.974 167.098 641.844 158.397 631.968 149.301C619.535 137.817 612.262 120.314 597.276 111.921C585.187 105.139 570.018 104.808 559.443 95.1373C554.177 90.3343 550.053 81.0153 556.997 75.7226C562.989 71.129 570.41 80.3837 571.927 85.2543C572.278 86.4466 573.612 85.9568 574.19 85.001C588.264 61.7357 565.553 43.6281 555.069 47.1408C559.77 41.4292 564.83 36.0318 571.599 32.7555C581.354 28.0099 592.615 31.1916 597.458 40.9361C598.154 42.3108 601.268 51.8459 598.823 51.5453C593.152 50.8428 592.746 56.5848 595.975 60.0368C602.714 67.2278 612.276 55.8552 611.195 46.2762C609.952 35.2887 600.356 22.6529 590.456 19.5185C578.003 15.597 564.844 21.4504 554.187 26.9898C542.855 32.877 534.86 44.7731 531.658 57.6521C529.317 67.0251 529.969 76.1684 532.503 84.8962C531.614 83.7478 530.723 82.6028 529.8 81.4747C522.728 72.8414 514.061 65.4951 504.167 60.3036C491.184 53.4976 476.241 54.0786 465.689 64.1609C451.162 70.3082 433.473 70.4669 419.746 63.2016C406.317 56.095 392.1 39.7708 397.917 23.6729C402.318 11.4931 418.976 -1.53111 432.136 3.6975C439.671 6.68673 443.018 14.6208 443.471 21.9773C443.741 26.4426 442.1 29.8202 437.05 30.5059C435.165 30.766 431.035 28.5502 429.555 31.3537C428.238 33.7214 431.082 35.7784 433.75 35.8358C441.569 36.0115 446.055 29.4385 445.971 22.6495C445.856 13.5838 440.624 4.52164 431.96 1.0832C423.388 -2.32823 413.903 2.5018 407.34 7.83174C400.544 13.3576 393.951 21.9571 394.117 31.1206C394.299 41.6353 400.474 50.5118 407.874 57.5035L407.871 57.5001Z" fill="#F7DFCB"/>
<path d="M318.332 510.256C318.332 510.256 318.318 510.256 318.314 510.264C318.314 510.264 318.314 510.264 318.31 510.267C318.321 510.26 318.321 510.267 318.321 510.271C318.321 510.267 318.329 510.26 318.336 510.256L318.332 510.256Z" fill="#F7DFCB"/>
<path d="M325.696 427.697C300.171 439.465 268.769 441.536 245.365 423.969C266.969 438.631 293.902 436.662 317.282 427.059C308.929 427.532 299.789 425.688 294.574 418.595C288.208 409.928 292.69 401.821 299.465 395.079C294.196 400.987 289.602 408.239 294.605 415.835C299.702 423.573 309.244 424.475 317.846 423.756C337.558 422.104 375.321 388.821 375.101 388.848C367.576 389.733 360.192 390.972 353.052 393.617C345.148 396.569 339.99 401.977 334.812 408.398C329.266 415.318 319.67 420.706 310.581 417.494C303.535 415.001 306.099 404.976 310.145 401.227C313.861 397.822 319.799 397.221 324.602 397.471C325.618 397.521 326.314 396.501 325.723 395.603C317.323 382.785 301.941 378.012 288.444 386.081C274.998 394.13 274.957 409.894 283.141 421.418C270.113 421.101 257.994 417.325 247.821 408.823C237.668 400.338 231.689 387.872 227.954 375.438C227.623 374.293 225.775 374.52 225.691 375.692C224.309 392.6 224.812 410.191 234.871 424.58C245.156 439.293 262.193 446.595 279.635 448.071C317.249 451.26 348.654 426.559 370.99 398.683C370.764 398.822 349.765 416.602 325.696 427.697Z" fill="#F7DFCB"/>
<path d="M656.25 442.698C669.257 437.388 684.261 427.647 682.545 411.569C682.292 409.326 664.89 418.24 662.401 418.73C655.922 420.01 646.958 420.412 641 417.173C644.09 412.636 647.593 408.327 649.91 403.314C652.66 397.369 646.6 400.457 643.32 401.22C634.464 403.291 625.696 404.736 619.427 411.941C617.076 414.639 613.033 420.594 608.797 420.091C605.855 419.736 604.004 415.163 603.944 412.66C603.738 404.354 615.955 400.288 620.65 395.093C622.683 392.84 634.785 371.027 631.38 370.612C629.982 370.443 626.581 374.614 624.598 375.121C622.045 375.776 619.356 375.371 616.819 374.857C610.655 373.614 605.065 372.078 599.779 376.455C595.989 379.593 591.825 385.399 586.174 383.291C590.707 380.208 592.291 374.651 591.622 369.409C590.703 362.276 588.292 365.697 584.262 368.666C576.328 374.51 565.864 377.806 556.741 372.581C547.729 367.423 541.95 357.175 538.441 347.742C536.428 342.32 534.678 336.437 534.604 330.644C534.597 330.232 534.54 329.816 534.523 329.401C534.226 330.793 531.611 337.747 530.841 347.975C530.128 357.094 530.189 366.282 532.206 375.229C535.438 389.543 545.196 401.095 555.228 411.37C574.632 431.173 602.62 446.852 630.465 435.297C605.146 447.099 578.456 435.659 558.44 418.966C559.109 419.865 559.777 420.76 560.426 421.672C566.334 429.981 571.508 439.178 573.163 449.368C574.916 459.974 578.301 470.442 577.878 481.308C577.709 471.185 574.264 461.558 571.907 451.821C569.161 440.448 563.736 431.105 556.342 422.091C545.183 408.533 527.241 395.312 523.947 377.522C520.992 396.799 520.803 416.605 514.324 435.287C509.913 448.213 501.574 459.251 497.129 472.117C492.633 484.334 493.295 499.348 494.873 512.068C494.967 511.923 495.055 511.781 495.129 511.676C495.494 511.054 496.031 510.143 496.281 509.504C495.71 511.196 495.791 510.703 495.129 511.676C495.031 511.838 494.943 511.997 494.879 512.105C494.879 512.091 494.876 512.078 494.876 512.064C494.839 512.125 494.808 512.166 494.768 512.233C492.785 500.466 491.762 487.286 494.312 475.538C497.176 462.332 505.171 451.074 509.528 438.405C515.243 421.79 515.723 404.469 516.989 387.253C511.274 400.474 504.637 413.241 496.889 425.424C495.099 428.964 493.234 432.463 491.154 435.848C481.71 451.216 468.159 463.511 457.114 477.663C446.386 491.407 437.689 507.575 440.307 525.555C441.492 533.681 443.164 541.649 443.448 549.891C444.015 558.977 440.739 567.495 437.989 575.98C440.08 568.806 442.566 561.571 442.722 554.022C442.904 545.29 440.786 536.539 439.053 528.041C435.392 510.092 441.833 493.774 451.834 479.129C449.065 481.888 446.278 484.634 443.468 487.374C417.599 512.574 395.884 541.143 371.068 567.316C362.327 576.537 353.987 586.123 345.374 595.459C339.376 601.961 334.326 608.716 329.972 616.437C328.226 619.531 326.578 622.672 324.933 625.817C323.953 627.908 322.953 629.992 321.873 632.005C321.031 633.981 319.883 636.551 318.944 636.902C318.937 636.913 318.934 636.926 318.924 636.936C318.924 636.933 318.941 636.913 318.941 636.906C318.934 636.906 318.92 636.926 318.907 636.929C318.914 636.929 318.937 636.896 318.958 636.882C318.971 636.855 318.978 636.845 319.008 636.804C320.035 635.278 320.977 633.67 321.873 632.008C322.247 631.12 322.568 630.343 322.764 629.968C323.487 628.587 324.21 627.205 324.929 625.82C326.294 622.916 327.621 620.001 329.064 617.261C333.309 609.168 338.281 602.048 344.358 595.215C352.92 585.592 361.195 575.723 369.882 566.218C394.262 539.548 415.488 510.538 440.935 484.827C453.723 471.914 466.102 458.931 477.19 444.768C467.736 453.898 457.519 462.359 447.011 469.989C429.66 482.588 410.232 493.133 389.078 497.524C370.335 501.411 351.363 501.34 332.934 505.694C325.713 507.923 318.046 510.376 318.154 510.511C318.147 510.504 318.198 510.433 318.262 510.342C318.231 510.382 318.198 510.416 318.13 510.49C318.13 510.49 318.208 510.389 318.302 510.267C318.299 510.271 318.306 510.257 318.299 510.267C318.302 510.267 318.306 510.267 318.309 510.264C318.478 510.055 318.701 509.771 318.735 509.737C318.701 509.771 318.485 510.045 318.326 510.257C323.143 508.308 328.02 506.849 332.931 505.691C338.636 503.931 344.067 502.316 345.172 502.1C357.443 499.702 369.91 498.709 382.265 496.885C404.544 493.089 424.901 481.966 442.799 468.53C457.779 457.282 471.749 444.261 484.145 430.2C489.384 424.259 493.565 417.713 497.203 410.846C498.649 407.459 500.101 404.071 501.604 400.71C490.36 412.542 476.62 420.989 460.934 418.129C446.319 415.457 436.321 402.615 425.181 393.968C413.066 384.555 397.687 381.032 383.383 376.327C396.492 380.049 410.654 382.677 422.435 389.878C434.399 397.19 443.853 409.586 457.647 413.69C470.503 417.521 483.595 409.961 492.792 401.483C501.233 393.705 507.779 384.139 513.392 374.111C514.375 371.855 516.972 366.906 520.81 359.226C517.27 362.161 512.896 363.704 507.66 362.928C498.139 361.509 492.572 351.609 483.946 348.096C482.358 347.448 472.567 343.911 472.107 346.749C471.33 350.657 472.384 354.841 475.093 357.797C468.432 357.584 462.738 353.109 456.09 352.457C450.298 351.896 444.262 352.487 439.053 355.24C435.811 356.946 447.71 368.626 449.426 370.088C454.901 374.753 461.393 378.032 468.267 380.1C463.18 382.339 457.678 380.802 464.974 385.953C469.236 388.959 471.725 396.211 464.203 396.015C453.446 395.738 451.075 378.573 444.779 372.199C436.351 363.671 423.425 360.023 412.181 357.084C406.334 355.558 400.44 354.203 394.644 352.494C390.233 351.227 398.194 362.211 399.197 363.1C383.322 359.3 366.883 363.188 352.427 370.085C349.026 371.706 359.067 374.841 360.003 375.269C364.367 377.269 368.552 379.62 372.781 381.883C381.09 386.331 389.878 390.52 399.511 390.513C395.1 393.654 389.132 393.252 385.305 397.045C383.451 398.954 394.276 408.522 395.917 409.715C406.158 417.149 418.669 411.312 430.082 413.363C423.509 418.223 414.917 421.175 409.131 426.9C406.446 429.558 405.037 431.112 408.925 432.99C412.134 434.541 415.609 435.405 419.162 435.669C411.225 437.938 402.926 438.945 400.038 447.872C399.673 449 396.914 457.448 399.677 457.069C404.497 456.482 409.276 455.604 414.066 454.813C420.334 453.776 428.758 451.419 434.781 454.736C441.685 458.535 433.605 465.456 428.944 466.358C413.015 469.438 398.083 456.455 382.251 460.781C378.023 461.937 368.15 467.81 372.868 473.127C376.516 477.244 382.802 478.801 387.676 480.916C379.279 483.267 368.906 479.946 360.483 478.795C350.562 477.437 340.693 476.829 330.712 476.157C320.619 475.478 311.409 476.477 301.955 480.217C299.81 481.064 289.197 484.276 288.846 486.658C288.403 489.671 297.344 493.315 299.485 494.001C288.853 495.477 278.048 496.601 268.685 502.303C264.267 504.992 260.257 508.285 256.329 511.632C254.728 512.997 247.422 517.607 247.547 519.769C247.811 524.521 272.687 523.754 276.105 523.633C286.076 523.268 295.486 520.323 305.305 518.921C301.965 521.772 298.864 525.014 296.854 528.963C294.358 533.864 295.118 534.674 300.299 534.813C308.649 535.043 316.955 533.344 324.879 530.82C336.795 527.027 347.526 520.62 359.26 516.459C363.202 515.06 369.254 512.703 373.368 514.723C379.343 517.658 368.072 525.035 365.353 526.061C357.145 529.145 351.197 531.337 344.77 537.681C342.206 540.21 339.007 542.983 344.584 542.446C348.438 542.078 352.207 543.51 355.781 544.75C347.114 550.083 336.092 547.543 328.861 555.835C325.618 559.554 323.443 564.104 321.616 568.65C319.528 573.845 326.76 572.065 330.428 572.872C321.724 576.932 315.87 580.388 310.899 588.93C310.324 589.919 304.272 598.542 306.825 598.569C311.442 598.661 316.036 598.086 320.511 596.955C302.971 612.786 298.83 634.649 301.9 657.131C301.34 662.816 303.495 662.106 305.383 659.289C309.183 653.615 318.725 649.005 324.217 644.951C329.847 640.79 336.049 636.642 339.659 630.478C342.527 625.584 344.185 620.011 347.641 615.454C349.33 620.355 352.302 624.685 354.038 629.563C355.96 634.957 356.956 630.708 359.05 627.83C364.597 620.224 370.382 616.552 371.156 606.487C372.949 610.087 375.942 612.968 379.08 615.4C382.535 618.079 384.805 620.896 386.345 615.728C388.804 607.48 397.545 602.916 401.028 595.023C404.598 586.933 405.554 577.723 408.324 569.336C409.658 565.289 411.127 560.537 414.079 557.332C414.903 556.43 416.065 555.572 417.366 555.869C420.439 556.578 418.463 560.581 417.849 562.749C415.403 571.369 415.356 579.209 414.488 588.028C414.103 591.932 413.265 595.729 417.612 591.436C420.432 588.653 423.705 586.346 426.347 583.38C425.887 591.51 429.846 599.032 434.308 605.544C436.774 609.148 439.489 612.57 442.137 616.045C445.228 620.102 445.417 615.752 446.349 612.81C451.385 596.911 464.838 582.593 460.532 564.57C462.126 565.654 479.345 572.653 478.7 568.441C477.559 561.3 477.329 554.038 475.931 546.942C473.495 534.563 462.835 523.856 463.383 510.97C463.592 506.072 464.747 500.05 468.111 496.287C471.219 492.812 476.488 493.251 475.812 498.608C475.201 503.475 473.505 507.812 473.495 512.841C473.495 514.436 473.144 520.762 474.975 521.508C476.711 522.221 481.078 518.624 482.392 517.661C480.349 525.67 484.523 532.894 488.951 539.241C491.319 542.629 493.829 545.929 495.94 549.489C497.602 552.289 499.304 555.349 500.088 550.299C501.432 541.673 508.099 535.228 511.984 527.733C516.118 519.752 515.78 511.193 513.19 502.793C514.669 504.015 527.795 513.939 527.838 510.585C527.862 506.211 529.679 502.144 531.24 498.145C535.181 488.039 532.709 478.933 528.18 469.415C531.797 471.776 536.458 473.083 540.728 471.941C546.098 470.502 543.808 468.716 542.464 464.953C540.535 459.569 539.657 450.679 545.122 446.93C547.324 445.42 552.6 444.356 554.356 447.109C555.643 449.125 554.35 452.155 553.644 454.141C552.309 457.9 551.597 461.683 551.34 465.676C550.942 471.894 551.874 470.111 557.082 469.864C553.502 476.255 551.647 483.496 551.965 490.829C552.212 496.504 553.026 495.96 557.835 494.311C561 493.227 564.327 492.322 567.066 490.316C565.736 498.878 566.935 507.738 570.684 515.567C572.565 519.502 575.058 523.136 578.01 526.345C581.756 530.415 581.948 529.128 584.853 525.183C590.261 517.833 597.884 511.521 600.704 502.566C603.451 493.842 600.397 484.955 598.482 476.423C602.853 479.294 607.977 480.581 612.938 482.007C618.336 483.554 616.566 479.308 616.33 475.295C615.809 466.247 614.958 457.867 607.497 451.837C620.092 456.975 634.17 462.278 648.012 460.366C655.075 459.39 661.526 456.188 666.474 451.04C669.176 448.234 670.325 446.379 665.802 446.771C662.195 447.085 658.945 444.802 656.25 442.701L656.25 442.698Z" fill="#F7DFCB"/>
<path d="M12.9357 412.39C17.7489 415.886 22.768 419.446 28.8343 420.202C27.1015 421.114 15.9891 427.096 17.5868 429.741C18.3501 431.007 26.3753 431.504 28.2398 432.267C36.4644 435.628 43.2636 439.384 52.4947 438.303C50.0054 440.073 36.0185 452.743 39.3084 456.279C40.2406 457.282 47.0804 454.661 48.6341 454.496C52.1502 454.124 55.6901 454.222 59.2197 454.242C48.9651 472.012 49.4785 496.976 72.1662 504.181C73.551 504.62 78.4014 506.579 79.6545 505.37C81.0866 503.982 77.8204 501.874 77.1179 501.033C74.3786 497.753 72.5445 493.74 71.6224 489.583C69.8086 481.409 71.5616 471.904 78.5297 466.604C80.0936 474.083 86.3794 478.615 93.4927 480.297C99.5252 481.723 93.2799 475.589 94.5431 471.684C98.0593 460.852 109.624 452.891 120.348 451C113.951 456.174 110.996 464.642 109.087 472.357C108.091 476.383 109.8 475.947 112.239 473.782C114.816 471.489 117.94 470.006 121.118 468.742C117.886 473.252 115.64 478.291 116.393 483.955C116.751 486.374 126.759 478.977 128.532 478.382C119.933 486.475 114.384 497.79 114.779 509.74C114.981 515.854 116.728 521.836 119.642 527.203C121.608 530.76 122.324 522.657 122.395 522.312C123.128 518.786 124.665 515.462 126.631 512.459C120.852 537.312 148.248 559.699 171.679 556.19C180.542 554.862 169.412 550.313 166.403 547.952C161.424 544.044 157.077 539.292 153.605 534.002C147.005 523.954 143.195 510.663 149.376 499.486C151.869 503.566 156.084 506.147 160.613 507.413C161.914 507.775 170.071 509.984 169.73 507.194C169.456 504.978 165.231 501.81 164.234 499.378C163.261 496.997 162.887 494.419 163.042 491.856C163.755 479.818 173.536 469.307 181.41 461.045C182.602 467.486 185.382 473.515 190.472 477.791C194.278 480.99 193.755 477.541 194.572 474.522C195.228 472.103 196.46 469.881 198.007 467.925C202.665 462.041 209.91 457.654 217.459 454.843C211.869 454.208 206.276 453.266 200.875 452.178C193.123 452.249 185.429 452.699 177.934 453.675C153.277 456.88 137.406 480.183 130.633 502.31C136.578 478.994 152.095 454.769 177.407 450.257C179.288 449.922 181.204 449.672 183.109 449.395C171.388 449.064 159.728 451.702 147.846 450.517C140.182 449.753 132.623 448.139 124.949 447.49C117.275 446.838 109.591 447.825 101.906 447.318C94.077 446.801 86.8927 446.332 79.9179 450.567C72.791 454.891 66.9241 461.744 63.641 469.388C69.2276 454.877 81.7655 445.025 97.3703 445.318C105.105 445.464 112.685 444.903 120.409 444.69C128.938 444.454 137.385 446.075 145.863 446.72C160.786 447.923 175.411 442.427 190.205 444.555C196.143 445.41 202.236 446.45 208.373 447.301C208.978 447.288 209.586 447.294 210.191 447.288C205.877 444.515 201.936 441.167 198.555 437.536C187.337 425.492 184.757 412.265 184.024 396.383C183.362 382.052 178.393 368.781 175.685 354.801C172.793 339.919 173.614 324.473 169.618 309.787C173.746 322.794 173.921 336.578 176.536 349.89C179.319 364.049 185.611 377.441 187.236 391.816C188.972 407.192 189.786 420.192 200.868 432.122C209.211 441.049 221.634 448.656 234.287 447.761C231.125 446.899 228.045 445.812 224.948 443.812C218.702 439.783 214.375 433.595 210.359 427.484C202.395 415.392 199.828 403.334 201.804 389.087C203.814 374.601 206.424 360.036 207.455 345.435C208.373 332.407 205.009 319.562 205.239 306.544C205.33 301.272 200.335 301.961 196.741 304.416C192.88 307.058 190.205 311.212 187.618 315.009C188.287 302.265 180.683 291.645 176.833 279.898C175.049 274.45 172.428 269.289 170.743 263.844C170.405 262.767 170.48 257.839 168.217 258.778C166.778 259.375 167.2 264.692 167.088 265.989C165.359 286.383 147.295 308.865 158.1 329.563C155.368 328.506 152.409 328.127 149.491 328.31C147.14 328.418 149.673 332.995 149.913 333.822C151.45 339.101 151.865 344.607 152.706 350.018C154.429 361.056 158.479 372.608 165.427 381.457C164.41 381.808 153.098 383.447 155.655 385.311C159.215 387.949 160.85 391.661 161.711 395.89C162.63 400.382 163.224 404.895 165.994 408.715C168.723 412.478 172.678 415.068 176.009 418.24C174.462 418.193 168.723 417.341 167.784 418.936C166.825 420.567 169.824 423.968 170.763 425.053C174.394 429.241 179.528 431.963 184.591 434.027C153.487 442.427 119.767 440.654 89.7131 429.052C81.0561 425.711 72.9768 421.391 65.0697 416.565C57.6558 412.042 51.0052 406.438 43.6216 401.929C30.5704 393.965 16.8403 400.967 3.38373 403.865C0.00607102 404.598 11.659 411.474 12.929 412.397L12.9357 412.39Z" fill="#F7DFCB"/>
</g>
<defs>
<filter id="filter0_d_2102_109" x="5.26905e-05" y="4.10887e-05" width="475.551" height="801.551" filterUnits="userSpaceOnUse" color-interpolation-filters="sRGB">
<feFlood flood-opacity="0" result="BackgroundImageFix"/>
<feColorMatrix in="SourceAlpha" type="matrix" values="0 0 0 0 0 0 0 0 0 0 0 0 0 0 0 0 0 0 127 0" result="hardAlpha"/>
<feOffset dy="2.77534"/>
<feGaussianBlur stdDeviation="1.38767"/>
<feComposite in2="hardAlpha" operator="out"/>
<feColorMatrix type="matrix" values="0 0 0 0 0 0 0 0 0 0 0 0 0 0 0 0 0 0 0.25 0"/>
<feBlend mode="normal" in2="BackgroundImageFix" result="effect1_dropShadow_2102_109"/>
<feBlend mode="normal" in="SourceGraphic" in2="effect1_dropShadow_2102_109" result="shape"/>
</filter>
<clipPath id="clip0_2102_109">
<rect width="470" height="796" fill="white" transform="translate(472.775 796) rotate(-180)"/>
</clipPath>
</defs>
</svg>
