<svg width="102" height="126" viewBox="0 0 102 126" fill="none" xmlns="http://www.w3.org/2000/svg">
<path d="M98.36 3.40803H25.863C24.9215 3.40803 24.159 2.64554 24.159 1.70402C24.159 0.762498 24.9215 0 25.863 0H98.36C99.3015 0 100.064 0.762498 100.064 1.70402C100.064 2.64554 99.3015 3.40803 98.36 3.40803Z" fill="#1D1A23"/>
<path d="M98.36 8.3304H25.863C24.9215 8.3304 24.159 7.5679 24.159 6.62638C24.159 5.68486 24.9215 4.92236 25.863 4.92236H98.36C99.3015 4.92236 100.064 5.68486 100.064 6.62638C100.064 7.5679 99.3015 8.3304 98.36 8.3304Z" fill="#1D1A23"/>
<path d="M98.36 13.2518H25.863C24.9215 13.2518 24.159 12.4893 24.159 11.5478C24.159 10.6062 24.9215 9.84375 25.863 9.84375H98.36C99.3015 9.84375 100.064 10.6062 100.064 11.5478C100.064 12.4893 99.3015 13.2518 98.36 13.2518Z" fill="#1D1A23"/>
<path d="M98.36 18.1741H25.863C24.9215 18.1741 24.159 17.4116 24.159 16.4701C24.159 15.5286 24.9215 14.7661 25.863 14.7661H98.36C99.3015 14.7661 100.064 15.5286 100.064 16.4701C100.064 17.4116 99.3015 18.1741 98.36 18.1741Z" fill="#1D1A23"/>
<path d="M98.36 23.0941H25.863C24.9215 23.0941 24.159 22.3316 24.159 21.3901C24.159 20.4485 24.9215 19.686 25.863 19.686H98.36C99.3015 19.686 100.064 20.4485 100.064 21.3901C100.064 22.3316 99.3015 23.0941 98.36 23.0941Z" fill="#1D1A23"/>
<path d="M1.70402 58.4803C0.762498 58.4803 0 57.7178 0 56.7763V1.70402C0 0.762498 0.762498 0 1.70402 0C2.64554 0 3.40803 0.762498 3.40803 1.70402V56.7763C3.40803 57.7178 2.64554 58.4803 1.70402 58.4803Z" fill="#1D1A23"/>
<path d="M11.3779 58.4803C10.4364 58.4803 9.67389 57.7178 9.67389 56.7763V1.70402C9.67389 0.762498 10.4364 0 11.3779 0C12.3194 0 13.0819 0.762498 13.0819 1.70402V56.7763C13.0819 57.7178 12.3194 58.4803 11.3779 58.4803Z" fill="#1D1A23"/>
<path d="M6.53989 58.4803C5.59837 58.4803 4.83588 57.7178 4.83588 56.7763V1.70402C4.83588 0.762498 5.59837 0 6.53989 0C7.48141 0 8.24391 0.762498 8.24391 1.70402V56.7763C8.24391 57.7178 7.48141 58.4803 6.53989 58.4803Z" fill="#1D1A23"/>
<path d="M16.2136 58.4803C15.2721 58.4803 14.5096 57.7178 14.5096 56.7763V1.70402C14.5096 0.762498 15.2721 0 16.2136 0C17.1551 0 17.9176 0.762498 17.9176 1.70402V56.7763C17.9176 57.7178 17.1551 58.4803 16.2136 58.4803Z" fill="#1D1A23"/>
<path d="M21.0516 58.4803C20.1101 58.4803 19.3476 57.7178 19.3476 56.7763V1.70402C19.3476 0.762498 20.1101 0 21.0516 0C21.9931 0 22.7556 0.762498 22.7556 1.70402V56.7763C22.7556 57.7178 21.9931 58.4803 21.0516 58.4803Z" fill="#1D1A23"/>
<path d="M51.9781 126C51.0366 126 50.2741 125.237 50.2741 124.296V85.9169C50.2741 84.9754 51.0366 84.2129 51.9781 84.2129C52.9196 84.2129 53.6821 84.9754 53.6821 85.9169V124.296C53.6821 125.237 52.9196 126 51.9781 126Z" fill="#1D1A23"/>
<path d="M45.9687 125.622C45.898 125.622 45.825 125.618 45.7521 125.609C44.8172 125.492 44.1564 124.639 44.2757 123.704L49.085 85.6276C49.2021 84.6927 50.0552 84.034 50.9901 84.1512C51.925 84.2683 52.5858 85.1214 52.4665 86.0563L47.6572 124.133C47.5489 124.995 46.8152 125.622 45.9687 125.622Z" fill="#1D1A23"/>
<path d="M40.05 124.493C39.9107 124.493 39.7671 124.475 39.6256 124.44C38.715 124.205 38.1647 123.277 38.399 122.366L47.9424 85.1942C48.1767 84.2836 49.1027 83.7333 50.0155 83.9675C50.9261 84.2018 51.4764 85.1301 51.2421 86.0406L41.6987 123.213C41.502 123.982 40.8081 124.493 40.05 124.493Z" fill="#1D1A23"/>
<path d="M34.319 122.632C34.1112 122.632 33.8991 122.592 33.6913 122.513C32.8161 122.166 32.3873 121.175 32.7343 120.3L46.8615 84.6175C47.2085 83.7423 48.1965 83.3157 49.0739 83.6605C49.9491 84.0075 50.3779 84.9976 50.0309 85.8728L35.9037 121.556C35.6385 122.225 34.9975 122.632 34.319 122.632Z" fill="#1D1A23"/>
<path d="M28.8666 120.066C28.5903 120.066 28.3074 119.997 28.0466 119.856C27.2223 119.403 26.9217 118.366 27.3748 117.542L45.8648 83.9102C46.3179 83.0858 47.3544 82.7853 48.1788 83.2383C49.0032 83.6914 49.3038 84.728 48.8507 85.5524L30.3607 119.184C30.0512 119.748 29.4678 120.068 28.8666 120.068V120.066Z" fill="#1D1A23"/>
<path d="M23.7788 116.839C23.4318 116.839 23.0804 116.733 22.7798 116.514C22.0173 115.962 21.8493 114.897 22.4019 114.134L44.9608 83.086C45.5133 82.3235 46.5786 82.1556 47.3411 82.7081C48.1036 83.2606 48.2716 84.3259 47.719 85.0884L25.1601 116.136C24.8264 116.596 24.307 116.839 23.781 116.839H23.7788Z" fill="#1D1A23"/>
<path d="M19.1376 112.998C18.7198 112.998 18.2999 112.845 17.9706 112.536C17.2855 111.892 17.2501 110.814 17.8955 110.127L44.1674 82.1507C44.8105 81.4655 45.8891 81.4301 46.5764 82.0755C47.2616 82.7187 47.2969 83.7972 46.6516 84.4846L20.3796 112.46C20.0437 112.819 19.5906 112.998 19.1376 112.998Z" fill="#1D1A23"/>
<path d="M15.0157 108.606C14.5251 108.606 14.0389 108.396 13.7029 107.987C13.104 107.262 13.2056 106.188 13.9306 105.589L43.5022 81.1254C44.2271 80.5264 45.3013 80.6259 45.9002 81.353C46.4992 82.078 46.3975 83.1521 45.6726 83.751L16.1009 108.215C15.7827 108.478 15.3981 108.606 15.0157 108.606Z" fill="#1D1A23"/>
<path d="M11.475 103.733C10.9114 103.733 10.3589 103.452 10.034 102.942C9.53007 102.146 9.76435 101.094 10.56 100.59L42.965 80.0248C43.7607 79.5209 44.8127 79.7551 45.3166 80.5508C45.8205 81.3464 45.5863 82.3985 44.7906 82.9024L12.3856 103.468C12.1027 103.647 11.7866 103.733 11.475 103.733Z" fill="#1D1A23"/>
<path d="M8.57323 98.4529C7.9345 98.4529 7.32008 98.0905 7.03055 97.4738C6.63052 96.6229 6.99519 95.6085 7.84609 95.2062L42.5718 78.8645C43.4227 78.4622 44.4372 78.8291 44.8394 79.68C45.2394 80.5309 44.8748 81.5454 44.0239 81.9476L9.29816 98.2894C9.06388 98.3999 8.81634 98.4529 8.57323 98.4529Z" fill="#1D1A23"/>
<path d="M6.35415 92.8523C5.63586 92.8523 4.9684 92.3948 4.73412 91.6743C4.44238 90.7792 4.93303 89.8178 5.82814 89.5283L42.3286 77.6687C43.2259 77.377 44.1851 77.8676 44.4746 78.7627C44.7664 79.6578 44.2757 80.6192 43.3806 80.9087L6.88017 92.7684C6.70557 92.8258 6.52875 92.8523 6.35415 92.8523Z" fill="#1D1A23"/>
<path d="M4.85349 87.0157C4.05121 87.0157 3.33734 86.4477 3.18263 85.63C3.00582 84.7061 3.61361 83.8132 4.53744 83.6364L42.2358 76.4446C43.1574 76.27 44.0525 76.8734 44.2293 77.7994C44.4061 78.7233 43.7983 79.6162 42.8745 79.793L5.17617 86.9848C5.06788 87.0047 4.96179 87.0157 4.8557 87.0157H4.85349Z" fill="#1D1A23"/>
<path d="M4.09975 81.0391C3.20685 81.0391 2.45762 80.3451 2.40015 79.4412C2.34048 78.5019 3.05435 77.6929 3.99366 77.6333L42.2954 75.2242C43.2325 75.169 44.0436 75.8784 44.1033 76.8177C44.1629 77.757 43.4491 78.5659 42.5098 78.6256L4.20805 81.0347C4.17268 81.0369 4.13511 81.0391 4.09975 81.0391Z" fill="#1D1A23"/>
<path d="M23.0876 73.9336L23.0164 75.0674L42.3679 76.2815L42.4391 75.1477L23.0876 73.9336Z" fill="#FFF2E6"/>
<path d="M23.1589 70.2454L22.946 71.3613L42.448 75.0815L42.6609 73.9656L23.1589 70.2454Z" fill="#FFF2E6"/>
<path d="M23.2289 66.3874L22.8778 67.4678L42.6762 73.9007L43.0273 72.8203L23.2289 66.3874Z" fill="#FFF2E6"/>
<path d="M23.2957 62.2001L22.812 63.228L43.0539 72.7531L43.5376 71.7253L23.2957 62.2001Z" fill="#FFF2E6"/>
<path d="M23.358 57.4827L22.7493 58.4419L43.5747 71.6581L44.1834 70.699L23.358 57.4827Z" fill="#FFF2E6"/>
<path d="M44.5852 71.9113C44.2028 71.9113 43.8183 71.7831 43.5 71.5201L21.9688 53.7064C21.2439 53.1074 21.1422 52.0333 21.7412 51.3084C22.3423 50.5834 23.4165 50.4818 24.1414 51.0807L45.6726 68.8944C46.3975 69.4934 46.4992 70.5675 45.9002 71.2946C45.5643 71.7013 45.0758 71.9113 44.5874 71.9113H44.5852Z" fill="#1D1A23"/>
<path d="M45.4118 71.0342C44.9587 71.0342 44.5057 70.853 44.1697 70.4971L21.812 46.6873C21.1688 46.0022 21.202 44.9236 21.8871 44.2783C22.5722 43.6351 23.6508 43.6683 24.2961 44.3534L46.6539 68.1632C47.2971 68.8484 47.2639 69.9269 46.5788 70.5723C46.2495 70.8817 45.8317 71.0342 45.4118 71.0342Z" fill="#1D1A23"/>
<path d="M46.3399 70.265C45.8139 70.265 45.2945 70.0219 44.9608 69.5622L22.4019 38.5142C21.8493 37.7517 22.0173 36.6864 22.7798 36.1339C23.5401 35.5813 24.6076 35.7493 25.1601 36.5118L47.719 67.5598C48.2716 68.3201 48.1036 69.3876 47.3411 69.9402C47.0383 70.159 46.6891 70.265 46.3421 70.265H46.3399Z" fill="#1D1A23"/>
<path d="M47.3589 69.6199C46.7577 69.6199 46.1742 69.3016 45.8648 68.7358L27.377 35.1041C26.9239 34.2797 27.2245 33.2432 28.0489 32.7901C28.8733 32.337 29.9098 32.6376 30.3629 33.462L48.8507 67.0937C49.3038 67.918 49.0032 68.9546 48.1788 69.4077C47.918 69.5513 47.6374 69.6176 47.3589 69.6176V69.6199Z" fill="#1D1A23"/>
<path d="M48.4462 69.1064C47.7677 69.1064 47.1268 68.6975 46.8615 68.0301L32.7343 32.3474C32.3873 31.4722 32.8161 30.482 33.6913 30.135C34.5665 29.788 35.5567 30.2168 35.9037 31.092L50.0309 66.7747C50.3779 67.6499 49.9491 68.6401 49.0739 68.9871C48.8683 69.0688 48.6562 69.1064 48.4462 69.1064Z" fill="#1D1A23"/>
<path d="M49.5911 68.7329C48.8309 68.7329 48.1391 68.2223 47.9424 67.4532L38.399 30.2809C38.1647 29.3703 38.715 28.4398 39.6256 28.2078C40.5362 27.9735 41.4667 28.5238 41.6987 29.4344L51.2421 66.6067C51.4764 67.5173 50.9261 68.4478 50.0155 68.6798C49.874 68.7174 49.7304 68.7329 49.5911 68.7329Z" fill="#1D1A23"/>
<path d="M50.7735 68.5074C49.927 68.5074 49.1933 67.8776 49.085 67.0178L44.2757 28.9415C44.1586 28.0089 44.8194 27.1557 45.7521 27.0364C46.6848 26.9193 47.5379 27.5801 47.6572 28.5128L52.4665 66.5891C52.5836 67.5217 51.9228 68.3748 50.9901 68.4942C50.9172 68.503 50.8465 68.5074 50.7735 68.5074Z" fill="#1D1A23"/>
<path d="M51.9781 68.4326C51.0366 68.4326 50.2741 67.6701 50.2741 66.7286V28.3495C50.2741 27.408 51.0366 26.6455 51.9781 26.6455C52.9196 26.6455 53.6821 27.408 53.6821 28.3495V66.7286C53.6821 67.6701 52.9196 68.4326 51.9781 68.4326Z" fill="#1D1A23"/>
<path d="M53.1827 68.5074C53.1119 68.5074 53.039 68.503 52.9661 68.4942C52.0312 68.377 51.3703 67.5239 51.4897 66.5891L56.299 28.5128C56.4183 27.5801 57.2692 26.9193 58.2041 27.0364C59.139 27.1535 59.7998 28.0067 59.6805 28.9415L54.8712 67.0178C54.7629 67.8798 54.0291 68.5074 53.1827 68.5074Z" fill="#1D1A23"/>
<path d="M54.365 68.7329C54.2257 68.7329 54.0821 68.7152 53.9406 68.6798C53.0301 68.4456 52.4797 67.5173 52.714 66.6067L62.2574 29.4344C62.4917 28.5238 63.4177 27.9735 64.3305 28.2078C65.2411 28.4421 65.7914 29.3703 65.5571 30.2809L56.0137 67.4532C55.817 68.2223 55.1231 68.7329 54.365 68.7329Z" fill="#1D1A23"/>
<path d="M55.5098 69.1064C55.302 69.1064 55.0899 69.0666 54.8821 68.9871C54.0069 68.6401 53.5781 67.6499 53.9251 66.7747L68.0523 31.092C68.3993 30.2168 69.3873 29.788 70.2647 30.135C71.1399 30.482 71.5687 31.4722 71.2217 32.3474L57.0945 68.0301C56.8292 68.6997 56.1883 69.1064 55.5098 69.1064Z" fill="#1D1A23"/>
<path d="M56.5995 69.6191C56.3232 69.6191 56.0403 69.5506 55.7796 69.4091C54.9552 68.9561 54.6546 67.9195 55.1077 67.0951L73.5977 33.4634C74.0508 32.6391 75.0873 32.3385 75.9117 32.7916C76.7361 33.2446 77.0367 34.2812 76.5836 35.1056L58.0936 68.7373C57.7841 69.3008 57.2007 69.6213 56.5995 69.6213V69.6191Z" fill="#1D1A23"/>
<path d="M57.6161 70.265C57.2691 70.265 56.9177 70.159 56.6171 69.9402C55.8546 69.3876 55.6866 68.3223 56.2392 67.5598L78.798 36.5118C79.3506 35.7493 80.4159 35.5813 81.1784 36.1339C81.9409 36.6864 82.1088 37.7517 81.5563 38.5142L58.9974 69.5622C58.6637 70.0219 58.1443 70.265 57.6183 70.265H57.6161Z" fill="#1D1A23"/>
<path d="M58.5465 71.0317C58.1288 71.0317 57.7088 70.8792 57.3795 70.5698C56.6944 69.9267 56.659 68.8481 57.3044 68.1608L83.5763 40.1848C84.2195 39.4997 85.298 39.4643 85.9854 40.1097C86.6705 40.7528 86.7059 41.8314 86.0605 42.5187L59.7886 70.4947C59.4526 70.8527 58.9996 71.0317 58.5465 71.0317Z" fill="#1D1A23"/>
<path d="M59.3732 71.9109C58.8826 71.9109 58.3963 71.701 58.0604 71.2921C57.4614 70.5672 57.5631 69.493 58.288 68.8941L87.8597 44.4301C88.5846 43.8311 89.6588 43.9306 90.2577 44.6577C90.8566 45.3826 90.755 46.4568 90.0301 47.0557L60.4584 71.5197C60.1401 71.7827 59.7556 71.9109 59.3732 71.9109Z" fill="#1D1A23"/>
<path d="M60.0804 72.8855C59.5168 72.8855 58.9643 72.6048 58.6394 72.0943C58.1355 71.2986 58.3698 70.2466 59.1654 69.7427L91.5683 49.1796C92.3639 48.6756 93.4159 48.9099 93.9198 49.7056C94.4238 50.5012 94.1895 51.5532 93.3938 52.0572L60.991 72.6203C60.7081 72.7993 60.392 72.8855 60.0804 72.8855Z" fill="#1D1A23"/>
<path d="M60.6616 73.9427C60.0229 73.9427 59.4085 73.5802 59.1189 72.9636C58.7189 72.1127 59.0836 71.0982 59.9345 70.696L94.6602 54.3542C95.5111 53.952 96.5255 54.3188 96.9278 55.1697C97.3278 56.0206 96.9631 57.0373 96.1122 57.4374L61.3865 73.7769C61.1523 73.8874 60.9047 73.9405 60.6616 73.9405V73.9427Z" fill="#1D1A23"/>
<path d="M61.1037 75.0629C60.3854 75.0629 59.718 74.6054 59.4837 73.8849C59.192 72.9898 59.6826 72.0284 60.5777 71.7389L97.0781 59.8793C97.9733 59.5898 98.9347 60.0782 99.2242 60.9733C99.5159 61.8684 99.0253 62.8298 98.1302 63.1193L61.6297 74.9789C61.4551 75.0364 61.2783 75.0629 61.1037 75.0629Z" fill="#1D1A23"/>
<path d="M61.4021 76.2301C60.5998 76.2301 59.8859 75.6621 59.7312 74.8443C59.5544 73.9205 60.1622 73.0276 61.086 72.8508L98.7844 65.659C99.706 65.4844 100.601 66.0877 100.778 67.0138C100.955 67.9376 100.347 68.8305 99.4231 69.0073L61.7248 76.1991C61.6165 76.219 61.5104 76.2301 61.4043 76.2301H61.4021Z" fill="#1D1A23"/>
<path d="M61.5523 77.4231C60.6594 77.4231 59.9102 76.7291 59.8527 75.8252C59.7931 74.8859 60.5069 74.077 61.4462 74.0173L99.7479 71.6082C100.683 71.5508 101.496 72.2624 101.556 73.2017C101.616 74.141 100.902 74.95 99.9623 75.0096L61.6606 77.4187C61.6253 77.4209 61.5877 77.4231 61.5523 77.4231Z" fill="#1D1A23"/>
<path d="M99.8585 81.0391C99.8231 81.0391 99.7856 81.0391 99.7502 81.0347L61.4485 78.6256C60.5092 78.5659 59.7953 77.757 59.855 76.8177C59.9147 75.8784 60.7214 75.169 61.6629 75.2242L99.9646 77.6333C100.904 77.6929 101.618 78.5019 101.558 79.4412C101.501 80.3429 100.751 81.0391 99.8585 81.0391Z" fill="#1D1A23"/>
<path d="M99.1048 87.0153C98.9987 87.0153 98.8927 87.0042 98.7844 86.9843L61.086 79.7925C60.1622 79.6157 59.5544 78.725 59.7312 77.799C59.908 76.8751 60.7987 76.2674 61.7248 76.4442L99.4231 83.636C100.347 83.8128 100.955 84.7035 100.778 85.6295C100.623 86.445 99.9071 87.0153 99.107 87.0153H99.1048Z" fill="#1D1A23"/>
<path d="M97.6042 92.8523C97.4296 92.8523 97.2528 92.8258 97.0781 92.7684L60.5777 80.9087C59.6826 80.617 59.192 79.6578 59.4837 78.7627C59.7754 77.8676 60.7346 77.377 61.6297 77.6687L98.1302 89.5283C99.0253 89.82 99.5159 90.7792 99.2242 91.6743C98.9899 92.3948 98.3225 92.8523 97.6042 92.8523Z" fill="#1D1A23"/>
<path d="M95.3851 98.4527C95.142 98.4527 94.8945 98.3996 94.6602 98.2891L59.9345 81.9496C59.0836 81.5495 58.7167 80.5329 59.119 79.682C59.519 78.8311 60.5357 78.4664 61.3866 78.8664L96.1123 95.206C96.9632 95.606 97.3301 96.6227 96.9278 97.4736C96.6383 98.0902 96.0239 98.4527 95.3851 98.4527Z" fill="#1D1A23"/>
<path d="M92.4811 103.733C92.1695 103.733 91.8534 103.647 91.5705 103.468L59.1677 82.9048C58.372 82.4009 58.1377 81.3467 58.6417 80.5532C59.1456 79.7576 60.1976 79.5233 60.9932 80.0272L93.3961 100.59C94.1917 101.094 94.426 102.148 93.9221 102.942C93.5972 103.452 93.0447 103.733 92.4811 103.733Z" fill="#1D1A23"/>
<path d="M88.9404 108.606C88.558 108.606 88.1734 108.478 87.8552 108.215L58.2835 83.7508C57.5586 83.1519 57.4569 82.0777 58.0559 81.3528C58.657 80.6279 59.729 80.5262 60.4539 81.1252L90.0255 105.589C90.7505 106.188 90.8521 107.262 90.2532 107.987C89.9172 108.394 89.4288 108.606 88.9404 108.606Z" fill="#1D1A23"/>
<path d="M84.8185 112.998C84.3654 112.998 83.9123 112.816 83.5764 112.461L57.3044 84.4847C56.6613 83.7995 56.6944 82.721 57.3796 82.0756C58.0647 81.4325 59.1433 81.4656 59.7886 82.1508L86.0606 110.127C86.7037 110.812 86.6706 111.89 85.9854 112.536C85.6561 112.845 85.2384 112.998 84.8185 112.998Z" fill="#1D1A23"/>
<path d="M80.1772 116.837C79.6512 116.837 79.1318 116.594 78.798 116.134L56.2392 85.086C55.6866 84.3257 55.8546 83.2582 56.6171 82.7056C57.3774 82.1531 58.4449 82.3211 58.9974 83.0836L81.5563 114.132C82.1088 114.892 81.9409 115.959 81.1784 116.512C80.8756 116.731 80.5264 116.837 80.1794 116.837H80.1772Z" fill="#1D1A23"/>
<path d="M75.0916 120.066C74.4904 120.066 73.907 119.747 73.5976 119.182L55.1097 85.5499C54.6567 84.7255 54.9572 83.689 55.7816 83.2359C56.606 82.7828 57.6426 83.0834 58.0956 83.9078L76.5835 117.539C77.0365 118.364 76.7359 119.4 75.9116 119.853C75.6508 119.997 75.3701 120.063 75.0916 120.063V120.066Z" fill="#1D1A23"/>
<path d="M69.6393 122.632C68.9607 122.632 68.3198 122.223 68.0546 121.556L53.9274 85.8728C53.5804 84.9976 54.0092 84.0075 54.8844 83.6605C55.7596 83.3157 56.7497 83.7423 57.0967 84.6175L71.2239 120.3C71.5709 121.175 71.1422 122.166 70.2669 122.513C70.0614 122.594 69.8492 122.632 69.6393 122.632Z" fill="#1D1A23"/>
<path d="M63.9085 124.493C63.1482 124.493 62.4564 123.982 62.2597 123.213L52.7163 86.0406C52.482 85.1301 53.0324 84.1996 53.943 83.9675C54.8535 83.7333 55.784 84.2836 56.0161 85.1942L65.5594 122.366C65.7937 123.277 65.2434 124.208 64.3328 124.44C64.1914 124.477 64.0477 124.493 63.9085 124.493Z" fill="#1D1A23"/>
<path d="M57.9896 125.622C57.1431 125.622 56.4093 124.992 56.301 124.133L51.4918 86.0563C51.3746 85.1236 52.0355 84.2705 52.9682 84.1511C53.9008 84.034 54.754 84.6948 54.8733 85.6275L59.6826 123.704C59.7997 124.636 59.1389 125.49 58.2062 125.609C58.1332 125.618 58.0625 125.622 57.9896 125.622Z" fill="#1D1A23"/>
<path d="M70.362 85.8837C80.6336 85.8837 88.9603 77.2937 88.9603 66.6974C88.9603 56.1012 80.6336 47.5112 70.362 47.5112C60.0904 47.5112 51.7637 56.1012 51.7637 66.6974C51.7637 77.2937 60.0904 85.8837 70.362 85.8837Z" fill="#FFF2E6"/>
<path d="M37.3866 85.8837C47.6582 85.8837 55.985 77.2937 55.985 66.6974C55.985 56.1012 47.6582 47.5112 37.3866 47.5112C27.1151 47.5112 18.7883 56.1012 18.7883 66.6974C18.7883 77.2937 27.1151 85.8837 37.3866 85.8837Z" fill="#FFF2E6"/>
<path d="M53.9274 111.707C64.9521 111.707 73.8894 102.77 73.8894 91.7452C73.8894 80.7205 64.9521 71.7832 53.9274 71.7832C42.9027 71.7832 33.9655 80.7205 33.9655 91.7452C33.9655 102.77 42.9027 111.707 53.9274 111.707Z" fill="#FFF2E6"/>
<path d="M41.5594 82.0687C37.0375 82.4599 33.2228 81.1957 30.0556 78.1501C27.5339 75.7278 26.1282 72.7243 25.821 69.2632C25.2375 62.6659 29.3219 56.5505 35.634 54.5834C39.2984 53.4408 42.8744 53.7171 46.3024 55.4542C49.717 57.1848 52.0001 59.943 53.3925 63.7201C54.9727 59.459 57.6779 56.504 61.7092 54.8951C64.8344 53.6485 68.0413 53.5712 71.2526 54.61C77.494 56.6256 81.6867 62.9488 80.9794 69.2632C80.5418 73.1884 78.8732 76.4704 75.8033 78.979C72.7754 81.4499 69.2679 82.4334 65.2256 82.0599C67.4423 85.7729 68.1164 89.5832 66.9981 93.63C66.1494 96.6998 64.4255 99.1951 61.8905 101.12C56.9 104.908 49.8828 104.913 44.8945 101.12C41.9616 98.8901 40.1449 95.9462 39.4841 92.3216C38.8232 88.7014 39.5968 85.3331 41.5572 82.0687H41.5594ZM47.5666 66.863C47.9312 68.5559 47.8251 70.0235 46.2692 70.8633C45.0072 71.544 44.174 70.6534 43.3452 69.5881C43.0336 71.5816 43.1971 73.2812 44.3795 74.7532C45.4691 76.108 47.0759 76.1058 48.1854 74.7487C49.2529 73.4425 49.5402 71.9065 49.328 70.2688C49.1623 68.9803 48.76 67.7979 47.5643 66.8652L47.5666 66.863ZM57.5652 69.6389C57.1851 71.5794 57.4149 73.2768 58.5974 74.7443C59.7157 76.1323 61.4109 76.1212 62.4563 74.6758C63.8707 72.7198 63.9415 70.576 62.9933 68.4034C62.7568 67.8619 62.3082 67.4111 61.9568 66.9182C62.1535 68.8808 61.696 70.2622 60.5268 70.8611C59.5367 71.3672 58.8051 71.0821 57.5674 69.6367L57.5652 69.6389ZM64.894 90.9822C64.5691 90.5888 64.2973 89.9346 63.9105 89.8595C63.2099 89.7224 63.0861 90.4098 63.0397 90.9888C63.0309 91.0927 63.011 91.1944 62.9977 91.2983C62.5447 94.8544 59.0991 98.2801 55.554 98.6558C54.9639 98.7177 54.4666 98.868 54.4953 99.5089C54.5263 100.205 55.0722 100.355 55.6999 100.32C59.9301 100.079 64.452 95.4688 64.894 90.98V90.9822ZM49.0208 83.2357C49.5888 83.7573 50.2541 84.3253 50.8663 84.9419C51.3194 85.3972 51.7724 85.627 52.2808 85.1032C52.7493 84.6214 52.5526 84.1684 52.1018 83.7705C51.2243 82.9992 49.79 82.8312 49.0208 83.2335V83.2357ZM57.8371 83.1915C56.8602 82.871 55.7419 82.9395 54.7672 83.7484C54.5064 83.965 54.3627 84.4424 54.3561 84.8049C54.3517 84.9949 54.7738 85.3685 54.9749 85.3486C55.2954 85.3176 55.6203 85.0657 55.8944 84.8447C56.5508 84.3164 57.1807 83.7551 57.8371 83.1915Z" fill="#1D1A23"/>
</svg>
