<svg width="259" height="51" viewBox="0 0 259 51" fill="none" xmlns="http://www.w3.org/2000/svg">
<g clip-path="url(#clip0_2095_195)">
<path d="M62.1072 25.3682H60.5369L49.4315 4.30026V33.7407H48.0361V1.64502H49.6064L62.1072 25.3682ZM50.8269 8.93265L52.2223 11.5879V33.7407H50.8269V8.93265ZM65.2665 25.3682H63.6775L51.1954 1.64502H52.7844L65.2665 25.3682ZM53.6178 14.2431L55.0132 16.8787V33.7407H53.6178V14.2431ZM79.5117 4.30026L68.4063 25.3682H66.8172L54.3547 1.64502H55.925L67.6318 23.8951L79.3181 1.64502H80.9071V33.7407H79.5117V4.30026ZM56.4095 19.5536L57.8049 22.1892V33.7407H56.4095V19.5536ZM65.751 18.3321L64.9373 16.8591L73.0003 1.64502H74.5893L65.751 18.3321ZM67.3597 21.3755L66.5647 19.9221L76.1784 1.64502H77.7487L67.3606 21.3755H67.3597ZM71.1391 22.034L72.5345 19.3983V33.7407H71.1391V22.034ZM73.93 16.6851L75.3254 14.0495V33.7407H73.93V16.6851ZM76.7208 11.413L78.1162 8.75777V33.7407H76.7208V11.413Z" fill="#222222"/>
<path d="M85.9767 23.857C85.1273 21.8816 84.7017 19.8072 84.7017 17.6355C84.7017 15.4639 85.1264 13.3904 85.9767 11.4141C86.8261 9.43875 87.9663 7.7355 89.3957 6.30528C90.825 4.87595 92.5282 3.7357 94.5045 2.88631C96.4807 2.03692 98.5543 1.61133 100.726 1.61133C102.898 1.61133 104.971 2.03602 106.947 2.88631C108.924 3.7357 110.626 4.87595 112.056 6.30528C113.486 7.7355 114.626 9.43785 115.475 11.4141C116.325 13.3904 116.75 15.4639 116.75 17.6355C116.75 19.8072 116.325 21.8807 115.475 23.857C114.626 25.8332 113.486 27.5365 112.056 28.9658C110.626 30.396 108.924 31.5354 106.947 32.3848C104.971 33.2342 102.898 33.6598 100.726 33.6598C98.5543 33.6598 96.4807 33.2351 94.5045 32.3848C92.5282 31.5354 90.8259 30.3951 89.3957 28.9658C87.9654 27.5365 86.8261 25.8332 85.9767 23.857ZM87.3123 11.9807C86.5432 13.7812 86.1587 15.6664 86.1587 17.6355C86.1587 19.6047 86.5432 21.4899 87.3123 23.2904C88.0814 25.0909 89.1164 26.6425 90.4181 27.9442C91.7199 29.246 93.2705 30.2809 95.0719 31.05C96.8724 31.8191 98.7577 32.2037 100.727 32.2037C102.696 32.2037 104.581 31.8191 106.382 31.05C108.182 30.2809 109.734 29.246 111.035 27.9442C112.337 26.6425 113.372 25.0918 114.141 23.2904C114.91 21.4899 115.295 19.6047 115.295 17.6355C115.295 15.6664 114.91 13.7812 114.141 11.9807C113.372 10.1802 112.337 8.6295 111.035 7.32687C109.734 6.02512 108.183 4.99015 106.382 4.22106C104.581 3.45197 102.696 3.06743 100.727 3.06743C98.7577 3.06743 96.8724 3.45197 95.0719 4.22106C93.2714 4.99015 91.7199 6.02512 90.4181 7.32687C89.1164 8.62861 88.0814 10.1793 87.3123 11.9807ZM88.6578 22.7337C87.9628 21.1152 87.6157 19.4155 87.6157 17.6355C87.6157 15.8556 87.9628 14.1559 88.6578 12.5374C89.3519 10.9189 90.2834 9.52618 91.4495 8.35916C92.6166 7.19304 94.0093 6.26156 95.6278 5.56742C97.2463 4.87327 98.9459 4.52531 100.726 4.52531C102.506 4.52531 104.206 4.87238 105.824 5.56742C107.443 6.26245 108.835 7.19304 110.002 8.35916C111.169 9.52618 112.1 10.9189 112.794 12.5374C113.488 14.1559 113.836 15.8556 113.836 17.6355C113.836 19.4155 113.489 21.1152 112.794 22.7337C112.099 24.3521 111.168 25.7449 110.002 26.9119C108.835 28.0789 107.443 29.0095 105.824 29.7037C104.206 30.3987 102.506 30.7458 100.726 30.7458C98.9459 30.7458 97.2463 30.3987 95.6278 29.7037C94.0093 29.0095 92.6166 28.078 91.4495 26.9119C90.2825 25.7458 89.3519 24.3521 88.6578 22.7337ZM89.9934 13.1129C89.3796 14.5494 89.0727 16.0563 89.0727 17.6346C89.0727 19.213 89.3796 20.7199 89.9934 22.1564C90.6073 23.5929 91.4362 24.8339 92.4818 25.8787C93.5266 26.9244 94.7677 27.7533 96.2042 28.3671C97.6406 28.981 99.1476 29.2879 100.726 29.2879C102.304 29.2879 103.811 28.981 105.248 28.3671C106.684 27.7533 107.925 26.9244 108.97 25.8787C110.015 24.8339 110.845 23.5929 111.458 22.1564C112.072 20.7199 112.379 19.213 112.379 17.6346C112.379 16.0563 112.072 14.5494 111.458 13.1129C110.845 11.6764 110.015 10.4354 108.97 9.39057C107.924 8.34578 106.684 7.51602 105.248 6.90217C103.811 6.28833 102.304 5.98141 100.726 5.98141C99.1476 5.98141 97.6406 6.28833 96.2042 6.90217C94.7677 7.51602 93.5266 8.34578 92.4818 9.39057C91.4362 10.4362 90.6073 11.6764 89.9934 13.1129ZM91.8948 22.7542C90.9847 21.1892 90.5288 19.4833 90.5288 17.6355C90.5288 15.7878 90.9838 14.0818 91.8948 12.5169C92.8048 10.9519 94.0423 9.71444 95.6073 8.80438C97.1722 7.89432 98.8781 7.4384 100.726 7.4384C102.574 7.4384 104.28 7.89343 105.845 8.80438C107.41 9.71444 108.647 10.9528 109.557 12.5169C110.467 14.0818 110.923 15.7878 110.923 17.6355C110.923 19.4833 110.468 21.1901 109.557 22.7542C108.647 24.3191 107.409 25.5566 105.845 26.4667C104.28 27.3768 102.574 27.8327 100.726 27.8327C98.8781 27.8327 97.1713 27.3777 95.6073 26.4667C94.0423 25.5566 92.8048 24.3191 91.8948 22.7542ZM94.5455 11.4641C92.8387 13.1771 91.9858 15.2346 91.9858 17.6346C91.9858 20.0347 92.8387 22.0931 94.5455 23.8052C96.2515 25.5183 98.3116 26.3748 100.727 26.3748C103.142 26.3748 105.201 25.5183 106.908 23.8052C108.614 22.0922 109.468 20.0356 109.468 17.6346C109.468 15.2337 108.615 13.1771 106.908 11.4641C105.201 9.75102 103.141 8.89449 100.727 8.89449C98.3125 8.89449 96.2523 9.75102 94.5455 11.4641ZM95.5769 22.7845C94.1538 21.3614 93.4428 19.6457 93.4428 17.6355C93.4428 15.6254 94.1538 13.9096 95.5769 12.4866C97 11.0635 98.7157 10.3524 100.726 10.3524C102.736 10.3524 104.452 11.0644 105.875 12.4866C107.298 13.9096 108.009 15.6263 108.009 17.6355C108.009 19.6448 107.297 21.3614 105.875 22.7845C104.452 24.2076 102.735 24.9187 100.726 24.9187C98.7166 24.9187 97 24.2076 95.5769 22.7845ZM96.6092 13.518C95.469 14.6582 94.8997 16.0304 94.8997 17.6355C94.8997 19.2406 95.4699 20.6129 96.6092 21.7531C97.7486 22.8934 99.1208 23.4626 100.727 23.4626C102.333 23.4626 103.704 22.8934 104.844 21.7531C105.984 20.6138 106.554 19.2415 106.554 17.6355C106.554 16.0295 105.984 14.6582 104.844 13.518C103.704 12.3786 102.332 11.8085 100.727 11.8085C99.1217 11.8085 97.7495 12.3786 96.6092 13.518Z" fill="#222222"/>
<path d="M122.618 4.53234V34.0647H121.002V1.74951H122.932L141.581 34.0647H139.718L122.618 4.53234ZM124.234 8.97557L125.85 11.9377V34.0647H124.234V8.97557ZM124.795 1.74951H126.681L145.397 34.0647H143.511L124.795 1.74951ZM127.466 14.7875L129.081 17.7273V34.0647H127.466V14.7875ZM128.61 1.74951H130.518L149.212 34.0647H147.282L128.61 1.74951ZM132.402 1.74951H134.288L151.343 31.2596V1.74951H152.959V34.0647H151.051L132.402 1.74951ZM146.496 21.0267L144.88 18.0869V1.74951H146.496V21.0267ZM149.727 26.6147L148.112 23.8765V1.74951H149.727V26.6147Z" fill="#222222"/>
<path d="M157.346 1.78711H159.012V35.0962H157.346V1.78711ZM160.677 1.78711H162.342V35.0962H160.677V1.78711ZM164.007 1.78711H165.673V35.0962H164.007V1.78711ZM167.338 1.78711H169.004V35.0962H167.338V1.78711ZM181.171 1.78711H179.32L170.022 18.5804L179.182 35.0962H181.033L171.872 18.5804L181.171 1.78711ZM184.895 1.78711H183.045L173.769 18.5804L182.906 35.0962H184.757L175.619 18.5804L184.895 1.78711ZM188.619 1.78711H186.769L177.493 18.5804L186.63 35.0962H188.481L179.344 18.5804L188.619 1.78711ZM192.343 1.78711H190.493L181.217 18.5804L190.354 35.0962H192.205L183.068 18.5804L192.343 1.78711Z" fill="#222222"/>
<path d="M197.648 34.0087H196.023V1.49902H197.648V34.0087ZM200.9 34.0087H199.274V1.49902H200.9V34.0087ZM204.151 34.0087H202.525V1.49902H204.151V34.0087ZM207.401 25.8815H222.956V27.5071H207.401V29.1328H222.956V30.7584H207.401V32.384H222.956V34.0096H205.776V1.49902H222.956V3.12464H207.401V4.75026H222.956V6.37588H207.401V8.0015H222.956V9.62712H207.401V13.668H222.053V15.2936H207.401V16.9192H222.053V18.5448H207.401V20.1704H222.053V21.7961H207.401V25.8824V25.8815Z" fill="#222222"/>
<path d="M247.587 1.80411H249.197L239.066 23.1397V34.0087H237.455V23.1397L226.653 1.80411H228.264L238.238 21.5069L247.587 1.80411ZM229.896 1.80411H231.506L239.491 16.9896L238.686 18.7562L229.897 1.80411H229.896ZM233.117 1.80411H234.749L241.101 13.4556L240.274 15.2222L233.117 1.80322L233.117 1.80411ZM236.382 1.80411H237.993L242.711 9.9447L241.907 11.7113L236.383 1.80411H236.382ZM250.807 1.80411H252.417L242.286 23.1397V34.0087H240.675V23.1397L250.807 1.80411ZM254.027 1.80411H255.638L245.507 23.1397V34.0087H243.896V23.1397L254.027 1.80411ZM257.247 1.80411H258.858L248.727 23.1397V34.0087H247.116V23.1397L257.247 1.80411Z" fill="#222222"/>
<path d="M39.7072 1.3758H10.4407C10.0607 1.3758 9.75284 1.06798 9.75284 0.687899C9.75284 0.307815 10.0607 0 10.4407 0H39.7072C40.0873 0 40.3951 0.307815 40.3951 0.687899C40.3951 1.06798 40.0873 1.3758 39.7072 1.3758Z" fill="#222222"/>
<path d="M39.7072 3.36261H10.4408C10.0607 3.36261 9.75285 3.0548 9.75285 2.67472C9.75285 2.29463 10.0607 1.98682 10.4408 1.98682H39.7072C40.0873 1.98682 40.3951 2.29463 40.3951 2.67472C40.3951 3.0548 40.0873 3.36261 39.7072 3.36261Z" fill="#222222"/>
<path d="M39.7072 5.34992H10.4408C10.0607 5.34992 9.75285 5.0421 9.75285 4.66202C9.75285 4.28194 10.0607 3.97412 10.4408 3.97412H39.7072C40.0873 3.97412 40.3951 4.28194 40.3951 4.66202C40.3951 5.0421 40.0873 5.34992 39.7072 5.34992Z" fill="#222222"/>
<path d="M39.7072 7.33674H10.4408C10.0607 7.33674 9.75285 7.02892 9.75285 6.64884C9.75285 6.26875 10.0607 5.96094 10.4408 5.96094H39.7072C40.0873 5.96094 40.3951 6.26875 40.3951 6.64884C40.3951 7.02892 40.0873 7.33674 39.7072 7.33674Z" fill="#222222"/>
<path d="M39.7072 9.32258H10.4408C10.0607 9.32258 9.75285 9.01476 9.75285 8.63468C9.75285 8.25459 10.0607 7.94678 10.4408 7.94678H39.7072C40.0873 7.94678 40.3951 8.25459 40.3951 8.63468C40.3951 9.01476 40.0873 9.32258 39.7072 9.32258Z" fill="#222222"/>
<path d="M0.687899 23.6081C0.307815 23.6081 0 23.3002 0 22.9202V0.687899C0 0.307815 0.307815 0 0.687899 0C1.06798 0 1.3758 0.307815 1.3758 0.687899V22.9202C1.3758 23.3002 1.06798 23.6081 0.687899 23.6081Z" fill="#222222"/>
<path d="M4.59314 23.6081C4.21306 23.6081 3.90524 23.3002 3.90524 22.9202V0.687899C3.90524 0.307815 4.21306 0 4.59314 0C4.97323 0 5.28104 0.307815 5.28104 0.687899V22.9202C5.28104 23.3002 4.97323 23.6081 4.59314 23.6081Z" fill="#222222"/>
<path d="M2.64008 23.6081C2.25999 23.6081 1.95218 23.3002 1.95218 22.9202V0.687899C1.95218 0.307815 2.25999 0 2.64008 0C3.02016 0 3.32798 0.307815 3.32798 0.687899V22.9202C3.32798 23.3002 3.02016 23.6081 2.64008 23.6081Z" fill="#222222"/>
<path d="M6.54532 23.6081C6.16524 23.6081 5.85742 23.3002 5.85742 22.9202V0.687899C5.85742 0.307815 6.16524 0 6.54532 0C6.92541 0 7.23322 0.307815 7.23322 0.687899V22.9202C7.23322 23.3002 6.92541 23.6081 6.54532 23.6081Z" fill="#222222"/>
<path d="M8.49837 23.6081C8.11829 23.6081 7.81047 23.3002 7.81047 22.9202V0.687899C7.81047 0.307815 8.11829 0 8.49837 0C8.87845 0 9.18627 0.307815 9.18627 0.687899V22.9202C9.18627 23.3002 8.87845 23.6081 8.49837 23.6081Z" fill="#222222"/>
<path d="M20.9832 50.8652C20.6031 50.8652 20.2953 50.5574 20.2953 50.1773V34.684C20.2953 34.3039 20.6031 33.9961 20.9832 33.9961C21.3632 33.9961 21.6711 34.3039 21.6711 34.684V50.1773C21.6711 50.5574 21.3632 50.8652 20.9832 50.8652Z" fill="#222222"/>
<path d="M18.5572 50.7128C18.5287 50.7128 18.4992 50.711 18.4698 50.7075C18.0924 50.6602 17.8256 50.3158 17.8738 49.9384L19.8152 34.5673C19.8625 34.1899 20.2069 33.924 20.5843 33.9713C20.9617 34.0186 21.2285 34.3629 21.1803 34.7404L19.2389 50.1115C19.1951 50.4594 18.8989 50.7128 18.5572 50.7128Z" fill="#222222"/>
<path d="M16.1679 50.257C16.1117 50.257 16.0537 50.2498 15.9966 50.2355C15.629 50.141 15.4068 49.7662 15.5014 49.3986L19.354 34.3925C19.4486 34.0249 19.8224 33.8027 20.1909 33.8973C20.5585 33.9919 20.7806 34.3666 20.6861 34.7342L16.8335 49.7404C16.7541 50.0509 16.4739 50.257 16.1679 50.257Z" fill="#222222"/>
<path d="M13.8543 49.5053C13.7705 49.5053 13.6848 49.4892 13.601 49.4571C13.2476 49.317 13.0745 48.9173 13.2146 48.564L18.9177 34.1592C19.0578 33.8058 19.4566 33.6337 19.8108 33.7728C20.1641 33.9129 20.3372 34.3126 20.1971 34.6659L14.4941 49.0708C14.387 49.3411 14.1283 49.5053 13.8543 49.5053Z" fill="#222222"/>
<path d="M11.6532 48.4698C11.5417 48.4698 11.4275 48.4421 11.3222 48.385C10.9894 48.2021 10.8681 47.7837 11.051 47.4509L18.5153 33.874C18.6982 33.5412 19.1166 33.4199 19.4494 33.6028C19.7822 33.7857 19.9036 34.2041 19.7207 34.5369L12.2564 48.1138C12.1315 48.3413 11.8959 48.4707 11.6532 48.4707V48.4698Z" fill="#222222"/>
<path d="M9.59936 47.1671C9.45929 47.1671 9.31742 47.1243 9.19608 47.036C8.88827 46.8129 8.82046 46.3829 9.04351 46.0751L18.1504 33.5412C18.3734 33.2334 18.8035 33.1656 19.1113 33.3886C19.4191 33.6117 19.4869 34.0417 19.2639 34.3496L10.157 46.8834C10.0223 47.069 9.8126 47.1671 9.60026 47.1671H9.59936Z" fill="#222222"/>
<path d="M7.72571 45.6164C7.55708 45.6164 7.38756 45.5548 7.25462 45.4299C6.97803 45.1703 6.96376 44.7349 7.22429 44.4574L17.8301 33.1637C18.0897 32.8871 18.5251 32.8728 18.8026 33.1334C19.0792 33.393 19.0934 33.8284 18.8329 34.1059L8.22714 45.3996C8.09152 45.5441 7.90862 45.6164 7.72571 45.6164Z" fill="#222222"/>
<path d="M6.06173 43.8435C5.86365 43.8435 5.66737 43.7587 5.53175 43.5936C5.28996 43.301 5.331 42.8674 5.62365 42.6256L17.5615 32.7496C17.8542 32.5079 18.2878 32.548 18.5296 32.8415C18.7714 33.1342 18.7303 33.5678 18.4377 33.8096L6.4998 43.6855C6.37132 43.7917 6.21608 43.8435 6.06173 43.8435Z" fill="#222222"/>
<path d="M4.63238 41.8762C4.40487 41.8762 4.18181 41.7629 4.05066 41.5568C3.84723 41.2356 3.94181 40.8109 4.26301 40.6075L17.3447 32.3054C17.6659 32.102 18.0906 32.1966 18.294 32.5178C18.4974 32.839 18.4029 33.2637 18.0817 33.4671L4.99998 41.7692C4.88577 41.8414 4.75819 41.8762 4.63238 41.8762Z" fill="#222222"/>
<path d="M3.46093 39.7446C3.20308 39.7446 2.95504 39.5983 2.83816 39.3494C2.67667 39.0059 2.82388 38.5963 3.16739 38.434L17.1859 31.8369C17.5294 31.6745 17.9389 31.8226 18.1013 32.1661C18.2628 32.5096 18.1156 32.9192 17.7721 33.0816L3.75357 39.6786C3.659 39.7232 3.55907 39.7446 3.46093 39.7446Z" fill="#222222"/>
<path d="M2.56513 37.4838C2.27516 37.4838 2.00571 37.2992 1.91113 37.0083C1.79336 36.6469 1.99143 36.2588 2.35278 36.1419L17.0877 31.3543C17.45 31.2365 17.8372 31.4346 17.9541 31.796C18.0719 32.1573 17.8738 32.5454 17.5124 32.6623L2.77748 37.4499C2.70699 37.4731 2.63561 37.4838 2.56513 37.4838Z" fill="#222222"/>
<path d="M1.95931 35.1273C1.63544 35.1273 1.34725 34.898 1.28479 34.5678C1.21342 34.1949 1.45878 33.8344 1.83172 33.7631L17.0503 30.8598C17.4223 30.7893 17.7837 31.0329 17.855 31.4067C17.9264 31.7797 17.6811 32.1401 17.3081 32.2115L2.08957 35.1148C2.04586 35.1228 2.00303 35.1273 1.9602 35.1273H1.95931Z" fill="#222222"/>
<path d="M1.65507 32.7149C1.29461 32.7149 0.992149 32.4347 0.968951 32.0698C0.944861 31.6906 1.23305 31.364 1.61224 31.3399L17.0744 30.3674C17.4527 30.3451 17.7801 30.6315 17.8042 31.0107C17.8283 31.3899 17.5401 31.7165 17.1609 31.7406L1.69878 32.7131C1.68451 32.714 1.66934 32.7149 1.65507 32.7149Z" fill="#222222"/>
<path d="M9.32031 29.8465L9.2916 30.3042L17.1037 30.7943L17.1324 30.3366L9.32031 29.8465Z" fill="white"/>
<path d="M9.34907 28.3576L9.26314 28.8081L17.136 30.3099L17.2219 29.8595L9.34907 28.3576Z" fill="white"/>
<path d="M9.37731 26.8002L9.2356 27.2363L17.2281 29.8332L17.3698 29.3971L9.37731 26.8002Z" fill="white"/>
<path d="M9.40434 25.1099L9.20908 25.5249L17.3806 29.3701L17.5758 28.9552L9.40434 25.1099Z" fill="white"/>
<path d="M9.42946 23.2051L9.18373 23.5923L17.5908 28.9276L17.8366 28.5404L9.42946 23.2051Z" fill="white"/>
<path d="M17.9987 29.0301C17.8443 29.0301 17.6891 28.9783 17.5606 28.8722L8.86864 21.6809C8.576 21.4391 8.53495 21.0055 8.77674 20.7128C9.01943 20.4202 9.45304 20.3791 9.74569 20.6209L18.4377 27.8122C18.7303 28.054 18.7714 28.4876 18.5296 28.7812C18.3939 28.9453 18.1968 29.0301 17.9996 29.0301H17.9987Z" fill="#222222"/>
<path d="M18.3324 28.6759C18.1495 28.6759 17.9666 28.6027 17.831 28.4591L8.8053 18.8472C8.54566 18.5707 8.55905 18.1353 8.83563 17.8747C9.11222 17.6151 9.54762 17.6285 9.80815 17.9051L18.8338 27.5169C19.0934 27.7935 19.0801 28.2289 18.8035 28.4894C18.6705 28.6143 18.5019 28.6759 18.3324 28.6759Z" fill="#222222"/>
<path d="M18.7071 28.3654C18.4948 28.3654 18.2851 28.2672 18.1504 28.0817L9.04351 15.5478C8.82046 15.24 8.88827 14.8099 9.19608 14.5869C9.503 14.3638 9.93394 14.4316 10.157 14.7394L19.2639 27.2733C19.4869 27.5802 19.4191 28.0112 19.1113 28.2342C18.9891 28.3226 18.8481 28.3654 18.708 28.3654H18.7071Z" fill="#222222"/>
<path d="M19.1184 28.1049C18.8757 28.1049 18.6402 27.9765 18.5153 27.748L11.0519 14.1712C10.869 13.8384 10.9903 13.4199 11.3231 13.237C11.6559 13.0541 12.0744 13.1755 12.2573 13.5083L19.7207 27.0851C19.9036 27.4179 19.7822 27.8364 19.4494 28.0193C19.3441 28.0773 19.2308 28.104 19.1184 28.104V28.1049Z" fill="#222222"/>
<path d="M19.5574 27.8978C19.2835 27.8978 19.0247 27.7327 18.9177 27.4632L13.2146 13.0584C13.0745 12.7051 13.2476 12.3054 13.601 12.1653C13.9543 12.0252 14.354 12.1983 14.4941 12.5516L20.1971 26.9565C20.3372 27.3098 20.1641 27.7095 19.8108 27.8496C19.7278 27.8826 19.6422 27.8978 19.5574 27.8978Z" fill="#222222"/>
<path d="M20.0196 27.7472C19.7126 27.7472 19.4334 27.5411 19.354 27.2306L15.5014 12.2244C15.4068 11.8568 15.629 11.4812 15.9966 11.3875C16.3642 11.2929 16.7398 11.5151 16.8335 11.8827L20.6861 26.8889C20.7806 27.2565 20.5585 27.6321 20.1909 27.7258C20.1338 27.741 20.0758 27.7472 20.0196 27.7472Z" fill="#222222"/>
<path d="M20.4969 27.6562C20.1552 27.6562 19.859 27.4019 19.8153 27.0548L17.8738 11.6837C17.8265 11.3072 18.0933 10.9628 18.4698 10.9146C18.8463 10.8673 19.1907 11.1341 19.2389 11.5106L21.1803 26.8817C21.2276 27.2582 20.9609 27.6026 20.5843 27.6508C20.5549 27.6544 20.5264 27.6562 20.4969 27.6562Z" fill="#222222"/>
<path d="M20.9832 27.6255C20.6031 27.6255 20.2953 27.3177 20.2953 26.9376V11.4442C20.2953 11.0642 20.6031 10.7563 20.9832 10.7563C21.3632 10.7563 21.6711 11.0642 21.6711 11.4442V26.9376C21.6711 27.3177 21.3632 27.6255 20.9832 27.6255Z" fill="#222222"/>
<path d="M21.4694 27.6562C21.4409 27.6562 21.4114 27.6544 21.382 27.6508C21.0046 27.6035 20.7378 27.2591 20.786 26.8817L22.7275 11.5106C22.7756 11.1341 23.1191 10.8673 23.4965 10.9146C23.874 10.9619 24.1407 11.3063 24.0925 11.6837L22.1511 27.0548C22.1074 27.4028 21.8111 27.6562 21.4694 27.6562Z" fill="#222222"/>
<path d="M21.9468 27.7472C21.8905 27.7472 21.8326 27.7401 21.7755 27.7258C21.4079 27.6312 21.1857 27.2565 21.2803 26.8889L25.1329 11.8827C25.2274 11.5151 25.6013 11.2929 25.9698 11.3875C26.3374 11.4821 26.5595 11.8568 26.4649 12.2244L22.6124 27.2306C22.5329 27.5411 22.2528 27.7472 21.9468 27.7472Z" fill="#222222"/>
<path d="M22.4089 27.8978C22.3251 27.8978 22.2394 27.8817 22.1555 27.8496C21.8022 27.7095 21.6291 27.3098 21.7692 26.9565L27.4723 12.5516C27.6123 12.1983 28.0112 12.0252 28.3654 12.1653C28.7187 12.3054 28.8918 12.7051 28.7517 13.0584L23.0486 27.4632C22.9416 27.7336 22.6828 27.8978 22.4089 27.8978Z" fill="#222222"/>
<path d="M22.8488 28.105C22.7373 28.105 22.6231 28.0774 22.5178 28.0203C22.185 27.8374 22.0636 27.4189 22.2465 27.0861L29.7108 13.5092C29.8937 13.1764 30.3122 13.0551 30.645 13.238C30.9778 13.4209 31.0991 13.8394 30.9162 14.1722L23.4519 27.749C23.327 27.9765 23.0915 28.1059 22.8488 28.1059V28.105Z" fill="#222222"/>
<path d="M23.2592 28.3654C23.1191 28.3654 22.9773 28.3226 22.8559 28.2342C22.5481 28.0112 22.4803 27.5811 22.7034 27.2733L31.8102 14.7394C32.0333 14.4316 32.4633 14.3638 32.7711 14.5869C33.079 14.8099 33.1468 15.24 32.9237 15.5478L23.8168 28.0817C23.6821 28.2672 23.4725 28.3654 23.2601 28.3654H23.2592Z" fill="#222222"/>
<path d="M23.6348 28.675C23.4662 28.675 23.2967 28.6134 23.1637 28.4885C22.8872 28.2289 22.8729 27.7935 23.1334 27.516L33.7392 16.2223C33.9988 15.9457 34.4342 15.9314 34.7117 16.192C34.9883 16.4516 35.0026 16.887 34.742 17.1645L24.1363 28.4582C24.0006 28.6027 23.8177 28.675 23.6348 28.675Z" fill="#222222"/>
<path d="M23.9685 29.03C23.7705 29.03 23.5742 28.9452 23.4385 28.7802C23.1968 28.4875 23.2378 28.0539 23.5304 27.8121L35.4683 17.9362C35.761 17.6944 36.1946 17.7345 36.4364 18.0281C36.6782 18.3207 36.6371 18.7543 36.3445 18.9961L24.4066 28.8721C24.2781 28.9782 24.1229 29.03 23.9685 29.03Z" fill="#222222"/>
<path d="M24.254 29.4237C24.0265 29.4237 23.8035 29.3104 23.6723 29.1043C23.4689 28.7831 23.5635 28.3584 23.8846 28.1549L36.9654 19.8538C37.2866 19.6503 37.7113 19.7449 37.9148 20.0661C38.1182 20.3873 38.0236 20.812 37.7024 21.0154L24.6216 29.3166C24.5074 29.3889 24.3798 29.4237 24.254 29.4237Z" fill="#222222"/>
<path d="M24.4887 29.8501C24.2308 29.8501 23.9828 29.7038 23.8659 29.4548C23.7044 29.1113 23.8516 28.7018 24.1951 28.5394L38.2136 21.9424C38.5571 21.78 38.9667 21.9281 39.1291 22.2716C39.2905 22.6151 39.1433 23.0255 38.7998 23.187L24.7813 29.7832C24.6867 29.8278 24.5868 29.8492 24.4887 29.8492V29.8501Z" fill="#222222"/>
<path d="M24.6671 30.3024C24.3772 30.3024 24.1077 30.1177 24.0131 29.8268C23.8954 29.4654 24.0934 29.0773 24.4548 28.9605L39.1897 24.1728C39.5511 24.0559 39.9392 24.2531 40.0561 24.6145C40.1739 24.9758 39.9758 25.3639 39.6144 25.4808L24.8795 30.2684C24.809 30.2916 24.7376 30.3024 24.6671 30.3024Z" fill="#222222"/>
<path d="M24.7876 30.7733C24.4637 30.7733 24.1755 30.544 24.1131 30.2138C24.0417 29.8409 24.287 29.4804 24.66 29.4091L39.8785 26.5058C40.2506 26.4353 40.6119 26.6789 40.6833 27.0527C40.7547 27.4257 40.5093 27.7861 40.1364 27.8575L24.9178 30.7608C24.8741 30.7688 24.8313 30.7733 24.7885 30.7733H24.7876Z" fill="#222222"/>
<path d="M24.8482 31.2555C24.4878 31.2555 24.1853 30.9753 24.1621 30.6104C24.138 30.2312 24.4262 29.9047 24.8054 29.8806L40.2675 28.908C40.6449 28.8849 40.9733 29.1721 40.9974 29.5513C41.0215 29.9305 40.7333 30.2571 40.3541 30.2812L24.892 31.2537C24.8777 31.2546 24.8625 31.2555 24.8482 31.2555Z" fill="#222222"/>
<path d="M40.3122 32.7149C40.2979 32.7149 40.2827 32.7149 40.2684 32.7131L24.8063 31.7406C24.4271 31.7165 24.1389 31.3899 24.163 31.0107C24.1871 30.6315 24.5128 30.3451 24.8929 30.3674L40.355 31.3399C40.7342 31.364 41.0224 31.6906 40.9983 32.0698C40.9751 32.4338 40.6726 32.7149 40.3122 32.7149Z" fill="#222222"/>
<path d="M40.0079 35.1275C39.9651 35.1275 39.9222 35.123 39.8785 35.115L24.66 32.2117C24.287 32.1403 24.0417 31.7808 24.1131 31.4069C24.1844 31.034 24.544 30.7886 24.9178 30.86L40.1364 33.7633C40.5093 33.8347 40.7547 34.1942 40.6833 34.5681C40.6209 34.8973 40.3318 35.1275 40.0088 35.1275H40.0079Z" fill="#222222"/>
<path d="M39.4021 37.4838C39.3316 37.4838 39.2602 37.4731 39.1897 37.4499L24.4548 32.6623C24.0934 32.5445 23.8954 32.1573 24.0131 31.796C24.1309 31.4346 24.5181 31.2365 24.8795 31.3543L39.6144 36.1419C39.9758 36.2597 40.1739 36.6469 40.0561 37.0083C39.9615 37.2992 39.6921 37.4838 39.4021 37.4838Z" fill="#222222"/>
<path d="M38.5063 39.7448C38.4081 39.7448 38.3082 39.7234 38.2136 39.6788L24.1951 33.0826C23.8516 32.9211 23.7035 32.5107 23.8659 32.1672C24.0274 31.8237 24.4378 31.6765 24.7813 31.838L38.7998 38.4341C39.1433 38.5956 39.2914 39.0061 39.1291 39.3496C39.0122 39.5985 38.7641 39.7448 38.5063 39.7448Z" fill="#222222"/>
<path d="M37.3339 41.8763C37.2081 41.8763 37.0805 41.8415 36.9663 41.7692L23.8855 33.4681C23.5643 33.2646 23.4698 32.839 23.6732 32.5187C23.8766 32.1975 24.3013 32.103 24.6225 32.3064L37.7033 40.6076C38.0245 40.811 38.1191 41.2366 37.9156 41.5569C37.7845 41.763 37.5614 41.8763 37.3339 41.8763Z" fill="#222222"/>
<path d="M35.9046 43.8437C35.7502 43.8437 35.595 43.7919 35.4665 43.6857L23.5287 33.8098C23.236 33.568 23.195 33.1344 23.4368 32.8417C23.6794 32.5491 24.1122 32.5081 24.4048 32.7498L36.3427 42.6258C36.6353 42.8676 36.6764 43.3012 36.4346 43.5938C36.299 43.758 36.1018 43.8437 35.9046 43.8437Z" fill="#222222"/>
<path d="M34.2406 45.6165C34.0577 45.6165 33.8748 45.5434 33.7392 45.3997L23.1334 34.106C22.8738 33.8294 22.8872 33.394 23.1637 33.1335C23.4403 32.8739 23.8757 32.8873 24.1363 33.1639L34.742 44.4575C35.0017 44.7341 34.9883 45.1695 34.7117 45.43C34.5788 45.555 34.4101 45.6165 34.2406 45.6165Z" fill="#222222"/>
<path d="M32.367 47.1662C32.1546 47.1662 31.9449 47.068 31.8102 46.8824L22.7034 34.3486C22.4803 34.0417 22.5481 33.6107 22.8559 33.3877C23.1629 33.1646 23.5938 33.2324 23.8168 33.5402L32.9237 46.0741C33.1468 46.381 33.079 46.812 32.7711 47.035C32.6489 47.1233 32.5079 47.1662 32.3679 47.1662H32.367Z" fill="#222222"/>
<path d="M30.314 48.4697C30.0713 48.4697 29.8357 48.3412 29.7108 48.1128L22.2474 34.5359C22.0645 34.2031 22.1859 33.7847 22.5187 33.6018C22.8515 33.4189 23.2699 33.5402 23.4528 33.873L30.9162 47.4499C31.0991 47.7827 30.9778 48.2011 30.645 48.384C30.5397 48.442 30.4264 48.4688 30.314 48.4688V48.4697Z" fill="#222222"/>
<path d="M28.1129 49.5053C27.839 49.5053 27.5802 49.3402 27.4731 49.0708L21.7701 34.6659C21.63 34.3126 21.8031 33.9129 22.1564 33.7728C22.5097 33.6337 22.9095 33.8058 23.0495 34.1592L28.7526 48.564C28.8927 48.9173 28.7196 49.317 28.3663 49.4571C28.2833 49.4901 28.1976 49.5053 28.1129 49.5053Z" fill="#222222"/>
<path d="M25.7994 50.257C25.4924 50.257 25.2132 50.0509 25.1338 49.7404L21.2812 34.7342C21.1866 34.3666 21.4088 33.991 21.7764 33.8973C22.1439 33.8027 22.5196 34.0249 22.6133 34.3925L26.4658 49.3986C26.5604 49.7662 26.3383 50.1419 25.9707 50.2355C25.9136 50.2507 25.8556 50.257 25.7994 50.257Z" fill="#222222"/>
<path d="M23.41 50.7128C23.0683 50.7128 22.772 50.4585 22.7283 50.1115L20.7869 34.7403C20.7396 34.3638 21.0063 34.0194 21.3829 33.9713C21.7594 33.924 22.1038 34.1907 22.152 34.5673L24.0934 49.9384C24.1407 50.3149 23.8739 50.6593 23.4974 50.7075C23.468 50.711 23.4394 50.7128 23.41 50.7128Z" fill="#222222"/>
<path d="M28.4046 34.6708C32.5512 34.6708 35.9126 31.2031 35.9126 26.9255C35.9126 22.6479 32.5512 19.1802 28.4046 19.1802C24.2581 19.1802 20.8966 22.6479 20.8966 26.9255C20.8966 31.2031 24.2581 34.6708 28.4046 34.6708Z" fill="white"/>
<path d="M15.0928 34.6708C19.2393 34.6708 22.6008 31.2031 22.6008 26.9255C22.6008 22.6479 19.2393 19.1802 15.0928 19.1802C10.9462 19.1802 7.58475 22.6479 7.58475 26.9255C7.58475 31.2031 10.9462 34.6708 15.0928 34.6708Z" fill="white"/>
<path d="M21.7701 45.0955C26.2207 45.0955 29.8286 41.4876 29.8286 37.037C29.8286 32.5864 26.2207 28.9785 21.7701 28.9785C17.3195 28.9785 13.7116 32.5864 13.7116 37.037C13.7116 41.4876 17.3195 45.0955 21.7701 45.0955Z" fill="white"/>
<path d="M16.7772 33.1309C14.9518 33.2888 13.4118 32.7784 12.1333 31.549C11.1152 30.5711 10.5478 29.3586 10.4238 27.9614C10.1882 25.2981 11.837 22.8293 14.3852 22.0353C15.8645 21.574 17.3081 21.6855 18.6919 22.3868C20.0704 23.0854 20.9921 24.1989 21.5542 25.7237C22.1921 24.0035 23.2842 22.8106 24.9116 22.1611C26.1732 21.6578 27.4678 21.6266 28.7642 22.046C31.2838 22.8597 32.9763 25.4123 32.6908 27.9614C32.5142 29.5459 31.8405 30.8709 30.6013 31.8835C29.3789 32.881 27.963 33.2781 26.3311 33.1273C27.226 34.6262 27.4981 36.1644 27.0467 37.798C26.7041 39.0373 26.0081 40.0446 24.9847 40.8218C22.9701 42.351 20.1373 42.3528 18.1236 40.8218C16.9396 39.9215 16.2062 38.7331 15.9395 37.2699C15.6727 35.8084 15.985 34.4487 16.7764 33.1309H16.7772ZM19.2023 26.9924C19.3495 27.6758 19.3067 28.2683 18.6786 28.6073C18.1691 28.8821 17.8327 28.5226 17.4982 28.0925C17.3724 28.8973 17.4384 29.5834 17.9157 30.1776C18.3556 30.7246 19.0042 30.7237 19.4521 30.1758C19.8831 29.6485 19.999 29.0284 19.9134 28.3673C19.8465 27.8472 19.6841 27.3698 19.2014 26.9933L19.2023 26.9924ZM23.2387 28.113C23.0852 28.8964 23.178 29.5816 23.6553 30.1741C24.1068 30.7344 24.7911 30.7299 25.2132 30.1464C25.7842 29.3568 25.8127 28.4913 25.43 27.6143C25.3345 27.3957 25.1534 27.2137 25.0115 27.0147C25.0909 27.807 24.9062 28.3646 24.4342 28.6064C24.0345 28.8107 23.7392 28.6956 23.2396 28.1121L23.2387 28.113ZM26.1973 36.7292C26.0661 36.5704 25.9564 36.3063 25.8002 36.2759C25.5174 36.2206 25.4674 36.4981 25.4487 36.7318C25.4451 36.7738 25.4371 36.8148 25.4318 36.8568C25.2488 38.2923 23.8579 39.6753 22.4268 39.8269C22.1885 39.8519 21.9878 39.9126 21.9994 40.1713C22.0119 40.4524 22.2323 40.5131 22.4857 40.4988C24.1934 40.4015 26.0188 38.5404 26.1973 36.7283V36.7292ZM19.7894 33.6019C20.0187 33.8125 20.2872 34.0418 20.5344 34.2907C20.7173 34.4745 20.9002 34.5673 21.1054 34.3559C21.2945 34.1614 21.2151 33.9785 21.0331 33.8179C20.6789 33.5065 20.0999 33.4387 19.7894 33.6011V33.6019ZM23.3484 33.5841C22.9541 33.4547 22.5026 33.4824 22.1091 33.8089C22.0039 33.8964 21.9459 34.0891 21.9432 34.2354C21.9414 34.3122 22.1118 34.4629 22.193 34.4549C22.3224 34.4424 22.4535 34.3407 22.5642 34.2515C22.8292 34.0382 23.0834 33.8116 23.3484 33.5841Z" fill="#222222"/>
<path d="M48.8141 43.6841V38.5742H51.898V39.1231H49.4328V40.8497H51.7383V41.3986H49.4328V43.1352H51.9379V43.6841H48.8141ZM55.3486 42.1172V39.8517H55.9375V43.6841H55.3486V43.0354H55.3087C55.2189 43.23 55.0792 43.3955 54.8895 43.5319C54.6999 43.6666 54.4604 43.734 54.171 43.734C53.9314 43.734 53.7185 43.6816 53.5322 43.5768C53.3459 43.4703 53.1996 43.3107 53.0931 43.0977C52.9866 42.8832 52.9334 42.6129 52.9334 42.2868V39.8517H53.5222V42.2469C53.5222 42.5264 53.6004 42.7493 53.7568 42.9156C53.9148 43.0819 54.1161 43.1651 54.3606 43.1651C54.507 43.1651 54.6558 43.1277 54.8072 43.0528C54.9602 42.978 55.0883 42.8632 55.1914 42.7085C55.2962 42.5538 55.3486 42.3567 55.3486 42.1172ZM57.016 43.6841V39.8517H57.5848V40.4305H57.6248C57.6946 40.2409 57.821 40.087 58.004 39.9689C58.187 39.8508 58.3932 39.7918 58.6228 39.7918C58.666 39.7918 58.7201 39.7926 58.785 39.7943C58.8498 39.7959 58.8989 39.7984 58.9322 39.8018V40.4006C58.9122 40.3956 58.8665 40.3881 58.7949 40.3781C58.7251 40.3665 58.6511 40.3607 58.5729 40.3607C58.3866 40.3607 58.2202 40.3997 58.0739 40.4779C57.9292 40.5544 57.8144 40.6609 57.7295 40.7973C57.6464 40.932 57.6048 41.0859 57.6048 41.2589V43.6841H57.016ZM61.0704 43.7639C60.7245 43.7639 60.4209 43.6816 60.1597 43.5169C59.9003 43.3522 59.6973 43.1219 59.5509 42.8258C59.4062 42.5297 59.3339 42.1837 59.3339 41.7878C59.3339 41.3886 59.4062 41.0401 59.5509 40.7424C59.6973 40.4447 59.9003 40.2134 60.1597 40.0488C60.4209 39.8841 60.7245 39.8018 61.0704 39.8018C61.4164 39.8018 61.7192 39.8841 61.9786 40.0488C62.2398 40.2134 62.4427 40.4447 62.5874 40.7424C62.7338 41.0401 62.807 41.3886 62.807 41.7878C62.807 42.1837 62.7338 42.5297 62.5874 42.8258C62.4427 43.1219 62.2398 43.3522 61.9786 43.5169C61.7192 43.6816 61.4164 43.7639 61.0704 43.7639ZM61.0704 43.235C61.3333 43.235 61.5495 43.1676 61.7192 43.0329C61.8888 42.8981 62.0144 42.721 62.0959 42.5014C62.1774 42.2819 62.2182 42.044 62.2182 41.7878C62.2182 41.5317 62.1774 41.293 62.0959 41.0717C62.0144 40.8505 61.8888 40.6717 61.7192 40.5353C61.5495 40.3989 61.3333 40.3307 61.0704 40.3307C60.8076 40.3307 60.5914 40.3989 60.4217 40.5353C60.2521 40.6717 60.1265 40.8505 60.045 41.0717C59.9635 41.293 59.9227 41.5317 59.9227 41.7878C59.9227 42.044 59.9635 42.2819 60.045 42.5014C60.1265 42.721 60.2521 42.8981 60.4217 43.0329C60.5914 43.1676 60.8076 43.235 61.0704 43.235ZM63.7059 45.1212V39.8517H64.2747V40.4605H64.3446C64.3878 40.3939 64.4477 40.3091 64.5242 40.206C64.6024 40.1012 64.7139 40.008 64.8586 39.9265C65.005 39.8433 65.2029 39.8018 65.4524 39.8018C65.7751 39.8018 66.0595 39.8824 66.3057 40.0438C66.5519 40.2051 66.744 40.4338 66.8821 40.7299C67.0201 41.026 67.0892 41.3753 67.0892 41.7779C67.0892 42.1837 67.0201 42.5355 66.8821 42.8333C66.744 43.1293 66.5527 43.3589 66.3082 43.5219C66.0637 43.6833 65.7817 43.7639 65.4624 43.7639C65.2162 43.7639 65.0191 43.7232 64.8711 43.6417C64.723 43.5585 64.6091 43.4645 64.5292 43.3597C64.4494 43.2533 64.3878 43.1651 64.3446 43.0952H64.2947V45.1212H63.7059ZM64.2847 41.7679C64.2847 42.0573 64.3271 42.3126 64.412 42.5339C64.4968 42.7534 64.6207 42.9256 64.7837 43.0503C64.9467 43.1734 65.1463 43.235 65.3825 43.235C65.6287 43.235 65.8341 43.1701 65.9988 43.0404C66.1652 42.9089 66.2899 42.7326 66.3731 42.5114C66.4579 42.2885 66.5003 42.0407 66.5003 41.7679C66.5003 41.4984 66.4587 41.2556 66.3756 41.0393C66.2941 40.8214 66.1701 40.6493 66.0038 40.5228C65.8391 40.3948 65.632 40.3307 65.3825 40.3307C65.143 40.3307 64.9417 40.3914 64.7787 40.5129C64.6157 40.6326 64.4926 40.8006 64.4095 41.0169C64.3263 41.2314 64.2847 41.4818 64.2847 41.7679ZM69.5942 43.7639C69.2249 43.7639 68.9064 43.6824 68.6386 43.5194C68.3725 43.3547 68.167 43.1252 68.0223 42.8308C67.8793 42.5347 67.8077 42.1904 67.8077 41.7978C67.8077 41.4053 67.8793 41.0593 68.0223 40.7599C68.167 40.4588 68.3683 40.2243 68.6261 40.0563C68.8856 39.8866 69.1883 39.8018 69.5343 39.8018C69.7339 39.8018 69.931 39.835 70.1257 39.9016C70.3203 39.9681 70.4974 40.0762 70.6571 40.2259C70.8168 40.374 70.944 40.5702 71.0389 40.8148C71.1337 41.0593 71.1811 41.3603 71.1811 41.718V41.9675H68.2269V41.4585H70.5823C70.5823 41.2422 70.539 41.0493 70.4525 40.8796C70.3677 40.71 70.2463 40.5761 70.0882 40.4779C69.9319 40.3798 69.7472 40.3307 69.5343 40.3307C69.2998 40.3307 69.0969 40.3889 68.9255 40.5054C68.7559 40.6201 68.6253 40.7698 68.5338 40.9545C68.4423 41.1391 68.3966 41.3371 68.3966 41.5483V41.8876C68.3966 42.1771 68.4465 42.4224 68.5463 42.6237C68.6477 42.8233 68.7883 42.9755 68.9679 43.0803C69.1476 43.1834 69.3563 43.235 69.5942 43.235C69.7489 43.235 69.8886 43.2133 70.0134 43.1701C70.1398 43.1252 70.2487 43.0587 70.3402 42.9705C70.4317 42.8807 70.5024 42.7692 70.5523 42.6362L71.1212 42.7958C71.0613 42.9888 70.9607 43.1585 70.8193 43.3048C70.6779 43.4495 70.5032 43.5627 70.2953 43.6442C70.0874 43.724 69.8537 43.7639 69.5942 43.7639ZM73.2046 43.7739C72.9617 43.7739 72.7413 43.7282 72.5434 43.6367C72.3454 43.5435 72.1882 43.4096 72.0718 43.235C71.9554 43.0587 71.8972 42.8457 71.8972 42.5962C71.8972 42.3767 71.9404 42.1987 72.0269 42.0623C72.1134 41.9242 72.229 41.8161 72.3737 41.7379C72.5184 41.6598 72.6781 41.6015 72.8528 41.5633C73.0291 41.5234 73.2062 41.4918 73.3842 41.4685C73.6171 41.4385 73.8059 41.4161 73.9506 41.4011C74.097 41.3845 74.2034 41.357 74.27 41.3188C74.3382 41.2805 74.3723 41.214 74.3723 41.1192V41.0992C74.3723 40.853 74.3049 40.6617 74.1702 40.5253C74.0371 40.3889 73.835 40.3207 73.5639 40.3207C73.2827 40.3207 73.0623 40.3823 72.9027 40.5054C72.743 40.6285 72.6307 40.7599 72.5658 40.8996L72.0069 40.7C72.1067 40.4671 72.2398 40.2858 72.4061 40.1561C72.5741 40.0247 72.7571 39.9332 72.9551 39.8816C73.1547 39.8284 73.3509 39.8018 73.5439 39.8018C73.667 39.8018 73.8084 39.8167 73.9681 39.8467C74.1294 39.8749 74.2849 39.934 74.4346 40.0238C74.586 40.1136 74.7116 40.2492 74.8114 40.4305C74.9112 40.6118 74.9611 40.8547 74.9611 41.1591V43.6841H74.3723V43.1651H74.3423C74.3024 43.2483 74.2359 43.3373 74.1427 43.4321C74.0496 43.5269 73.9256 43.6076 73.7709 43.6741C73.6163 43.7406 73.4275 43.7739 73.2046 43.7739ZM73.2944 43.245C73.5273 43.245 73.7235 43.1992 73.8832 43.1077C74.0446 43.0162 74.166 42.8981 74.2475 42.7534C74.3307 42.6087 74.3723 42.4565 74.3723 42.2968V41.7579C74.3473 41.7878 74.2924 41.8153 74.2076 41.8402C74.1244 41.8635 74.0279 41.8843 73.9182 41.9026C73.81 41.9192 73.7044 41.9342 73.6013 41.9475C73.4998 41.9592 73.4175 41.9691 73.3543 41.9775C73.2012 41.9974 73.0582 42.0299 72.9251 42.0748C72.7937 42.118 72.6873 42.1837 72.6058 42.2719C72.5259 42.3584 72.486 42.4765 72.486 42.6262C72.486 42.8308 72.5617 42.9855 72.713 43.0903C72.8661 43.1934 73.0599 43.245 73.2944 43.245ZM76.6247 41.3786V43.6841H76.0358V39.8517H76.6047V40.4505H76.6546C76.7444 40.2559 76.8808 40.0995 77.0638 39.9814C77.2468 39.8616 77.483 39.8018 77.7724 39.8018C78.0319 39.8018 78.2589 39.855 78.4536 39.9614C78.6482 40.0662 78.7995 40.2259 78.9077 40.4405C79.0158 40.6534 79.0698 40.9229 79.0698 41.2489V43.6841H78.481V41.2888C78.481 40.9877 78.4028 40.7532 78.2465 40.5852C78.0901 40.4155 77.8755 40.3307 77.6027 40.3307C77.4148 40.3307 77.2468 40.3715 77.0987 40.453C76.9524 40.5345 76.8368 40.6534 76.7519 40.8098C76.6671 40.9661 76.6247 41.1557 76.6247 41.3786ZM86.3136 40.171H85.6949C85.6583 39.993 85.5942 39.8367 85.5027 39.702C85.4129 39.5672 85.3031 39.4541 85.1734 39.3626C85.0453 39.2695 84.9031 39.1996 84.7467 39.153C84.5904 39.1065 84.4274 39.0832 84.2577 39.0832C83.9483 39.0832 83.668 39.1614 83.4169 39.3177C83.1674 39.4741 82.9686 39.7045 82.8205 40.0089C82.6742 40.3132 82.601 40.6867 82.601 41.1291C82.601 41.5716 82.6742 41.945 82.8205 42.2494C82.9686 42.5538 83.1674 42.7842 83.4169 42.9406C83.668 43.0969 83.9483 43.1751 84.2577 43.1751C84.4274 43.1751 84.5904 43.1518 84.7467 43.1052C84.9031 43.0587 85.0453 42.9896 85.1734 42.8981C85.3031 42.805 85.4129 42.691 85.5027 42.5563C85.5942 42.4199 85.6583 42.2636 85.6949 42.0872H86.3136C86.2671 42.3484 86.1822 42.5821 86.0591 42.7884C85.9361 42.9946 85.783 43.1701 85.6001 43.3148C85.4171 43.4579 85.2117 43.5668 84.9838 43.6417C84.7576 43.7165 84.5155 43.7539 84.2577 43.7539C83.8219 43.7539 83.4343 43.6475 83.095 43.4346C82.7557 43.2217 82.4887 42.9189 82.2941 42.5264C82.0995 42.1338 82.0022 41.6681 82.0022 41.1291C82.0022 40.5902 82.0995 40.1245 82.2941 39.7319C82.4887 39.3393 82.7557 39.0366 83.095 38.8237C83.4343 38.6108 83.8219 38.5043 84.2577 38.5043C84.5155 38.5043 84.7576 38.5418 84.9838 38.6166C85.2117 38.6915 85.4171 38.8012 85.6001 38.946C85.783 39.089 85.9361 39.2637 86.0591 39.4699C86.1822 39.6745 86.2671 39.9082 86.3136 40.171ZM88.7906 43.7639C88.4446 43.7639 88.1411 43.6816 87.8799 43.5169C87.6204 43.3522 87.4175 43.1219 87.2711 42.8258C87.1264 42.5297 87.0541 42.1837 87.0541 41.7878C87.0541 41.3886 87.1264 41.0401 87.2711 40.7424C87.4175 40.4447 87.6204 40.2134 87.8799 40.0488C88.1411 39.8841 88.4446 39.8018 88.7906 39.8018C89.1366 39.8018 89.4393 39.8841 89.6988 40.0488C89.96 40.2134 90.1629 40.4447 90.3076 40.7424C90.454 41.0401 90.5272 41.3886 90.5272 41.7878C90.5272 42.1837 90.454 42.5297 90.3076 42.8258C90.1629 43.1219 89.96 43.3522 89.6988 43.5169C89.4393 43.6816 89.1366 43.7639 88.7906 43.7639ZM88.7906 43.235C89.0534 43.235 89.2697 43.1676 89.4393 43.0329C89.609 42.8981 89.7346 42.721 89.8161 42.5014C89.8976 42.2819 89.9383 42.044 89.9383 41.7878C89.9383 41.5317 89.8976 41.293 89.8161 41.0717C89.7346 40.8505 89.609 40.6717 89.4393 40.5353C89.2697 40.3989 89.0534 40.3307 88.7906 40.3307C88.5278 40.3307 88.3116 40.3989 88.1419 40.5353C87.9722 40.6717 87.8467 40.8505 87.7651 41.0717C87.6836 41.293 87.6429 41.5317 87.6429 41.7878C87.6429 42.044 87.6836 42.2819 87.7651 42.5014C87.8467 42.721 87.9722 42.8981 88.1419 43.0329C88.3116 43.1676 88.5278 43.235 88.7906 43.235ZM92.0149 41.3786V43.6841H91.426V39.8517H91.9949V40.4505H92.0448C92.1346 40.2559 92.271 40.0995 92.454 39.9814C92.637 39.8616 92.8732 39.8018 93.1626 39.8018C93.4221 39.8018 93.6491 39.855 93.8437 39.9614C94.0384 40.0662 94.1897 40.2259 94.2979 40.4405C94.406 40.6534 94.46 40.9229 94.46 41.2489V43.6841H93.8712V41.2888C93.8712 40.9877 93.793 40.7532 93.6367 40.5852C93.4803 40.4155 93.2657 40.3307 92.9929 40.3307C92.805 40.3307 92.637 40.3715 92.4889 40.453C92.3426 40.5345 92.2269 40.6534 92.1421 40.8098C92.0573 40.9661 92.0149 41.1557 92.0149 41.3786ZM97.2027 39.8517V40.3507H95.2167V39.8517H97.2027ZM95.7955 38.9335H96.3843V42.5863C96.3843 42.7526 96.4085 42.8773 96.4567 42.9605C96.5066 43.042 96.5698 43.0969 96.6463 43.1252C96.7245 43.1518 96.8068 43.1651 96.8933 43.1651C96.9582 43.1651 97.0114 43.1618 97.053 43.1551C97.0946 43.1468 97.1279 43.1402 97.1528 43.1352L97.2726 43.6641C97.2327 43.6791 97.1769 43.6941 97.1054 43.709C97.0339 43.7257 96.9432 43.734 96.8335 43.734C96.6671 43.734 96.5041 43.6982 96.3444 43.6267C96.1864 43.5552 96.055 43.4462 95.9502 43.2998C95.8471 43.1535 95.7955 42.9688 95.7955 42.7459V38.9335ZM99.6541 43.7639C99.2849 43.7639 98.9663 43.6824 98.6985 43.5194C98.4324 43.3547 98.227 43.1252 98.0822 42.8308C97.9392 42.5347 97.8677 42.1904 97.8677 41.7978C97.8677 41.4053 97.9392 41.0593 98.0822 40.7599C98.227 40.4588 98.4282 40.2243 98.686 40.0563C98.9455 39.8866 99.2483 39.8018 99.5942 39.8018C99.7939 39.8018 99.991 39.835 100.186 39.9016C100.38 39.9681 100.557 40.0762 100.717 40.2259C100.877 40.374 101.004 40.5702 101.099 40.8148C101.194 41.0593 101.241 41.3603 101.241 41.718V41.9675H98.2868V41.4585H100.642C100.642 41.2422 100.599 41.0493 100.512 40.8796C100.428 40.71 100.306 40.5761 100.148 40.4779C99.9918 40.3798 99.8072 40.3307 99.5942 40.3307C99.3597 40.3307 99.1568 40.3889 98.9855 40.5054C98.8158 40.6201 98.6852 40.7698 98.5937 40.9545C98.5022 41.1391 98.4565 41.3371 98.4565 41.5483V41.8876C98.4565 42.1771 98.5064 42.4224 98.6062 42.6237C98.7077 42.8233 98.8482 42.9755 99.0279 43.0803C99.2075 43.1834 99.4163 43.235 99.6541 43.235C99.8088 43.235 99.9485 43.2133 100.073 43.1701C100.2 43.1252 100.309 43.0587 100.4 42.9705C100.492 42.8807 100.562 42.7692 100.612 42.6362L101.181 42.7958C101.121 42.9888 101.021 43.1585 100.879 43.3048C100.738 43.4495 100.563 43.5627 100.355 43.6442C100.147 43.724 99.9136 43.7639 99.6541 43.7639ZM102.137 43.6841V39.8517H102.706V40.4505H102.755C102.835 40.2459 102.964 40.087 103.142 39.9739C103.32 39.8591 103.534 39.8018 103.783 39.8018C104.036 39.8018 104.247 39.8591 104.415 39.9739C104.584 40.087 104.717 40.2459 104.811 40.4505H104.851C104.949 40.2525 105.097 40.0953 105.293 39.9789C105.489 39.8608 105.725 39.8018 105.999 39.8018C106.342 39.8018 106.622 39.909 106.84 40.1236C107.058 40.3365 107.167 40.6684 107.167 41.1192V43.6841H106.578V41.1192C106.578 40.8364 106.501 40.6343 106.346 40.5129C106.191 40.3914 106.009 40.3307 105.799 40.3307C105.53 40.3307 105.321 40.4122 105.173 40.5752C105.025 40.7366 104.951 40.9412 104.951 41.189V43.6841H104.352V41.0593C104.352 40.8414 104.282 40.6659 104.14 40.5328C103.999 40.3981 103.817 40.3307 103.594 40.3307C103.441 40.3307 103.298 40.3715 103.165 40.453C103.033 40.5345 102.927 40.6476 102.845 40.7923C102.765 40.9354 102.726 41.1009 102.726 41.2888V43.6841H102.137ZM108.243 45.1212V39.8517H108.812V40.4605H108.882C108.925 40.3939 108.985 40.3091 109.062 40.206C109.14 40.1012 109.251 40.008 109.396 39.9265C109.542 39.8433 109.74 39.8018 109.99 39.8018C110.313 39.8018 110.597 39.8824 110.843 40.0438C111.089 40.2051 111.282 40.4338 111.42 40.7299C111.558 41.026 111.627 41.3753 111.627 41.7779C111.627 42.1837 111.558 42.5355 111.42 42.8333C111.282 43.1293 111.09 43.3589 110.846 43.5219C110.601 43.6833 110.319 43.7639 110 43.7639C109.754 43.7639 109.557 43.7232 109.409 43.6417C109.261 43.5585 109.147 43.4645 109.067 43.3597C108.987 43.2533 108.925 43.1651 108.882 43.0952H108.832V45.1212H108.243ZM108.822 41.7679C108.822 42.0573 108.865 42.3126 108.949 42.5339C109.034 42.7534 109.158 42.9256 109.321 43.0503C109.484 43.1734 109.684 43.235 109.92 43.235C110.166 43.235 110.372 43.1701 110.536 43.0404C110.703 42.9089 110.827 42.7326 110.911 42.5114C110.995 42.2885 111.038 42.0407 111.038 41.7679C111.038 41.4984 110.996 41.2556 110.913 41.0393C110.832 40.8214 110.708 40.6493 110.541 40.5228C110.377 40.3948 110.17 40.3307 109.92 40.3307C109.681 40.3307 109.479 40.3914 109.316 40.5129C109.153 40.6326 109.03 40.8006 108.947 41.0169C108.864 41.2314 108.822 41.4818 108.822 41.7679ZM114.082 43.7639C113.736 43.7639 113.432 43.6816 113.171 43.5169C112.912 43.3522 112.709 43.1219 112.562 42.8258C112.418 42.5297 112.345 42.1837 112.345 41.7878C112.345 41.3886 112.418 41.0401 112.562 40.7424C112.709 40.4447 112.912 40.2134 113.171 40.0488C113.432 39.8841 113.736 39.8018 114.082 39.8018C114.428 39.8018 114.731 39.8841 114.99 40.0488C115.251 40.2134 115.454 40.4447 115.599 40.7424C115.745 41.0401 115.818 41.3886 115.818 41.7878C115.818 42.1837 115.745 42.5297 115.599 42.8258C115.454 43.1219 115.251 43.3522 114.99 43.5169C114.731 43.6816 114.428 43.7639 114.082 43.7639ZM114.082 43.235C114.345 43.235 114.561 43.1676 114.731 43.0329C114.9 42.8981 115.026 42.721 115.107 42.5014C115.189 42.2819 115.23 42.044 115.23 41.7878C115.23 41.5317 115.189 41.293 115.107 41.0717C115.026 40.8505 114.9 40.6717 114.731 40.5353C114.561 40.3989 114.345 40.3307 114.082 40.3307C113.819 40.3307 113.603 40.3989 113.433 40.5353C113.263 40.6717 113.138 40.8505 113.056 41.0717C112.975 41.293 112.934 41.5317 112.934 41.7878C112.934 42.044 112.975 42.2819 113.056 42.5014C113.138 42.721 113.263 42.8981 113.433 43.0329C113.603 43.1676 113.819 43.235 114.082 43.235ZM116.717 43.6841V39.8517H117.286V40.4305H117.326C117.396 40.2409 117.522 40.087 117.705 39.9689C117.888 39.8508 118.095 39.7918 118.324 39.7918C118.367 39.7918 118.421 39.7926 118.486 39.7943C118.551 39.7959 118.6 39.7984 118.633 39.8018V40.4006C118.614 40.3956 118.568 40.3881 118.496 40.3781C118.426 40.3665 118.352 40.3607 118.274 40.3607C118.088 40.3607 117.922 40.3997 117.775 40.4779C117.63 40.5544 117.516 40.6609 117.431 40.7973C117.348 40.932 117.306 41.0859 117.306 41.2589V43.6841H116.717ZM120.459 43.7739C120.216 43.7739 119.996 43.7282 119.798 43.6367C119.6 43.5435 119.443 43.4096 119.326 43.235C119.21 43.0587 119.152 42.8457 119.152 42.5962C119.152 42.3767 119.195 42.1987 119.282 42.0623C119.368 41.9242 119.484 41.8161 119.628 41.7379C119.773 41.6598 119.933 41.6015 120.107 41.5633C120.284 41.5234 120.461 41.4918 120.639 41.4685C120.872 41.4385 121.061 41.4161 121.205 41.4011C121.352 41.3845 121.458 41.357 121.525 41.3188C121.593 41.2805 121.627 41.214 121.627 41.1192V41.0992C121.627 40.853 121.56 40.6617 121.425 40.5253C121.292 40.3889 121.09 40.3207 120.819 40.3207C120.537 40.3207 120.317 40.3823 120.157 40.5054C119.998 40.6285 119.885 40.7599 119.82 40.8996L119.262 40.7C119.361 40.4671 119.494 40.2858 119.661 40.1561C119.829 40.0247 120.012 39.9332 120.21 39.8816C120.409 39.8284 120.606 39.8018 120.799 39.8018C120.922 39.8018 121.063 39.8167 121.223 39.8467C121.384 39.8749 121.54 39.934 121.689 40.0238C121.841 40.1136 121.966 40.2492 122.066 40.4305C122.166 40.6118 122.216 40.8547 122.216 41.1591V43.6841H121.627V43.1651H121.597C121.557 43.2483 121.491 43.3373 121.397 43.4321C121.304 43.5269 121.18 43.6076 121.026 43.6741C120.871 43.7406 120.682 43.7739 120.459 43.7739ZM120.549 43.245C120.782 43.245 120.978 43.1992 121.138 43.1077C121.299 43.0162 121.421 42.8981 121.502 42.7534C121.585 42.6087 121.627 42.4565 121.627 42.2968V41.7579C121.602 41.7878 121.547 41.8153 121.462 41.8402C121.379 41.8635 121.283 41.8843 121.173 41.9026C121.065 41.9192 120.959 41.9342 120.856 41.9475C120.754 41.9592 120.672 41.9691 120.609 41.9775C120.456 41.9974 120.313 42.0299 120.18 42.0748C120.048 42.118 119.942 42.1837 119.86 42.2719C119.781 42.3584 119.741 42.4765 119.741 42.6262C119.741 42.8308 119.816 42.9855 119.968 43.0903C120.121 43.1934 120.315 43.245 120.549 43.245ZM123.291 43.6841V39.8517H123.859V40.4305H123.899C123.969 40.2409 124.096 40.087 124.279 39.9689C124.462 39.8508 124.668 39.7918 124.897 39.7918C124.941 39.7918 124.995 39.7926 125.06 39.7943C125.124 39.7959 125.173 39.7984 125.207 39.8018V40.4006C125.187 40.3956 125.141 40.3881 125.069 40.3781C125 40.3665 124.926 40.3607 124.847 40.3607C124.661 40.3607 124.495 40.3997 124.348 40.4779C124.204 40.5544 124.089 40.6609 124.004 40.7973C123.921 40.932 123.879 41.0859 123.879 41.2589V43.6841H123.291ZM126.401 45.1212C126.301 45.1212 126.212 45.1129 126.134 45.0963C126.055 45.0813 126.001 45.0663 125.971 45.0514L126.121 44.5324C126.264 44.569 126.391 44.5823 126.5 44.5723C126.61 44.5623 126.707 44.5133 126.792 44.4251C126.879 44.3386 126.958 44.1981 127.029 44.0035L127.139 43.704L125.722 39.8517H126.361L127.419 42.9056H127.459L128.516 39.8517H129.155L127.528 44.243C127.455 44.4409 127.365 44.6048 127.256 44.7345C127.148 44.8659 127.023 44.9632 126.88 45.0264C126.738 45.0896 126.579 45.1212 126.401 45.1212ZM131.988 43.6841V38.5742H133.775C134.131 38.5742 134.424 38.6357 134.656 38.7588C134.887 38.8802 135.059 39.0441 135.172 39.2504C135.285 39.4549 135.342 39.682 135.342 39.9315C135.342 40.1511 135.303 40.3324 135.224 40.4754C135.148 40.6185 135.046 40.7316 134.92 40.8148C134.795 40.8979 134.66 40.9595 134.513 40.9994V41.0493C134.67 41.0593 134.827 41.1142 134.985 41.214C135.143 41.3138 135.275 41.4568 135.382 41.6431C135.488 41.8294 135.541 42.0573 135.541 42.3268C135.541 42.5829 135.483 42.8133 135.367 43.0179C135.25 43.2225 135.066 43.3847 134.815 43.5044C134.564 43.6242 134.237 43.6841 133.835 43.6841H131.988ZM132.607 43.1352H133.835C134.239 43.1352 134.526 43.057 134.695 42.9006C134.867 42.7426 134.952 42.5513 134.952 42.3268C134.952 42.1538 134.908 41.9941 134.82 41.8477C134.732 41.6997 134.606 41.5816 134.443 41.4934C134.28 41.4036 134.087 41.3587 133.865 41.3587H132.607V43.1352ZM132.607 40.8197H133.755C133.941 40.8197 134.109 40.7832 134.259 40.71C134.41 40.6368 134.53 40.5336 134.618 40.4006C134.708 40.2675 134.753 40.1111 134.753 39.9315C134.753 39.7069 134.675 39.5165 134.518 39.3601C134.362 39.2021 134.114 39.1231 133.775 39.1231H132.607V40.8197ZM136.478 43.6841V39.8517H137.067V43.6841H136.478ZM136.778 39.2129C136.663 39.2129 136.564 39.1738 136.481 39.0957C136.399 39.0175 136.358 38.9235 136.358 38.8137C136.358 38.7039 136.399 38.61 136.481 38.5318C136.564 38.4536 136.663 38.4145 136.778 38.4145C136.892 38.4145 136.99 38.4536 137.072 38.5318C137.155 38.61 137.197 38.7039 137.197 38.8137C137.197 38.9235 137.155 39.0175 137.072 39.0957C136.99 39.1738 136.892 39.2129 136.778 39.2129ZM140.86 40.71L140.331 40.8597C140.298 40.7715 140.249 40.6858 140.184 40.6027C140.121 40.5178 140.034 40.448 139.924 40.3931C139.815 40.3382 139.674 40.3108 139.503 40.3108C139.268 40.3108 139.073 40.3648 138.916 40.4729C138.762 40.5794 138.684 40.715 138.684 40.8796C138.684 41.026 138.738 41.1416 138.844 41.2264C138.951 41.3113 139.117 41.382 139.343 41.4385L139.912 41.5782C140.255 41.6614 140.51 41.7887 140.678 41.96C140.846 42.1297 140.93 42.3484 140.93 42.6162C140.93 42.8358 140.867 43.032 140.74 43.205C140.616 43.378 140.441 43.5144 140.216 43.6142C139.992 43.714 139.731 43.7639 139.433 43.7639C139.042 43.7639 138.719 43.6791 138.462 43.5094C138.206 43.3398 138.044 43.0919 137.976 42.7659L138.535 42.6262C138.588 42.8324 138.689 42.9871 138.837 43.0903C138.986 43.1934 139.182 43.245 139.423 43.245C139.697 43.245 139.915 43.1867 140.077 43.0703C140.24 42.9522 140.321 42.8108 140.321 42.6461C140.321 42.5131 140.275 42.4016 140.181 42.3118C140.088 42.2203 139.945 42.1521 139.752 42.1072L139.114 41.9575C138.763 41.8743 138.505 41.7454 138.34 41.5708C138.177 41.3944 138.096 41.174 138.096 40.9096C138.096 40.6933 138.156 40.502 138.278 40.3357C138.401 40.1694 138.568 40.0388 138.779 39.944C138.992 39.8492 139.233 39.8018 139.503 39.8018C139.882 39.8018 140.18 39.8849 140.396 40.0513C140.614 40.2176 140.769 40.4372 140.86 40.71ZM143.483 39.8517V40.3507H141.497V39.8517H143.483ZM142.076 38.9335H142.665V42.5863C142.665 42.7526 142.689 42.8773 142.737 42.9605C142.787 43.042 142.85 43.0969 142.927 43.1252C143.005 43.1518 143.087 43.1651 143.174 43.1651C143.239 43.1651 143.292 43.1618 143.333 43.1551C143.375 43.1468 143.408 43.1402 143.433 43.1352L143.553 43.6641C143.513 43.6791 143.457 43.6941 143.386 43.709C143.314 43.7257 143.224 43.734 143.114 43.734C142.947 43.734 142.784 43.6982 142.625 43.6267C142.467 43.5552 142.335 43.4462 142.231 43.2998C142.127 43.1535 142.076 42.9688 142.076 42.7459V38.9335ZM144.369 43.6841V39.8517H144.938V40.4305H144.978C145.047 40.2409 145.174 40.087 145.357 39.9689C145.54 39.8508 145.746 39.7918 145.976 39.7918C146.019 39.7918 146.073 39.7926 146.138 39.7943C146.203 39.7959 146.252 39.7984 146.285 39.8018V40.4006C146.265 40.3956 146.219 40.3881 146.148 40.3781C146.078 40.3665 146.004 40.3607 145.926 40.3607C145.739 40.3607 145.573 40.3997 145.427 40.4779C145.282 40.5544 145.167 40.6609 145.082 40.7973C144.999 40.932 144.958 41.0859 144.958 41.2589V43.6841H144.369ZM148.423 43.7639C148.077 43.7639 147.774 43.6816 147.513 43.5169C147.253 43.3522 147.05 43.1219 146.904 42.8258C146.759 42.5297 146.687 42.1837 146.687 41.7878C146.687 41.3886 146.759 41.0401 146.904 40.7424C147.05 40.4447 147.253 40.2134 147.513 40.0488C147.774 39.8841 148.077 39.8018 148.423 39.8018C148.769 39.8018 149.072 39.8841 149.332 40.0488C149.593 40.2134 149.796 40.4447 149.94 40.7424C150.087 41.0401 150.16 41.3886 150.16 41.7878C150.16 42.1837 150.087 42.5297 149.94 42.8258C149.796 43.1219 149.593 43.3522 149.332 43.5169C149.072 43.6816 148.769 43.7639 148.423 43.7639ZM148.423 43.235C148.686 43.235 148.902 43.1676 149.072 43.0329C149.242 42.8981 149.367 42.721 149.449 42.5014C149.53 42.2819 149.571 42.044 149.571 41.7878C149.571 41.5317 149.53 41.293 149.449 41.0717C149.367 40.8505 149.242 40.6717 149.072 40.5353C148.902 40.3989 148.686 40.3307 148.423 40.3307C148.16 40.3307 147.944 40.3989 147.775 40.5353C147.605 40.6717 147.479 40.8505 147.398 41.0717C147.316 41.293 147.276 41.5317 147.276 41.7878C147.276 42.044 147.316 42.2819 147.398 42.5014C147.479 42.721 147.605 42.8981 147.775 43.0329C147.944 43.1676 148.16 43.235 148.423 43.235Z" fill="#222222"/>
</g>
<defs>
<clipPath id="clip0_2095_195">
<rect width="258.858" height="51" fill="white"/>
</clipPath>
</defs>
</svg>
